{
.appVersion = "1342";
copyright = "©2010 by Robert E. Leuschke. All rights reserved.";
customParameters = (
{
name = description;
value = "© 2010 by Robert E. Leuschke. All rights reserved.";
},
{
name = trademark;
value = "CorinthiaProfessional is a trademark of Robert E. Leuschke.";
},
{
name = licenseURL;
value = "http://www.typesetit.com/license.html";
},
{
name = license;

glyphs = (
{
color = 6;
glyphname = A;
lastChange = "2021-04-21 04:42:22 +0000";
layers = (
{
hints = (
{
horizontal = 1;
place = "{-61, 33}";
type = Stem;
},
{
horizontal = 1;
place = "{168, 314}";
type = Stem;
},
{
horizontal = 1;
place = "{587, -20}";
target = down;
type = TopGhost;
},
{
place = "{10, 47}";
type = Stem;
},
{
place = "{727, 48}";
type = Stem;
}
);
layerId = "AFE3E0A9-A514-4B93-8E4E-B7D18C88F31C";
paths = (
{
closed = 1;
nodes = (
"807 360 OFFCURVE",
"785 290 OFFCURVE",
"766 223 CURVE",
"732 229 OFFCURVE",
"691 232 OFFCURVE",
"657 234 CURVE",
"715 295 OFFCURVE",
"779 362 OFFCURVE",
"836 424 CURVE"
);
},
{
closed = 1;
nodes = (
"828 192 OFFCURVE",
"847 182 OFFCURVE",
"859 182 CURVE SMOOTH",
"869 182 OFFCURVE",
"877 179 OFFCURVE",
"877 191 CURVE SMOOTH",
"877 207 OFFCURVE",
"833 212 OFFCURVE",
"820 215 CURVE",
"861 338 OFFCURVE",
"917 452 OFFCURVE",
"992 558 CURVE SMOOTH",
"995 562 OFFCURVE",
"999 567 OFFCURVE",
"999 572 CURVE SMOOTH",
"999 582 OFFCURVE",
"991 587 OFFCURVE",
"981 587 CURVE SMOOTH",
"965 587 OFFCURVE",
"913 562 OFFCURVE",
"904 549 CURVE SMOOTH",
"888 527 OFFCURVE",
"874 501 OFFCURVE",
"862 477 CURVE",
"857 481 OFFCURVE",
"850 482 OFFCURVE",
"844 482 CURVE SMOOTH",
"838 482 OFFCURVE",
"832 479 OFFCURVE",
"828 475 CURVE SMOOTH",
"749 395 OFFCURVE",
"661 290 OFFCURVE",
"605 238 CURVE",
"456 239 OFFCURVE",
"191 248 OFFCURVE",
"73 153 CURVE SMOOTH",
"39 125 OFFCURVE",
"10 87 OFFCURVE",
"10 41 CURVE SMOOTH",
"10 -43 OFFCURVE",
"105 -67 OFFCURVE",
"173 -67 CURVE SMOOTH",
"347 -67 OFFCURVE",
"509 83 OFFCURVE",
"626 202 CURVE",
"653 204 OFFCURVE",
"717 208 OFFCURVE",
"761 203 CURVE",
"746 143 OFFCURVE",
"727 70 OFFCURVE",
"727 8 CURVE SMOOTH",
"727 -28 OFFCURVE",
"739 -61 OFFCURVE",
"781 -61 CURVE SMOOTH",
"798 -61 OFFCURVE",
"837 -47 OFFCURVE",
"860 -24 CURVE SMOOTH",
"868 -16 OFFCURVE",
"861 -2 OFFCURVE",
"853 -9 CURVE SMOOTH",
"839 -21 OFFCURVE",
"821 -32 OFFCURVE",
"806 -34 CURVE SMOOTH",
"780 -37 OFFCURVE",
"775 -28 OFFCURVE",
"775 -1 CURVE SMOOTH",
"775 61 OFFCURVE",
"797 135 OFFCURVE",
"814 194 CURVE"
);
},
{
closed = 1;
nodes = (
"452 102 OFFCURVE",
"288 -27 OFFCURVE",
"133 -29 CURVE SMOOTH",
"97 -30 OFFCURVE",
"34 -19 OFFCURVE",
"38 28 CURVE SMOOTH",
"52 191 OFFCURVE",
"444 202 OFFCURVE",
"569 204 CURVE"
);
}
);
width = 879;
}
);
note = A;
unicode = 0041;
},
{
color = 6;
glyphname = Aacute;
lastChange = "2021-04-21 04:42:22 +0000";
layers = (
{
hints = (
{
horizontal = 1;
place = "{-61, 33}";
type = Stem;
},
{
horizontal = 1;
place = "{168, 314}";
type = Stem;
},
{
place = "{10, 47}";
type = Stem;
},
{
place = "{727, 48}";
type = Stem;
}
);
layerId = "AFE3E0A9-A514-4B93-8E4E-B7D18C88F31C";
paths = (
{
closed = 1;
nodes = (
"807 360 OFFCURVE",
"785 290 OFFCURVE",
"766 223 CURVE",
"732 229 OFFCURVE",
"691 232 OFFCURVE",
"657 234 CURVE",
"715 295 OFFCURVE",
"779 362 OFFCURVE",
"836 424 CURVE"
);
},
{
closed = 1;
nodes = (
"828 192 OFFCURVE",
"847 182 OFFCURVE",
"859 182 CURVE SMOOTH",
"869 182 OFFCURVE",
"877 179 OFFCURVE",
"877 191 CURVE SMOOTH",
"877 207 OFFCURVE",
"833 212 OFFCURVE",
"820 215 CURVE",
"861 338 OFFCURVE",
"917 452 OFFCURVE",
"992 558 CURVE SMOOTH",
"995 562 OFFCURVE",
"999 567 OFFCURVE",
"999 572 CURVE SMOOTH",
"999 582 OFFCURVE",
"991 587 OFFCURVE",
"981 587 CURVE SMOOTH",
"965 587 OFFCURVE",
"913 562 OFFCURVE",
"904 549 CURVE SMOOTH",
"888 527 OFFCURVE",
"874 501 OFFCURVE",
"862 477 CURVE",
"857 481 OFFCURVE",
"850 482 OFFCURVE",
"844 482 CURVE SMOOTH",
"838 482 OFFCURVE",
"832 479 OFFCURVE",
"828 475 CURVE SMOOTH",
"749 395 OFFCURVE",
"661 290 OFFCURVE",
"605 238 CURVE",
"456 239 OFFCURVE",
"191 248 OFFCURVE",
"73 153 CURVE SMOOTH",
"39 125 OFFCURVE",
"10 87 OFFCURVE",
"10 41 CURVE SMOOTH",
"10 -43 OFFCURVE",
"105 -67 OFFCURVE",
"173 -67 CURVE SMOOTH",
"347 -67 OFFCURVE",
"509 83 OFFCURVE",
"626 202 CURVE",
"653 204 OFFCURVE",
"717 208 OFFCURVE",
"761 203 CURVE",
"746 143 OFFCURVE",
"727 70 OFFCURVE",
"727 8 CURVE SMOOTH",
"727 -28 OFFCURVE",
"739 -61 OFFCURVE",
"781 -61 CURVE SMOOTH",
"798 -61 OFFCURVE",
"837 -47 OFFCURVE",
"860 -24 CURVE SMOOTH",
"868 -16 OFFCURVE",
"861 -2 OFFCURVE",
"853 -9 CURVE SMOOTH",
"839 -21 OFFCURVE",
"821 -32 OFFCURVE",
"806 -34 CURVE SMOOTH",
"780 -37 OFFCURVE",
"775 -28 OFFCURVE",
"775 -1 CURVE SMOOTH",
"775 61 OFFCURVE",
"797 135 OFFCURVE",
"814 194 CURVE"
);
},
{
closed = 1;
nodes = (
"452 102 OFFCURVE",
"288 -27 OFFCURVE",
"133 -29 CURVE SMOOTH",
"97 -30 OFFCURVE",
"34 -19 OFFCURVE",
"38 28 CURVE SMOOTH",
"52 191 OFFCURVE",
"444 202 OFFCURVE",
"569 204 CURVE"
);
},
{
closed = 1;
nodes = (
"999 620 OFFCURVE",
"1100 670 OFFCURVE",
"1115 679 CURVE SMOOTH",
"1123 683 OFFCURVE",
"1128 692 OFFCURVE",
"1128 701 CURVE SMOOTH",
"1128 710 OFFCURVE",
"1122 717 OFFCURVE",
"1112 717 CURVE SMOOTH",
"1094 717 OFFCURVE",
"988 645 OFFCURVE",
"982 641 CURVE SMOOTH",
"979 639 OFFCURVE",
"975 635 OFFCURVE",
"975 631 CURVE SMOOTH",
"975 624 OFFCURVE",
"982 620 OFFCURVE",
"988 620 CURVE SMOOTH"
);
}
);
width = 879;
}
);
note = Aacute;
unicode = 00C1;
},
{
color = 6;
glyphname = Abreve;
lastChange = "2021-04-21 04:42:22 +0000";
layers = (
{
hints = (
{
horizontal = 1;
place = "{-61, 33}";
type = Stem;
},
{
horizontal = 1;
place = "{168, 314}";
type = Stem;
},
{
horizontal = 1;
place = "{626, 31}";
type = Stem;
},
{
place = "{10, 47}";
type = Stem;
},
{
place = "{727, 48}";
type = Stem;
},
{
horizontal = 1;
place = "{587, -20}";
target = down;
type = TopGhost;
}
);
layerId = "AFE3E0A9-A514-4B93-8E4E-B7D18C88F31C";
paths = (
{
closed = 1;
nodes = (
"807 360 OFFCURVE",
"785 290 OFFCURVE",
"766 223 CURVE",
"732 229 OFFCURVE",
"691 232 OFFCURVE",
"657 234 CURVE",
"715 295 OFFCURVE",
"779 362 OFFCURVE",
"836 424 CURVE"
);
},
{
closed = 1;
nodes = (
"828 192 OFFCURVE",
"847 182 OFFCURVE",
"859 182 CURVE SMOOTH",
"869 182 OFFCURVE",
"877 179 OFFCURVE",
"877 191 CURVE SMOOTH",
"877 207 OFFCURVE",
"833 212 OFFCURVE",
"820 215 CURVE",
"861 338 OFFCURVE",
"917 452 OFFCURVE",
"992 558 CURVE SMOOTH",
"995 562 OFFCURVE",
"999 567 OFFCURVE",
"999 572 CURVE SMOOTH",
"999 582 OFFCURVE",
"991 587 OFFCURVE",
"981 587 CURVE SMOOTH",
"965 587 OFFCURVE",
"913 562 OFFCURVE",
"904 549 CURVE SMOOTH",
"888 527 OFFCURVE",
"874 501 OFFCURVE",
"862 477 CURVE",
"857 481 OFFCURVE",
"850 482 OFFCURVE",
"844 482 CURVE SMOOTH",
"838 482 OFFCURVE",
"832 479 OFFCURVE",
"828 475 CURVE SMOOTH",
"749 395 OFFCURVE",
"661 290 OFFCURVE",
"605 238 CURVE",
"456 239 OFFCURVE",
"191 248 OFFCURVE",
"73 153 CURVE SMOOTH",
"39 125 OFFCURVE",
"10 87 OFFCURVE",
"10 41 CURVE SMOOTH",
"10 -43 OFFCURVE",
"105 -67 OFFCURVE",
"173 -67 CURVE SMOOTH",
"347 -67 OFFCURVE",
"509 83 OFFCURVE",
"626 202 CURVE",
"653 204 OFFCURVE",
"717 208 OFFCURVE",
"761 203 CURVE",
"746 143 OFFCURVE",
"727 70 OFFCURVE",
"727 8 CURVE SMOOTH",
"727 -28 OFFCURVE",
"739 -61 OFFCURVE",
"781 -61 CURVE SMOOTH",
"798 -61 OFFCURVE",
"837 -47 OFFCURVE",
"860 -24 CURVE SMOOTH",
"868 -16 OFFCURVE",
"861 -2 OFFCURVE",
"853 -9 CURVE SMOOTH",
"839 -21 OFFCURVE",
"821 -32 OFFCURVE",
"806 -34 CURVE SMOOTH",
"780 -37 OFFCURVE",
"775 -28 OFFCURVE",
"775 -1 CURVE SMOOTH",
"775 61 OFFCURVE",
"797 135 OFFCURVE",
"814 194 CURVE"
);
},
{
closed = 1;
nodes = (
"452 102 OFFCURVE",
"288 -27 OFFCURVE",
"133 -29 CURVE SMOOTH",
"97 -30 OFFCURVE",
"34 -19 OFFCURVE",
"38 28 CURVE SMOOTH",
"52 191 OFFCURVE",
"444 202 OFFCURVE",
"569 204 CURVE"
);
},
{
closed = 1;
nodes = (
"1045 630 OFFCURVE",
"1111 675 OFFCURVE",
"1119 707 CURVE",
"1119 720 OFFCURVE",
"1109 718 OFFCURVE",
"1102 711 CURVE SMOOTH",
"1077 685 OFFCURVE",
"1026 657 OFFCURVE",
"991 657 CURVE SMOOTH",
"974 657 OFFCURVE",
"954 658 OFFCURVE",
"941 669 CURVE SMOOTH",
"933 675 OFFCURVE",
"925 684 OFFCURVE",
"922 701 CURVE SMOOTH",
"921 709 OFFCURVE",
"911 715 OFFCURVE",
"908 715 CURVE SMOOTH",
"893 715 OFFCURVE",
"887 705 OFFCURVE",
"887 694 CURVE SMOOTH",
"887 647 OFFCURVE",
"943 630 OFFCURVE",
"983 630 CURVE SMOOTH"
);
}
);
width = 928;
}
);
note = Abreve;
unicode = 0102;
},
{
color = 6;
glyphname = Acircumflex;
lastChange = "2021-04-21 04:42:22 +0000";
layers = (
{
hints = (
{
horizontal = 1;
place = "{-61, 33}";
type = Stem;
},
{
horizontal = 1;
place = "{168, 314}";
type = Stem;
},
{
place = "{10, 47}";
type = Stem;
},
{
place = "{727, 48}";
type = Stem;
}
);
layerId = "AFE3E0A9-A514-4B93-8E4E-B7D18C88F31C";
paths = (
{
closed = 1;
nodes = (
"807 360 OFFCURVE",
"785 290 OFFCURVE",
"766 223 CURVE",
"732 229 OFFCURVE",
"691 232 OFFCURVE",
"657 234 CURVE",
"715 295 OFFCURVE",
"779 362 OFFCURVE",
"836 424 CURVE"
);
},
{
closed = 1;
nodes = (
"828 192 OFFCURVE",
"847 182 OFFCURVE",
"859 182 CURVE SMOOTH",
"869 182 OFFCURVE",
"877 179 OFFCURVE",
"877 191 CURVE SMOOTH",
"877 207 OFFCURVE",
"833 212 OFFCURVE",
"820 215 CURVE",
"861 338 OFFCURVE",
"917 452 OFFCURVE",
"992 558 CURVE SMOOTH",
"995 562 OFFCURVE",
"999 567 OFFCURVE",
"999 572 CURVE SMOOTH",
"999 582 OFFCURVE",
"991 587 OFFCURVE",
"981 587 CURVE SMOOTH",
"965 587 OFFCURVE",
"913 562 OFFCURVE",
"904 549 CURVE SMOOTH",
"888 527 OFFCURVE",
"874 501 OFFCURVE",
"862 477 CURVE",
"857 481 OFFCURVE",
"850 482 OFFCURVE",
"844 482 CURVE SMOOTH",
"838 482 OFFCURVE",
"832 479 OFFCURVE",
"828 475 CURVE SMOOTH",
"749 395 OFFCURVE",
"661 290 OFFCURVE",
"605 238 CURVE",
"456 239 OFFCURVE",
"191 248 OFFCURVE",
"73 153 CURVE SMOOTH",
"39 125 OFFCURVE",
"10 87 OFFCURVE",
"10 41 CURVE SMOOTH",
"10 -43 OFFCURVE",
"105 -67 OFFCURVE",
"173 -67 CURVE SMOOTH",
"347 -67 OFFCURVE",
"509 83 OFFCURVE",
"626 202 CURVE",
"653 204 OFFCURVE",
"717 208 OFFCURVE",
"761 203 CURVE",
"746 143 OFFCURVE",
"727 70 OFFCURVE",
"727 8 CURVE SMOOTH",
"727 -28 OFFCURVE",
"739 -61 OFFCURVE",
"781 -61 CURVE SMOOTH",
"798 -61 OFFCURVE",
"837 -47 OFFCURVE",
"860 -24 CURVE SMOOTH",
"868 -16 OFFCURVE",
"861 -2 OFFCURVE",
"853 -9 CURVE SMOOTH",
"839 -21 OFFCURVE",
"821 -32 OFFCURVE",
"806 -34 CURVE SMOOTH",
"780 -37 OFFCURVE",
"775 -28 OFFCURVE",
"775 -1 CURVE SMOOTH",
"775 61 OFFCURVE",
"797 135 OFFCURVE",
"814 194 CURVE"
);
},
{
closed = 1;
nodes = (
"452 102 OFFCURVE",
"288 -27 OFFCURVE",
"133 -29 CURVE SMOOTH",
"97 -30 OFFCURVE",
"34 -19 OFFCURVE",
"38 28 CURVE SMOOTH",
"52 191 OFFCURVE",
"444 202 OFFCURVE",
"569 204 CURVE"
);
},
{
closed = 1;
nodes = (
"1055 650 OFFCURVE",
"1023 679 OFFCURVE",
"1014 694 CURVE SMOOTH",
"1001 713 OFFCURVE",
"977 694 OFFCURVE",
"919 662 CURVE SMOOTH",
"872 635 OFFCURVE",
"841 613 OFFCURVE",
"840 608 CURVE",
"837 603 OFFCURVE",
"840 601 OFFCURVE",
"845 601 CURVE SMOOTH",
"852 601 OFFCURVE",
"893 620 OFFCURVE",
"971 664 CURVE",
"978 654 OFFCURVE",
"994 640 OFFCURVE",
"1020 623 CURVE SMOOTH",
"1022 622 OFFCURVE",
"1046 604 OFFCURVE",
"1064 598 CURVE",
"1081 589 OFFCURVE",
"1105 604 OFFCURVE",
"1094 617 CURVE"
);
}
);
width = 879;
}
);
note = Acircumflex;
unicode = 00C2;
},
{
color = 6;
glyphname = Adieresis;
lastChange = "2021-04-21 04:42:22 +0000";
layers = (
{
hints = (
{
horizontal = 1;
place = "{-61, 33}";
type = Stem;
},
{
horizontal = 1;
place = "{168, 314}";
type = Stem;
},
{
horizontal = 1;
place = "{609, 74}";
type = Stem;
},
{
place = "{10, 47}";
type = Stem;
},
{
place = "{727, 48}";
type = Stem;
},
{
place = "{860, 82}";
type = Stem;
},
{
place = "{1011, 82}";
type = Stem;
},
{
horizontal = 1;
place = "{587, -20}";
target = down;
type = TopGhost;
}
);
layerId = "AFE3E0A9-A514-4B93-8E4E-B7D18C88F31C";
paths = (
{
closed = 1;
nodes = (
"807 360 OFFCURVE",
"785 290 OFFCURVE",
"766 223 CURVE",
"732 229 OFFCURVE",
"691 232 OFFCURVE",
"657 234 CURVE",
"715 295 OFFCURVE",
"779 362 OFFCURVE",
"836 424 CURVE"
);
},
{
closed = 1;
nodes = (
"828 192 OFFCURVE",
"847 182 OFFCURVE",
"859 182 CURVE SMOOTH",
"869 182 OFFCURVE",
"877 179 OFFCURVE",
"877 191 CURVE SMOOTH",
"877 207 OFFCURVE",
"833 212 OFFCURVE",
"820 215 CURVE",
"861 338 OFFCURVE",
"917 452 OFFCURVE",
"992 558 CURVE SMOOTH",
"995 562 OFFCURVE",
"999 567 OFFCURVE",
"999 572 CURVE SMOOTH",
"999 582 OFFCURVE",
"991 587 OFFCURVE",
"981 587 CURVE SMOOTH",
"965 587 OFFCURVE",
"913 562 OFFCURVE",
"904 549 CURVE SMOOTH",
"888 527 OFFCURVE",
"874 501 OFFCURVE",
"862 477 CURVE",
"857 481 OFFCURVE",
"850 482 OFFCURVE",
"844 482 CURVE SMOOTH",
"838 482 OFFCURVE",
"832 479 OFFCURVE",
"828 475 CURVE SMOOTH",
"749 395 OFFCURVE",
"661 290 OFFCURVE",
"605 238 CURVE",
"456 239 OFFCURVE",
"191 248 OFFCURVE",
"73 153 CURVE SMOOTH",
"39 125 OFFCURVE",
"10 87 OFFCURVE",
"10 41 CURVE SMOOTH",
"10 -43 OFFCURVE",
"105 -67 OFFCURVE",
"173 -67 CURVE SMOOTH",
"347 -67 OFFCURVE",
"509 83 OFFCURVE",
"626 202 CURVE",
"653 204 OFFCURVE",
"717 208 OFFCURVE",
"761 203 CURVE",
"746 143 OFFCURVE",
"727 70 OFFCURVE",
"727 8 CURVE SMOOTH",
"727 -28 OFFCURVE",
"739 -61 OFFCURVE",
"781 -61 CURVE SMOOTH",
"798 -61 OFFCURVE",
"837 -47 OFFCURVE",
"860 -24 CURVE SMOOTH",
"868 -16 OFFCURVE",
"861 -2 OFFCURVE",
"853 -9 CURVE SMOOTH",
"839 -21 OFFCURVE",
"821 -32 OFFCURVE",
"806 -34 CURVE SMOOTH",
"780 -37 OFFCURVE",
"775 -28 OFFCURVE",
"775 -1 CURVE SMOOTH",
"775 61 OFFCURVE",
"797 135 OFFCURVE",
"814 194 CURVE"
);
},
{
closed = 1;
nodes = (
"452 102 OFFCURVE",
"288 -27 OFFCURVE",
"133 -29 CURVE SMOOTH",
"97 -30 OFFCURVE",
"34 -19 OFFCURVE",
"38 28 CURVE SMOOTH",
"52 191 OFFCURVE",
"444 202 OFFCURVE",
"569 204 CURVE"
);
},
{
closed = 1;
nodes = (
"863 627 OFFCURVE",
"876 613 OFFCURVE",
"895 613 CURVE SMOOTH",
"914 613 OFFCURVE",
"931 627 OFFCURVE",
"933 645 CURVE SMOOTH",
"936 663 OFFCURVE",
"923 677 OFFCURVE",
"904 677 CURVE SMOOTH",
"884 677 OFFCURVE",
"867 663 OFFCURVE",
"865 645 CURVE SMOOTH"
);
},
{
closed = 1;
nodes = (
"1015 627 OFFCURVE",
"1028 613 OFFCURVE",
"1047 613 CURVE SMOOTH",
"1066 613 OFFCURVE",
"1083 627 OFFCURVE",
"1085 645 CURVE SMOOTH",
"1088 663 OFFCURVE",
"1075 677 OFFCURVE",
"1056 677 CURVE SMOOTH",
"1036 677 OFFCURVE",
"1019 663 OFFCURVE",
"1017 645 CURVE SMOOTH"
);
}
);
width = 879;
}
);
note = Adieresis;
unicode = 00C4;
},
{
color = 6;
glyphname = Agrave;
lastChange = "2021-04-21 04:42:22 +0000";
layers = (
{
hints = (
{
horizontal = 1;
place = "{-61, 33}";
type = Stem;
},
{
horizontal = 1;
place = "{169, 314}";
type = Stem;
},
{
place = "{10, 47}";
type = Stem;
},
{
place = "{727, 48}";
type = Stem;
}
);
layerId = "AFE3E0A9-A514-4B93-8E4E-B7D18C88F31C";
paths = (
{
closed = 1;
nodes = (
"807 360 OFFCURVE",
"785 290 OFFCURVE",
"766 223 CURVE",
"732 229 OFFCURVE",
"691 232 OFFCURVE",
"657 234 CURVE",
"715 295 OFFCURVE",
"779 362 OFFCURVE",
"836 424 CURVE"
);
},
{
closed = 1;
nodes = (
"828 192 OFFCURVE",
"847 182 OFFCURVE",
"859 182 CURVE SMOOTH",
"869 182 OFFCURVE",
"877 179 OFFCURVE",
"877 191 CURVE SMOOTH",
"877 207 OFFCURVE",
"833 212 OFFCURVE",
"820 215 CURVE",
"861 338 OFFCURVE",
"917 452 OFFCURVE",
"992 558 CURVE SMOOTH",
"995 562 OFFCURVE",
"999 567 OFFCURVE",
"999 572 CURVE SMOOTH",
"999 582 OFFCURVE",
"991 587 OFFCURVE",
"981 587 CURVE SMOOTH",
"965 587 OFFCURVE",
"913 562 OFFCURVE",
"904 549 CURVE SMOOTH",
"888 527 OFFCURVE",
"874 501 OFFCURVE",
"862 477 CURVE",
"857 481 OFFCURVE",
"850 482 OFFCURVE",
"844 482 CURVE SMOOTH",
"838 482 OFFCURVE",
"832 479 OFFCURVE",
"828 475 CURVE SMOOTH",
"749 395 OFFCURVE",
"661 290 OFFCURVE",
"605 238 CURVE",
"456 239 OFFCURVE",
"191 248 OFFCURVE",
"73 153 CURVE SMOOTH",
"39 125 OFFCURVE",
"10 87 OFFCURVE",
"10 41 CURVE SMOOTH",
"10 -43 OFFCURVE",
"105 -67 OFFCURVE",
"173 -67 CURVE SMOOTH",
"347 -67 OFFCURVE",
"509 83 OFFCURVE",
"626 202 CURVE",
"653 204 OFFCURVE",
"717 208 OFFCURVE",
"761 203 CURVE",
"746 143 OFFCURVE",
"727 70 OFFCURVE",
"727 8 CURVE SMOOTH",
"727 -28 OFFCURVE",
"739 -61 OFFCURVE",
"781 -61 CURVE SMOOTH",
"798 -61 OFFCURVE",
"837 -47 OFFCURVE",
"860 -24 CURVE SMOOTH",
"868 -16 OFFCURVE",
"861 -2 OFFCURVE",
"853 -9 CURVE SMOOTH",
"839 -21 OFFCURVE",
"821 -32 OFFCURVE",
"806 -34 CURVE SMOOTH",
"780 -37 OFFCURVE",
"775 -28 OFFCURVE",
"775 -1 CURVE SMOOTH",
"775 61 OFFCURVE",
"797 135 OFFCURVE",
"814 194 CURVE"
);
},
{
closed = 1;
nodes = (
"452 102 OFFCURVE",
"288 -27 OFFCURVE",
"133 -29 CURVE SMOOTH",
"97 -30 OFFCURVE",
"34 -19 OFFCURVE",
"38 28 CURVE SMOOTH",
"52 191 OFFCURVE",
"444 202 OFFCURVE",
"569 204 CURVE"
);
},
{
closed = 1;
nodes = (
"997 617 OFFCURVE",
"1006 620 OFFCURVE",
"1006 628 CURVE SMOOTH",
"1006 640 OFFCURVE",
"862 731 OFFCURVE",
"843 731 CURVE SMOOTH",
"831 731 OFFCURVE",
"824 724 OFFCURVE",
"824 712 CURVE SMOOTH",
"824 683 OFFCURVE",
"978 617 OFFCURVE",
"990 617 CURVE SMOOTH"
);
}
);
width = 879;
}
);
note = Agrave;
unicode = 00C0;
},
{
color = 6;
glyphname = Amacron;
lastChange = "2021-04-21 04:42:22 +0000";
layers = (
{
hints = (
{
horizontal = 1;
place = "{-61, 33}";
type = Stem;
},
{
horizontal = 1;
place = "{168, 314}";
type = Stem;
},
{
place = "{10, 47}";
type = Stem;
},
{
place = "{727, 48}";
type = Stem;
},
{
place = "{844, 260}";
type = Stem;
},
{
horizontal = 1;
place = "{587, -20}";
target = down;
type = TopGhost;
}
);
layerId = "AFE3E0A9-A514-4B93-8E4E-B7D18C88F31C";
paths = (
{
closed = 1;
nodes = (
"807 360 OFFCURVE",
"785 290 OFFCURVE",
"766 223 CURVE",
"732 229 OFFCURVE",
"691 232 OFFCURVE",
"657 234 CURVE",
"715 295 OFFCURVE",
"779 362 OFFCURVE",
"836 424 CURVE"
);
},
{
closed = 1;
nodes = (
"828 192 OFFCURVE",
"847 182 OFFCURVE",
"859 182 CURVE SMOOTH",
"869 182 OFFCURVE",
"877 179 OFFCURVE",
"877 191 CURVE SMOOTH",
"877 207 OFFCURVE",
"833 212 OFFCURVE",
"820 215 CURVE",
"861 338 OFFCURVE",
"917 452 OFFCURVE",
"992 558 CURVE SMOOTH",
"995 562 OFFCURVE",
"999 567 OFFCURVE",
"999 572 CURVE SMOOTH",
"999 582 OFFCURVE",
"991 587 OFFCURVE",
"981 587 CURVE SMOOTH",
"965 587 OFFCURVE",
"913 562 OFFCURVE",
"904 549 CURVE SMOOTH",
"888 527 OFFCURVE",
"874 501 OFFCURVE",
"862 477 CURVE",
"857 481 OFFCURVE",
"850 482 OFFCURVE",
"844 482 CURVE SMOOTH",
"838 482 OFFCURVE",
"832 479 OFFCURVE",
"828 475 CURVE SMOOTH",
"749 395 OFFCURVE",
"661 290 OFFCURVE",
"605 238 CURVE",
"456 239 OFFCURVE",
"191 248 OFFCURVE",
"73 153 CURVE SMOOTH",
"39 125 OFFCURVE",
"10 87 OFFCURVE",
"10 41 CURVE SMOOTH",
"10 -43 OFFCURVE",
"105 -67 OFFCURVE",
"173 -67 CURVE SMOOTH",
"347 -67 OFFCURVE",
"509 83 OFFCURVE",
"626 202 CURVE",
"653 204 OFFCURVE",
"717 208 OFFCURVE",
"761 203 CURVE",
"746 143 OFFCURVE",
"727 70 OFFCURVE",
"727 8 CURVE SMOOTH",
"727 -28 OFFCURVE",
"739 -61 OFFCURVE",
"781 -61 CURVE SMOOTH",
"798 -61 OFFCURVE",
"837 -47 OFFCURVE",
"860 -24 CURVE SMOOTH",
"868 -16 OFFCURVE",
"861 -2 OFFCURVE",
"853 -9 CURVE SMOOTH",
"839 -21 OFFCURVE",
"821 -32 OFFCURVE",
"806 -34 CURVE SMOOTH",
"780 -37 OFFCURVE",
"775 -28 OFFCURVE",
"775 -1 CURVE SMOOTH",
"775 61 OFFCURVE",
"797 135 OFFCURVE",
"814 194 CURVE"
);
},
{
closed = 1;
nodes = (
"452 102 OFFCURVE",
"288 -27 OFFCURVE",
"133 -29 CURVE SMOOTH",
"97 -30 OFFCURVE",
"34 -19 OFFCURVE",
"38 28 CURVE SMOOTH",
"52 191 OFFCURVE",
"444 202 OFFCURVE",
"569 204 CURVE"
);
},
{
closed = 1;
nodes = (
"955 627 OFFCURVE",
"1011 638 OFFCURVE",
"1068 638 CURVE SMOOTH",
"1077 638 OFFCURVE",
"1121 638 OFFCURVE",
"1121 653 CURVE SMOOTH",
"1121 674 OFFCURVE",
"987 677 OFFCURVE",
"967 677 CURVE SMOOTH",
"946 677 OFFCURVE",
"861 670 OFFCURVE",
"861 640 CURVE SMOOTH",
"861 626 OFFCURVE",
"889 627 OFFCURVE",
"898 627 CURVE SMOOTH"
);
}
);
width = 879;
}
);
note = Amacron;
unicode = 0100;
},
{
color = 6;
glyphname = Aogonek;
lastChange = "2021-04-21 04:42:22 +0000";
layers = (
{
hints = (
{
horizontal = 1;
place = "{-276, 45}";
type = Stem;
},
{
horizontal = 1;
place = "{-67, 52}";
type = Stem;
},
{
horizontal = 1;
place = "{168, 314}";
type = Stem;
},
{
horizontal = 1;
place = "{587, -20}";
target = down;
type = TopGhost;
},
{
place = "{10, 47}";
type = Stem;
},
{
place = "{650, 62}";
type = Stem;
},
{
place = "{727, 48}";
type = Stem;
},
{
horizontal = 1;
place = "{-61, 33}";
type = Stem;
}
);
layerId = "AFE3E0A9-A514-4B93-8E4E-B7D18C88F31C";
paths = (
{
closed = 1;
nodes = (
"807 360 OFFCURVE",
"785 290 OFFCURVE",
"766 223 CURVE",
"732 229 OFFCURVE",
"691 232 OFFCURVE",
"657 234 CURVE",
"715 295 OFFCURVE",
"779 362 OFFCURVE",
"836 424 CURVE"
);
},
{
closed = 1;
nodes = (
"828 192 OFFCURVE",
"847 182 OFFCURVE",
"859 182 CURVE SMOOTH",
"869 182 OFFCURVE",
"877 179 OFFCURVE",
"877 191 CURVE SMOOTH",
"877 207 OFFCURVE",
"833 212 OFFCURVE",
"820 215 CURVE",
"861 338 OFFCURVE",
"917 452 OFFCURVE",
"992 558 CURVE SMOOTH",
"995 562 OFFCURVE",
"999 567 OFFCURVE",
"999 572 CURVE SMOOTH",
"999 582 OFFCURVE",
"991 587 OFFCURVE",
"981 587 CURVE SMOOTH",
"965 587 OFFCURVE",
"913 562 OFFCURVE",
"904 549 CURVE SMOOTH",
"888 527 OFFCURVE",
"874 501 OFFCURVE",
"862 477 CURVE",
"857 481 OFFCURVE",
"850 482 OFFCURVE",
"844 482 CURVE SMOOTH",
"838 482 OFFCURVE",
"832 479 OFFCURVE",
"828 475 CURVE SMOOTH",
"749 395 OFFCURVE",
"661 290 OFFCURVE",
"605 238 CURVE",
"456 239 OFFCURVE",
"191 248 OFFCURVE",
"73 153 CURVE SMOOTH",
"39 125 OFFCURVE",
"10 87 OFFCURVE",
"10 41 CURVE SMOOTH",
"10 -43 OFFCURVE",
"105 -67 OFFCURVE",
"173 -67 CURVE SMOOTH",
"347 -67 OFFCURVE",
"509 83 OFFCURVE",
"626 202 CURVE",
"653 204 OFFCURVE",
"717 208 OFFCURVE",
"761 203 CURVE",
"746 143 OFFCURVE",
"727 70 OFFCURVE",
"727 8 CURVE SMOOTH",
"727 -28 OFFCURVE",
"739 -61 OFFCURVE",
"781 -61 CURVE SMOOTH",
"798 -61 OFFCURVE",
"837 -47 OFFCURVE",
"860 -24 CURVE SMOOTH",
"868 -16 OFFCURVE",
"861 -2 OFFCURVE",
"853 -9 CURVE SMOOTH",
"839 -21 OFFCURVE",
"821 -32 OFFCURVE",
"806 -34 CURVE SMOOTH",
"780 -37 OFFCURVE",
"775 -28 OFFCURVE",
"775 -1 CURVE SMOOTH",
"775 61 OFFCURVE",
"797 135 OFFCURVE",
"814 194 CURVE"
);
},
{
closed = 1;
nodes = (
"452 102 OFFCURVE",
"288 -27 OFFCURVE",
"133 -29 CURVE SMOOTH",
"97 -30 OFFCURVE",
"34 -19 OFFCURVE",
"38 28 CURVE SMOOTH",
"52 191 OFFCURVE",
"444 202 OFFCURVE",
"569 204 CURVE"
);
},
{
closed = 1;
nodes = (
"853 -18 OFFCURVE",
"849 -21 OFFCURVE",
"844 -21 CURVE",
"790 -42 OFFCURVE",
"670 -150 OFFCURVE",
"670 -212 CURVE SMOOTH",
"670 -242 OFFCURVE",
"694 -257 OFFCURVE",
"722 -257 CURVE SMOOTH",
"779 -257 OFFCURVE",
"822 -221 OFFCURVE",
"826 -201 CURVE SMOOTH",
"828 -192 OFFCURVE",
"818 -195 OFFCURVE",
"814 -197 CURVE",
"800 -210 OFFCURVE",
"779 -227 OFFCURVE",
"759 -227 CURVE SMOOTH",
"733 -227 OFFCURVE",
"725 -212 OFFCURVE",
"725 -194 CURVE SMOOTH",
"725 -148 OFFCURVE",
"793 -73 OFFCURVE",
"851 -31 CURVE"
);
}
);
width = 879;
}
);
note = Aogonek;
unicode = 0104;
},
{
color = 6;
glyphname = Aring;
lastChange = "2021-04-21 04:42:22 +0000";
layers = (
{
hints = (
{
horizontal = 1;
place = "{-61, 33}";
type = Stem;
},
{
horizontal = 1;
place = "{168, 314}";
type = Stem;
},
{
horizontal = 1;
place = "{511, 32}";
type = Stem;
},
{
horizontal = 1;
place = "{587, -20}";
target = down;
type = TopGhost;
},
{
horizontal = 1;
place = "{589, 31}";
type = Stem;
},
{
horizontal = 1;
place = "{638, 31}";
type = Stem;
},
{
place = "{10, 47}";
type = Stem;
},
{
place = "{727, 48}";
type = Stem;
},
{
place = "{826, 60}";
type = Stem;
},
{
place = "{962, 43}";
type = Stem;
},
{
place = "{862, 60}";
type = Stem;
}
);
layerId = "AFE3E0A9-A514-4B93-8E4E-B7D18C88F31C";
paths = (
{
closed = 1;
nodes = (
"828 192 OFFCURVE",
"847 182 OFFCURVE",
"859 182 CURVE SMOOTH",
"869 182 OFFCURVE",
"877 179 OFFCURVE",
"877 191 CURVE SMOOTH",
"877 207 OFFCURVE",
"833 212 OFFCURVE",
"820 215 CURVE",
"850 305 OFFCURVE",
"897 407 OFFCURVE",
"946 489 CURVE",
"989 502 OFFCURVE",
"1030 538 OFFCURVE",
"1030 583 CURVE SMOOTH",
"1030 617 OFFCURVE",
"1003 641 OFFCURVE",
"970 641 CURVE SMOOTH",
"943 641 OFFCURVE",
"918 631 OFFCURVE",
"902 608 CURVE",
"871 599 OFFCURVE",
"851 558 OFFCURVE",
"851 527 CURVE SMOOTH",
"851 511 OFFCURVE",
"857 500 OFFCURVE",
"867 493 CURVE",
"864 489 OFFCURVE",
"864 482 OFFCURVE",
"862 477 CURVE",
"857 481 OFFCURVE",
"850 482 OFFCURVE",
"844 482 CURVE SMOOTH",
"838 482 OFFCURVE",
"832 479 OFFCURVE",
"828 475 CURVE SMOOTH",
"749 395 OFFCURVE",
"661 290 OFFCURVE",
"605 238 CURVE",
"456 239 OFFCURVE",
"191 248 OFFCURVE",
"73 153 CURVE SMOOTH",
"39 125 OFFCURVE",
"10 87 OFFCURVE",
"10 41 CURVE SMOOTH",
"10 -43 OFFCURVE",
"105 -67 OFFCURVE",
"173 -67 CURVE SMOOTH",
"347 -67 OFFCURVE",
"509 83 OFFCURVE",
"626 202 CURVE",
"653 204 OFFCURVE",
"717 208 OFFCURVE",
"761 203 CURVE",
"746 143 OFFCURVE",
"727 70 OFFCURVE",
"727 8 CURVE SMOOTH",
"727 -28 OFFCURVE",
"739 -61 OFFCURVE",
"781 -61 CURVE SMOOTH",
"798 -61 OFFCURVE",
"837 -47 OFFCURVE",
"860 -24 CURVE SMOOTH",
"868 -16 OFFCURVE",
"861 -2 OFFCURVE",
"853 -9 CURVE SMOOTH",
"839 -21 OFFCURVE",
"821 -32 OFFCURVE",
"806 -34 CURVE SMOOTH",
"780 -37 OFFCURVE",
"775 -28 OFFCURVE",
"775 -1 CURVE SMOOTH",
"775 61 OFFCURVE",
"797 135 OFFCURVE",
"814 194 CURVE"
);
},
{
closed = 1;
nodes = (
"452 102 OFFCURVE",
"288 -27 OFFCURVE",
"133 -29 CURVE SMOOTH",
"97 -30 OFFCURVE",
"34 -19 OFFCURVE",
"38 28 CURVE SMOOTH",
"52 191 OFFCURVE",
"444 202 OFFCURVE",
"569 204 CURVE"
);
},
{
closed = 1;
nodes = (
"807 360 OFFCURVE",
"785 290 OFFCURVE",
"766 223 CURVE",
"732 229 OFFCURVE",
"691 232 OFFCURVE",
"657 234 CURVE",
"715 295 OFFCURVE",
"779 362 OFFCURVE",
"836 424 CURVE"
);
},
{
closed = 1;
nodes = (
"983 611 OFFCURVE",
"986 595 OFFCURVE",
"986 581 CURVE SMOOTH",
"986 549 OFFCURVE",
"956 514 OFFCURVE",
"923 514 CURVE SMOOTH",
"913 514 OFFCURVE",
"911 520 OFFCURVE",
"911 528 CURVE SMOOTH",
"911 554 OFFCURVE",
"940 579 OFFCURVE",
"953 601 CURVE",
"944 605 LINE",
"951 608 OFFCURVE",
"958 611 OFFCURVE",
"966 611 CURVE SMOOTH"
);
}
);
width = 879;
}
);
note = Aring;
unicode = 00C5;
},
{
color = 6;
glyphname = Atilde;
lastChange = "2021-04-21 04:42:22 +0000";
layers = (
{
hints = (
{
horizontal = 1;
place = "{-61, 33}";
type = Stem;
},
{
horizontal = 1;
place = "{168, 314}";
type = Stem;
},
{
horizontal = 1;
place = "{648, 46}";
type = Stem;
},
{
place = "{10, 47}";
type = Stem;
},
{
place = "{727, 48}";
type = Stem;
},
{
horizontal = 1;
place = "{587, -20}";
target = down;
type = TopGhost;
}
);
layerId = "AFE3E0A9-A514-4B93-8E4E-B7D18C88F31C";
paths = (
{
closed = 1;
nodes = (
"807 360 OFFCURVE",
"785 290 OFFCURVE",
"766 223 CURVE",
"732 229 OFFCURVE",
"691 232 OFFCURVE",
"657 234 CURVE",
"715 295 OFFCURVE",
"779 362 OFFCURVE",
"836 424 CURVE"
);
},
{
closed = 1;
nodes = (
"828 192 OFFCURVE",
"847 182 OFFCURVE",
"859 182 CURVE SMOOTH",
"869 182 OFFCURVE",
"877 179 OFFCURVE",
"877 191 CURVE SMOOTH",
"877 207 OFFCURVE",
"833 212 OFFCURVE",
"820 215 CURVE",
"861 338 OFFCURVE",
"917 452 OFFCURVE",
"992 558 CURVE SMOOTH",
"995 562 OFFCURVE",
"999 567 OFFCURVE",
"999 572 CURVE SMOOTH",
"999 582 OFFCURVE",
"991 587 OFFCURVE",
"981 587 CURVE SMOOTH",
"965 587 OFFCURVE",
"913 562 OFFCURVE",
"904 549 CURVE SMOOTH",
"888 527 OFFCURVE",
"874 501 OFFCURVE",
"862 477 CURVE",
"857 481 OFFCURVE",
"850 482 OFFCURVE",
"844 482 CURVE SMOOTH",
"838 482 OFFCURVE",
"832 479 OFFCURVE",
"828 475 CURVE SMOOTH",
"749 395 OFFCURVE",
"661 290 OFFCURVE",
"605 238 CURVE",
"456 239 OFFCURVE",
"191 248 OFFCURVE",
"73 153 CURVE SMOOTH",
"39 125 OFFCURVE",
"10 87 OFFCURVE",
"10 41 CURVE SMOOTH",
"10 -43 OFFCURVE",
"105 -67 OFFCURVE",
"173 -67 CURVE SMOOTH",
"347 -67 OFFCURVE",
"509 83 OFFCURVE",
"626 202 CURVE",
"653 204 OFFCURVE",
"717 208 OFFCURVE",
"761 203 CURVE",
"746 143 OFFCURVE",
"727 70 OFFCURVE",
"727 8 CURVE SMOOTH",
"727 -28 OFFCURVE",
"739 -61 OFFCURVE",
"781 -61 CURVE SMOOTH",
"798 -61 OFFCURVE",
"837 -47 OFFCURVE",
"860 -24 CURVE SMOOTH",
"868 -16 OFFCURVE",
"861 -2 OFFCURVE",
"853 -9 CURVE SMOOTH",
"839 -21 OFFCURVE",
"821 -32 OFFCURVE",
"806 -34 CURVE SMOOTH",
"780 -37 OFFCURVE",
"775 -28 OFFCURVE",
"775 -1 CURVE SMOOTH",
"775 61 OFFCURVE",
"797 135 OFFCURVE",
"814 194 CURVE"
);
},
{
closed = 1;
nodes = (
"452 102 OFFCURVE",
"288 -27 OFFCURVE",
"133 -29 CURVE SMOOTH",
"97 -30 OFFCURVE",
"34 -19 OFFCURVE",
"38 28 CURVE SMOOTH",
"52 191 OFFCURVE",
"444 202 OFFCURVE",
"569 204 CURVE"
);
},
{
closed = 1;
nodes = (
"1118 686 OFFCURVE",
"1116 688 OFFCURVE",
"1107 688 CURVE",
"1094 673 OFFCURVE",
"1077 666 OFFCURVE",
"1058 666 CURVE SMOOTH",
"1046 666 OFFCURVE",
"1028 670 OFFCURVE",
"1003 677 CURVE SMOOTH",
"976 683 OFFCURVE",
"957 687 OFFCURVE",
"943 687 CURVE SMOOTH",
"926 687 OFFCURVE",
"909 684 OFFCURVE",
"896 677 CURVE SMOOTH",
"861 659 OFFCURVE",
"843 645 OFFCURVE",
"843 634 CURVE SMOOTH",
"843 632 OFFCURVE",
"843 631 OFFCURVE",
"846 628 CURVE",
"850 628 OFFCURVE",
"861 632 OFFCURVE",
"875 642 CURVE SMOOTH",
"888 650 OFFCURVE",
"901 654 OFFCURVE",
"913 654 CURVE SMOOTH",
"926 654 OFFCURVE",
"946 649 OFFCURVE",
"973 640 CURVE SMOOTH",
"999 631 OFFCURVE",
"1020 627 OFFCURVE",
"1033 627 CURVE SMOOTH",
"1047 627 OFFCURVE",
"1059 630 OFFCURVE",
"1070 636 CURVE SMOOTH",
"1104 654 OFFCURVE",
"1118 669 OFFCURVE",
"1118 681 CURVE SMOOTH"
);
}
);
width = 879;
}
);
note = Atilde;
unicode = 00C3;
},
{
color = 6;
glyphname = AE;
lastChange = "2021-04-21 04:42:22 +0000";
layers = (
{
hints = (
{
horizontal = 1;
place = "{-67, 59}";
type = Stem;
},
{
horizontal = 1;
place = "{479, 39}";
type = Stem;
},
{
place = "{8, 51}";
type = Stem;
},
{
place = "{676, 70}";
type = Stem;
}
);
layerId = "AFE3E0A9-A514-4B93-8E4E-B7D18C88F31C";
paths = (
{
closed = 1;
nodes = (
"1082 449 OFFCURVE",
"1059 489 OFFCURVE",
"1287 489 CURVE SMOOTH",
"1312 489 OFFCURVE",
"1366 480 OFFCURVE",
"1389 471 CURVE",
"1400 471 OFFCURVE",
"1428 474 OFFCURVE",
"1428 489 CURVE SMOOTH",
"1428 522 OFFCURVE",
"1291 518 OFFCURVE",
"1268 518 CURVE SMOOTH",
"987 518 OFFCURVE",
"859 483 OFFCURVE",
"650 288 CURVE",
"507 277 OFFCURVE",
"8 239 OFFCURVE",
"8 39 CURVE SMOOTH",
"8 -45 OFFCURVE",
"102 -67 OFFCURVE",
"170 -67 CURVE SMOOTH",
"371 -67 OFFCURVE",
"526 111 OFFCURVE",
"658 242 CURVE",
"701 247 OFFCURVE",
"744 249 OFFCURVE",
"788 251 CURVE",
"738 200 OFFCURVE",
"667 121 OFFCURVE",
"667 46 CURVE SMOOTH",
"667 -27 OFFCURVE",
"757 -35 OFFCURVE",
"814 -35 CURVE SMOOTH",
"918 -35 OFFCURVE",
"1172 21 OFFCURVE",
"1239 96 CURVE",
"1240 103 OFFCURVE",
"1235 114 OFFCURVE",
"1226 114 CURVE SMOOTH",
"1225 114 OFFCURVE",
"1126 61 OFFCURVE",
"1115 57 CURVE SMOOTH",
"1027 25 OFFCURVE",
"944 8 OFFCURVE",
"850 8 CURVE SMOOTH",
"817 8 OFFCURVE",
"746 15 OFFCURVE",
"746 61 CURVE SMOOTH",
"746 91 OFFCURVE",
"771 135 OFFCURVE",
"787 161 CURVE SMOOTH",
"804 190 OFFCURVE",
"841 239 OFFCURVE",
"871 252 CURVE SMOOTH",
"915 271 OFFCURVE",
"1106 270 OFFCURVE",
"1169 280 CURVE SMOOTH",
"1180 281 OFFCURVE",
"1209 286 OFFCURVE",
"1211 298 CURVE",
"1202 307 LINE",
"1181 313 OFFCURVE",
"1154 311 OFFCURVE",
"1132 311 CURVE SMOOTH",
"1061 311 OFFCURVE",
"991 303 OFFCURVE",
"921 303 CURVE"
);
},
{
closed = 1;
nodes = (
"975 423 OFFCURVE",
"887 353 OFFCURVE",
"828 295 CURVE",
"788 294 OFFCURVE",
"748 292 OFFCURVE",
"707 289 CURVE",
"778 358 OFFCURVE",
"935 466 OFFCURVE",
"1033 481 CURVE"
);
},
{
closed = 1;
nodes = (
"28 182 OFFCURVE",
"489 227 OFFCURVE",
"595 239 CURVE",
"471 114 OFFCURVE",
"333 -37 OFFCURVE",
"148 -37 CURVE SMOOTH",
"112 -37 OFFCURVE",
"28 -21 OFFCURVE",
"28 30 CURVE SMOOTH"
);
}
);
width = 1210;
}
);
note = AE;
unicode = 00C6;
},
{
color = 6;
glyphname = AEacute;
lastChange = "2021-04-21 04:42:22 +0000";
layers = (
{
hints = (
{
horizontal = 1;
place = "{-63, 45}";
type = Stem;
},
{
horizontal = 1;
place = "{258, 38}";
type = Stem;
},
{
horizontal = 1;
place = "{479, 39}";
type = Stem;
},
{
place = "{14, 39}";
type = Stem;
},
{
place = "{683, 52}";
type = Stem;
}
);
layerId = "AFE3E0A9-A514-4B93-8E4E-B7D18C88F31C";
paths = (
{
closed = 1;
nodes = (
"1082 449 OFFCURVE",
"1059 489 OFFCURVE",
"1287 489 CURVE SMOOTH",
"1312 489 OFFCURVE",
"1366 480 OFFCURVE",
"1389 471 CURVE",
"1400 471 OFFCURVE",
"1428 474 OFFCURVE",
"1428 489 CURVE SMOOTH",
"1428 522 OFFCURVE",
"1291 518 OFFCURVE",
"1268 518 CURVE SMOOTH",
"987 518 OFFCURVE",
"859 483 OFFCURVE",
"650 288 CURVE",
"507 277 OFFCURVE",
"8 239 OFFCURVE",
"8 39 CURVE SMOOTH",
"8 -45 OFFCURVE",
"102 -67 OFFCURVE",
"170 -67 CURVE SMOOTH",
"371 -67 OFFCURVE",
"526 111 OFFCURVE",
"658 242 CURVE",
"701 247 OFFCURVE",
"744 249 OFFCURVE",
"788 251 CURVE",
"738 200 OFFCURVE",
"667 121 OFFCURVE",
"667 46 CURVE SMOOTH",
"667 -27 OFFCURVE",
"757 -35 OFFCURVE",
"814 -35 CURVE SMOOTH",
"918 -35 OFFCURVE",
"1172 21 OFFCURVE",
"1239 96 CURVE",
"1240 103 OFFCURVE",
"1235 114 OFFCURVE",
"1226 114 CURVE SMOOTH",
"1225 114 OFFCURVE",
"1126 61 OFFCURVE",
"1115 57 CURVE SMOOTH",
"1027 25 OFFCURVE",
"944 8 OFFCURVE",
"850 8 CURVE SMOOTH",
"817 8 OFFCURVE",
"746 15 OFFCURVE",
"746 61 CURVE SMOOTH",
"746 91 OFFCURVE",
"771 135 OFFCURVE",
"787 161 CURVE SMOOTH",
"804 190 OFFCURVE",
"841 239 OFFCURVE",
"871 252 CURVE SMOOTH",
"915 271 OFFCURVE",
"1106 270 OFFCURVE",
"1169 280 CURVE SMOOTH",
"1180 281 OFFCURVE",
"1209 286 OFFCURVE",
"1211 298 CURVE",
"1202 307 LINE",
"1181 313 OFFCURVE",
"1154 311 OFFCURVE",
"1132 311 CURVE SMOOTH",
"1061 311 OFFCURVE",
"991 303 OFFCURVE",
"921 303 CURVE"
);
},
{
closed = 1;
nodes = (
"975 423 OFFCURVE",
"887 353 OFFCURVE",
"828 295 CURVE",
"788 294 OFFCURVE",
"748 292 OFFCURVE",
"707 289 CURVE",
"778 358 OFFCURVE",
"935 466 OFFCURVE",
"1033 481 CURVE"
);
},
{
closed = 1;
nodes = (
"28 182 OFFCURVE",
"489 227 OFFCURVE",
"595 239 CURVE",
"471 114 OFFCURVE",
"333 -37 OFFCURVE",
"148 -37 CURVE SMOOTH",
"112 -37 OFFCURVE",
"28 -21 OFFCURVE",
"28 30 CURVE SMOOTH"
);
},
{
closed = 1;
nodes = (
"1128 554 OFFCURVE",
"1229 604 OFFCURVE",
"1244 613 CURVE SMOOTH",
"1252 617 OFFCURVE",
"1257 626 OFFCURVE",
"1257 635 CURVE SMOOTH",
"1257 644 OFFCURVE",
"1251 651 OFFCURVE",
"1241 651 CURVE SMOOTH",
"1223 651 OFFCURVE",
"1117 579 OFFCURVE",
"1111 575 CURVE SMOOTH",
"1108 573 OFFCURVE",
"1104 569 OFFCURVE",
"1104 565 CURVE SMOOTH",
"1104 558 OFFCURVE",
"1111 554 OFFCURVE",
"1117 554 CURVE SMOOTH"
);
}
);
width = 1210;
}
);
note = AEacute;
unicode = 01FC;
},
{
color = 6;
glyphname = B;
lastChange = "2021-04-21 04:42:22 +0000";
layers = (
{
hints = (
{
horizontal = 1;
place = "{-68, 35}";
type = Stem;
},
{
horizontal = 1;
place = "{302, 211}";
type = Stem;
},
{
horizontal = 1;
place = "{522, 42}";
type = Stem;
},
{
place = "{-6, 68}";
type = Stem;
},
{
place = "{150, 47}";
type = Stem;
},
{
place = "{744, 57}";
type = Stem;
}
);
layerId = "AFE3E0A9-A514-4B93-8E4E-B7D18C88F31C";
paths = (
{
closed = 1;
nodes = (
"612 331 OFFCURVE",
"801 378 OFFCURVE",
"801 454 CURVE SMOOTH",
"801 550 OFFCURVE",
"486 564 OFFCURVE",
"416 564 CURVE SMOOTH",
"354 564 OFFCURVE",
"33 555 OFFCURVE",
"33 470 CURVE SMOOTH",
"33 460 OFFCURVE",
"41 456 OFFCURVE",
"50 456 CURVE SMOOTH",
"62 456 OFFCURVE",
"120 476 OFFCURVE",
"138 481 CURVE SMOOTH",
"248 509 OFFCURVE",
"340 526 OFFCURVE",
"453 526 CURVE SMOOTH",
"496 526 OFFCURVE",
"744 520 OFFCURVE",
"744 463 CURVE SMOOTH",
"744 450 OFFCURVE",
"728 437 OFFCURVE",
"718 430 CURVE SMOOTH",
"640 367 OFFCURVE",
"537 364 OFFCURVE",
"443 347 CURVE SMOOTH",
"427 344 OFFCURVE",
"402 339 OFFCURVE",
"402 318 CURVE SMOOTH",
"402 298 OFFCURVE",
"440 303 OFFCURVE",
"453 303 CURVE SMOOTH",
"523 303 OFFCURVE",
"724 280 OFFCURVE",
"724 183 CURVE SMOOTH",
"724 156 OFFCURVE",
"708 132 OFFCURVE",
"691 113 CURVE",
"579 189 OFFCURVE",
"422 208 OFFCURVE",
"289 211 CURVE",
"344 300 OFFCURVE",
"406 386 OFFCURVE",
"475 464 CURVE SMOOTH",
"484 473 OFFCURVE",
"499 487 OFFCURVE",
"502 499 CURVE",
"500 511 OFFCURVE",
"487 513 OFFCURVE",
"478 513 CURVE SMOOTH",
"451 513 OFFCURVE",
"428 509 OFFCURVE",
"409 489 CURVE SMOOTH",
"344 420 OFFCURVE",
"277 296 OFFCURVE",
"231 211 CURVE",
"143 205 OFFCURVE",
"-6 165 OFFCURVE",
"-6 55 CURVE SMOOTH",
"-6 -42 OFFCURVE",
"183 -68 OFFCURVE",
"255 -68 CURVE SMOOTH",
"401 -68 OFFCURVE",
"590 -33 OFFCURVE",
"711 56 CURVE",
"723 44 OFFCURVE",
"739 23 OFFCURVE",
"750 6 CURVE SMOOTH",
"757 -5 OFFCURVE",
"766 5 OFFCURVE",
"766 18 CURVE SMOOTH",
"766 34 OFFCURVE",
"746 65 OFFCURVE",
"735 76 CURVE",
"763 102 OFFCURVE",
"793 138 OFFCURVE",
"793 179 CURVE SMOOTH",
"793 268 OFFCURVE",
"638 318 OFFCURVE",
"547 325 CURVE"
);
},
{
closed = 1;
nodes = (
"190 -36 OFFCURVE",
"197 -18 OFFCURVE",
"197 -7 CURVE SMOOTH",
"197 40 OFFCURVE",
"233 115 OFFCURVE",
"267 174 CURVE",
"280 175 LINE SMOOTH",
"407 181 OFFCURVE",
"565 161 OFFCURVE",
"674 88 CURVE",
"563 -8 OFFCURVE",
"394 -44 OFFCURVE",
"255 -44 CURVE SMOOTH",
"230 -44 OFFCURVE",
"204 -41 OFFCURVE",
"180 -36 CURVE"
);
},
{
closed = 1;
nodes = (
"127 -22 OFFCURVE",
"63 1 OFFCURVE",
"63 47 CURVE SMOOTH",
"63 129 OFFCURVE",
"144 158 OFFCURVE",
"209 168 CURVE",
"189 128 OFFCURVE",
"150 50 OFFCURVE",
"150 7 CURVE SMOOTH",
"150 -4 OFFCURVE",
"153 -24 OFFCURVE",
"162 -31 CURVE"
);
}
);
width = 780;
}
);
note = B;
unicode = 0042;
},
{
color = 6;
glyphname = C;
lastChange = "2021-04-21 04:42:22 +0000";
layers = (
{
hints = (
{
horizontal = 1;
place = "{-53, 47}";
type = Stem;
},
{
horizontal = 1;
place = "{275, 43}";
type = Stem;
},
{
horizontal = 1;
place = "{507, 38}";
type = Stem;
},
{
place = "{54, 79}";
type = Stem;
},
{
place = "{502, 42}";
type = Stem;
},
{
place = "{825, 48}";
type = Stem;
}
);
layerId = "AFE3E0A9-A514-4B93-8E4E-B7D18C88F31C";
paths = (
{
closed = 1;
nodes = (
"692 276 OFFCURVE",
"873 340 OFFCURVE",
"873 462 CURVE SMOOTH",
"873 537 OFFCURVE",
"783 546 OFFCURVE",
"726 546 CURVE SMOOTH",
"611 546 OFFCURVE",
"497 514 OFFCURVE",
"394 462 CURVE SMOOTH",
"264 398 OFFCURVE",
"54 248 OFFCURVE",
"54 87 CURVE SMOOTH",
"54 -26 OFFCURVE",
"182 -53 OFFCURVE",
"272 -53 CURVE SMOOTH",
"408 -53 OFFCURVE",
"663 18 OFFCURVE",
"751 132 CURVE SMOOTH",
"757 139 OFFCURVE",
"751 148 OFFCURVE",
"733 141 CURVE",
"709 116 OFFCURVE",
"660 82 OFFCURVE",
"642 72 CURVE SMOOTH",
"531 9 OFFCURVE",
"414 -20 OFFCURVE",
"286 -20 CURVE SMOOTH",
"212 -20 OFFCURVE",
"133 18 OFFCURVE",
"133 106 CURVE SMOOTH",
"133 265 OFFCURVE",
"452 507 OFFCURVE",
"729 507 CURVE SMOOTH",
"811 507 OFFCURVE",
"865 466 OFFCURVE",
"809 392 CURVE SMOOTH",
"767 336 OFFCURVE",
"674 300 OFFCURVE",
"608 300 CURVE SMOOTH",
"552 300 OFFCURVE",
"534 318 OFFCURVE",
"534 348 CURVE SMOOTH",
"534 360 OFFCURVE",
"544 381 OFFCURVE",
"521 381 CURVE SMOOTH",
"511 381 OFFCURVE",
"502 356 OFFCURVE",
"502 338 CURVE SMOOTH",
"502 285 OFFCURVE",
"557 276 OFFCURVE",
"599 276 CURVE SMOOTH"
);
}
);
width = 786;
}
);
note = C;
unicode = 0043;
},
{
color = 6;
glyphname = Cacute;
lastChange = "2021-04-21 04:42:22 +0000";
layers = (
{
hints = (
{
horizontal = 1;
place = "{-53, 47}";
type = Stem;
},
{
horizontal = 1;
place = "{276, 43}";
type = Stem;
},
{
horizontal = 1;
place = "{507, 38}";
type = Stem;
},
{
place = "{54, 79}";
type = Stem;
},
{
place = "{502, 42}";
type = Stem;
},
{
place = "{825, 48}";
type = Stem;
}
);
layerId = "AFE3E0A9-A514-4B93-8E4E-B7D18C88F31C";
paths = (
{
closed = 1;
nodes = (
"692 276 OFFCURVE",
"873 340 OFFCURVE",
"873 462 CURVE SMOOTH",
"873 537 OFFCURVE",
"783 546 OFFCURVE",
"726 546 CURVE SMOOTH",
"611 546 OFFCURVE",
"497 514 OFFCURVE",
"394 462 CURVE SMOOTH",
"264 398 OFFCURVE",
"54 248 OFFCURVE",
"54 87 CURVE SMOOTH",
"54 -26 OFFCURVE",
"182 -53 OFFCURVE",
"272 -53 CURVE SMOOTH",
"408 -53 OFFCURVE",
"663 18 OFFCURVE",
"751 132 CURVE SMOOTH",
"757 139 OFFCURVE",
"751 148 OFFCURVE",
"733 141 CURVE",
"709 116 OFFCURVE",
"660 82 OFFCURVE",
"642 72 CURVE SMOOTH",
"531 9 OFFCURVE",
"414 -20 OFFCURVE",
"286 -20 CURVE SMOOTH",
"212 -20 OFFCURVE",
"133 18 OFFCURVE",
"133 106 CURVE SMOOTH",
"133 265 OFFCURVE",
"452 507 OFFCURVE",
"729 507 CURVE SMOOTH",
"811 507 OFFCURVE",
"865 466 OFFCURVE",
"809 392 CURVE SMOOTH",
"767 336 OFFCURVE",
"674 300 OFFCURVE",
"608 300 CURVE SMOOTH",
"552 300 OFFCURVE",
"534 318 OFFCURVE",
"534 348 CURVE SMOOTH",
"534 360 OFFCURVE",
"544 381 OFFCURVE",
"521 381 CURVE SMOOTH",
"511 381 OFFCURVE",
"502 356 OFFCURVE",
"502 338 CURVE SMOOTH",
"502 285 OFFCURVE",
"557 276 OFFCURVE",
"599 276 CURVE SMOOTH"
);
},
{
closed = 1;
nodes = (
"744 595 OFFCURVE",
"845 645 OFFCURVE",
"860 654 CURVE SMOOTH",
"868 658 OFFCURVE",
"873 667 OFFCURVE",
"873 676 CURVE SMOOTH",
"873 685 OFFCURVE",
"867 692 OFFCURVE",
"857 692 CURVE SMOOTH",
"839 692 OFFCURVE",
"733 620 OFFCURVE",
"727 616 CURVE SMOOTH",
"724 614 OFFCURVE",
"720 610 OFFCURVE",
"720 606 CURVE SMOOTH",
"720 599 OFFCURVE",
"727 595 OFFCURVE",
"733 595 CURVE SMOOTH"
);
}
);
width = 786;
}
);
note = Cacute;
unicode = 0106;
},
{
color = 6;
glyphname = Ccaron;
lastChange = "2021-04-21 04:42:22 +0000";
layers = (
{
hints = (
{
horizontal = 1;
place = "{-53, 47}";
type = Stem;
},
{
horizontal = 1;
place = "{276, 43}";
type = Stem;
},
{
horizontal = 1;
place = "{507, 38}";
type = Stem;
},
{
place = "{54, 79}";
type = Stem;
},
{
place = "{502, 42}";
type = Stem;
},
{
place = "{825, 48}";
type = Stem;
}
);
layerId = "AFE3E0A9-A514-4B93-8E4E-B7D18C88F31C";
paths = (
{
closed = 1;
nodes = (
"692 276 OFFCURVE",
"873 340 OFFCURVE",
"873 462 CURVE SMOOTH",
"873 537 OFFCURVE",
"783 546 OFFCURVE",
"726 546 CURVE SMOOTH",
"611 546 OFFCURVE",
"497 514 OFFCURVE",
"394 462 CURVE SMOOTH",
"264 398 OFFCURVE",
"54 248 OFFCURVE",
"54 87 CURVE SMOOTH",
"54 -26 OFFCURVE",
"182 -53 OFFCURVE",
"272 -53 CURVE SMOOTH",
"408 -53 OFFCURVE",
"663 18 OFFCURVE",
"751 132 CURVE SMOOTH",
"757 139 OFFCURVE",
"751 148 OFFCURVE",
"733 141 CURVE",
"709 116 OFFCURVE",
"660 82 OFFCURVE",
"642 72 CURVE SMOOTH",
"531 9 OFFCURVE",
"414 -20 OFFCURVE",
"286 -20 CURVE SMOOTH",
"212 -20 OFFCURVE",
"133 18 OFFCURVE",
"133 106 CURVE SMOOTH",
"133 265 OFFCURVE",
"452 507 OFFCURVE",
"729 507 CURVE SMOOTH",
"811 507 OFFCURVE",
"865 466 OFFCURVE",
"809 392 CURVE SMOOTH",
"767 336 OFFCURVE",
"674 300 OFFCURVE",
"608 300 CURVE SMOOTH",
"552 300 OFFCURVE",
"534 318 OFFCURVE",
"534 348 CURVE SMOOTH",
"534 360 OFFCURVE",
"544 381 OFFCURVE",
"521 381 CURVE SMOOTH",
"511 381 OFFCURVE",
"502 356 OFFCURVE",
"502 338 CURVE SMOOTH",
"502 285 OFFCURVE",
"557 276 OFFCURVE",
"599 276 CURVE SMOOTH"
);
},
{
closed = 1;
nodes = (
"906 644 LINE",
"909 652 LINE",
"909 656 OFFCURVE",
"901 660 OFFCURVE",
"897 660 CURVE SMOOTH",
"882 660 OFFCURVE",
"817 623 OFFCURVE",
"799 614 CURVE",
"785 628 OFFCURVE",
"741 662 OFFCURVE",
"720 662 CURVE SMOOTH",
"714 662 OFFCURVE",
"703 659 OFFCURVE",
"703 652 CURVE SMOOTH",
"703 645 OFFCURVE",
"776 579 OFFCURVE",
"783 579 CURVE SMOOTH",
"801 579 OFFCURVE",
"894 632 OFFCURVE",
"906 645 CURVE"
);
}
);
width = 786;
}
);
note = Ccaron;
unicode = 010C;
},
{
color = 6;
glyphname = Ccedilla;
lastChange = "2021-04-21 04:42:22 +0000";
layers = (
{
hints = (
{
horizontal = 1;
place = "{-53, 56}";
type = Stem;
},
{
horizontal = 1;
place = "{275, 43}";
type = Stem;
},
{
horizontal = 1;
place = "{506, 40}";
type = Stem;
},
{
place = "{-13, 72}";
type = Stem;
},
{
place = "{119, 58}";
type = Stem;
},
{
place = "{184, 66}";
type = Stem;
},
{
place = "{435, 42}";
type = Stem;
},
{
place = "{758, 48}";
type = Stem;
},
{
horizontal = 1;
place = "{-53, 47}";
type = Stem;
},
{
horizontal = 1;
place = "{507, 38}";
type = Stem;
},
{
place = "{54, 79}";
type = Stem;
},
{
place = "{502, 42}";
type = Stem;
},
{
place = "{825, 48}";
type = Stem;
}
);
layerId = "AFE3E0A9-A514-4B93-8E4E-B7D18C88F31C";
paths = (
{
closed = 1;
nodes = (
"692 276 OFFCURVE",
"873 340 OFFCURVE",
"873 462 CURVE SMOOTH",
"873 537 OFFCURVE",
"783 546 OFFCURVE",
"726 546 CURVE SMOOTH",
"611 546 OFFCURVE",
"497 514 OFFCURVE",
"394 462 CURVE SMOOTH",
"264 398 OFFCURVE",
"54 248 OFFCURVE",
"54 87 CURVE SMOOTH",
"54 -26 OFFCURVE",
"182 -53 OFFCURVE",
"272 -53 CURVE SMOOTH",
"408 -53 OFFCURVE",
"663 18 OFFCURVE",
"751 132 CURVE SMOOTH",
"757 139 OFFCURVE",
"751 148 OFFCURVE",
"733 141 CURVE",
"709 116 OFFCURVE",
"660 82 OFFCURVE",
"642 72 CURVE SMOOTH",
"531 9 OFFCURVE",
"414 -20 OFFCURVE",
"286 -20 CURVE SMOOTH",
"212 -20 OFFCURVE",
"133 18 OFFCURVE",
"133 106 CURVE SMOOTH",
"133 265 OFFCURVE",
"452 507 OFFCURVE",
"729 507 CURVE SMOOTH",
"811 507 OFFCURVE",
"865 466 OFFCURVE",
"809 392 CURVE SMOOTH",
"767 336 OFFCURVE",
"674 300 OFFCURVE",
"608 300 CURVE SMOOTH",
"552 300 OFFCURVE",
"534 318 OFFCURVE",
"534 348 CURVE SMOOTH",
"534 360 OFFCURVE",
"544 381 OFFCURVE",
"521 381 CURVE SMOOTH",
"511 381 OFFCURVE",
"502 356 OFFCURVE",
"502 338 CURVE SMOOTH",
"502 285 OFFCURVE",
"557 276 OFFCURVE",
"599 276 CURVE SMOOTH"
);
},
{
closed = 1;
nodes = (
"209 -161 OFFCURVE",
"198 -145 OFFCURVE",
"178 -126 CURVE SMOOTH",
"157 -108 OFFCURVE",
"152 -91 OFFCURVE",
"152 -85 CURVE SMOOTH",
"152 -74 OFFCURVE",
"152 -67 OFFCURVE",
"160 -58 CURVE SMOOTH",
"169 -49 OFFCURVE",
"180 -44 OFFCURVE",
"197 -41 CURVE",
"195 -37 OFFCURVE",
"191 -36 OFFCURVE",
"184 -36 CURVE SMOOTH",
"162 -36 OFFCURVE",
"143 -43 OFFCURVE",
"129 -57 CURVE SMOOTH",
"115 -70 OFFCURVE",
"108 -85 OFFCURVE",
"108 -102 CURVE SMOOTH",
"108 -112 OFFCURVE",
"112 -127 OFFCURVE",
"130 -146 CURVE SMOOTH",
"149 -164 OFFCURVE",
"155 -176 OFFCURVE",
"157 -183 CURVE SMOOTH",
"160 -196 OFFCURVE",
"152 -223 OFFCURVE",
"127 -228 CURVE",
"50 -237 LINE SMOOTH",
"44 -238 OFFCURVE",
"40 -241 OFFCURVE",
"40 -243 CURVE SMOOTH",
"40 -248 OFFCURVE",
"44 -251 OFFCURVE",
"50 -251 CURVE SMOOTH",
"87 -251 OFFCURVE",
"121 -245 OFFCURVE",
"153 -234 CURVE SMOOTH",
"190 -219 OFFCURVE",
"209 -200 OFFCURVE",
"209 -176 CURVE SMOOTH"
);
}
);
width = 639;
}
);
note = Ccedilla;
unicode = 00C7;
},
{
color = 6;
glyphname = Ccircumflex;
lastChange = "2021-04-21 04:42:22 +0000";
layers = (
{
hints = (
{
horizontal = 1;
place = "{-53, 47}";
type = Stem;
},
{
horizontal = 1;
place = "{276, 43}";
type = Stem;
},
{
horizontal = 1;
place = "{507, 38}";
type = Stem;
},
{
place = "{54, 79}";
type = Stem;
},
{
place = "{502, 42}";
type = Stem;
},
{
place = "{825, 48}";
type = Stem;
},
{
horizontal = 1;
place = "{275, 43}";
type = Stem;
}
);
layerId = "AFE3E0A9-A514-4B93-8E4E-B7D18C88F31C";
paths = (
{
closed = 1;
nodes = (
"812 642 OFFCURVE",
"780 671 OFFCURVE",
"771 686 CURVE SMOOTH",
"758 705 OFFCURVE",
"734 686 OFFCURVE",
"676 654 CURVE SMOOTH",
"629 627 OFFCURVE",
"598 605 OFFCURVE",
"597 600 CURVE",
"594 595 OFFCURVE",
"597 593 OFFCURVE",
"602 593 CURVE SMOOTH",
"609 593 OFFCURVE",
"650 612 OFFCURVE",
"728 656 CURVE",
"735 646 OFFCURVE",
"751 632 OFFCURVE",
"777 615 CURVE SMOOTH",
"779 614 OFFCURVE",
"803 596 OFFCURVE",
"821 590 CURVE",
"838 581 OFFCURVE",
"862 596 OFFCURVE",
"851 609 CURVE"
);
},
{
closed = 1;
nodes = (
"692 276 OFFCURVE",
"873 340 OFFCURVE",
"873 462 CURVE SMOOTH",
"873 537 OFFCURVE",
"783 546 OFFCURVE",
"726 546 CURVE SMOOTH",
"611 546 OFFCURVE",
"497 514 OFFCURVE",
"394 462 CURVE SMOOTH",
"264 398 OFFCURVE",
"54 248 OFFCURVE",
"54 87 CURVE SMOOTH",
"54 -26 OFFCURVE",
"182 -53 OFFCURVE",
"272 -53 CURVE SMOOTH",
"408 -53 OFFCURVE",
"663 18 OFFCURVE",
"751 132 CURVE SMOOTH",
"757 139 OFFCURVE",
"751 148 OFFCURVE",
"733 141 CURVE",
"709 116 OFFCURVE",
"660 82 OFFCURVE",
"642 72 CURVE SMOOTH",
"531 9 OFFCURVE",
"414 -20 OFFCURVE",
"286 -20 CURVE SMOOTH",
"212 -20 OFFCURVE",
"133 18 OFFCURVE",
"133 106 CURVE SMOOTH",
"133 265 OFFCURVE",
"452 507 OFFCURVE",
"729 507 CURVE SMOOTH",
"811 507 OFFCURVE",
"865 466 OFFCURVE",
"809 392 CURVE SMOOTH",
"767 336 OFFCURVE",
"674 300 OFFCURVE",
"608 300 CURVE SMOOTH",
"552 300 OFFCURVE",
"534 318 OFFCURVE",
"534 348 CURVE SMOOTH",
"534 360 OFFCURVE",
"544 381 OFFCURVE",
"521 381 CURVE SMOOTH",
"511 381 OFFCURVE",
"502 356 OFFCURVE",
"502 338 CURVE SMOOTH",
"502 285 OFFCURVE",
"557 276 OFFCURVE",
"599 276 CURVE SMOOTH"
);
}
);
width = 458;
}
);
note = Ccircumflex;
unicode = 0108;
},
{
color = 6;
glyphname = Cdotaccent;
lastChange = "2021-04-21 04:42:22 +0000";
layers = (
{
hints = (
{
horizontal = 1;
place = "{-53, 47}";
type = Stem;
},
{
horizontal = 1;
place = "{276, 43}";
type = Stem;
},
{
horizontal = 1;
place = "{507, 38}";
type = Stem;
},
{
horizontal = 1;
place = "{587, 67}";
type = Stem;
},
{
place = "{54, 79}";
type = Stem;
},
{
place = "{502, 42}";
type = Stem;
},
{
place = "{739, 82}";
type = Stem;
},
{
place = "{825, 48}";
type = Stem;
},
{
horizontal = 1;
place = "{275, 43}";
type = Stem;
}
);
layerId = "AFE3E0A9-A514-4B93-8E4E-B7D18C88F31C";
paths = (
{
closed = 1;
nodes = (
"692 276 OFFCURVE",
"873 340 OFFCURVE",
"873 462 CURVE SMOOTH",
"873 537 OFFCURVE",
"783 546 OFFCURVE",
"726 546 CURVE SMOOTH",
"611 546 OFFCURVE",
"497 514 OFFCURVE",
"394 462 CURVE SMOOTH",
"264 398 OFFCURVE",
"54 248 OFFCURVE",
"54 87 CURVE SMOOTH",
"54 -26 OFFCURVE",
"182 -53 OFFCURVE",
"272 -53 CURVE SMOOTH",
"408 -53 OFFCURVE",
"663 18 OFFCURVE",
"751 132 CURVE SMOOTH",
"757 139 OFFCURVE",
"751 148 OFFCURVE",
"733 141 CURVE",
"709 116 OFFCURVE",
"660 82 OFFCURVE",
"642 72 CURVE SMOOTH",
"531 9 OFFCURVE",
"414 -20 OFFCURVE",
"286 -20 CURVE SMOOTH",
"212 -20 OFFCURVE",
"133 18 OFFCURVE",
"133 106 CURVE SMOOTH",
"133 265 OFFCURVE",
"452 507 OFFCURVE",
"729 507 CURVE SMOOTH",
"811 507 OFFCURVE",
"865 466 OFFCURVE",
"809 392 CURVE SMOOTH",
"767 336 OFFCURVE",
"674 300 OFFCURVE",
"608 300 CURVE SMOOTH",
"552 300 OFFCURVE",
"534 318 OFFCURVE",
"534 348 CURVE SMOOTH",
"534 360 OFFCURVE",
"544 381 OFFCURVE",
"521 381 CURVE SMOOTH",
"511 381 OFFCURVE",
"502 356 OFFCURVE",
"502 338 CURVE SMOOTH",
"502 285 OFFCURVE",
"557 276 OFFCURVE",
"599 276 CURVE SMOOTH"
);
},
{
closed = 1;
nodes = (
"752 599 OFFCURVE",
"765 585 OFFCURVE",
"784 585 CURVE SMOOTH",
"803 585 OFFCURVE",
"820 599 OFFCURVE",
"822 617 CURVE SMOOTH",
"825 635 OFFCURVE",
"812 649 OFFCURVE",
"793 649 CURVE SMOOTH",
"773 649 OFFCURVE",
"756 635 OFFCURVE",
"754 617 CURVE SMOOTH"
);
}
);
width = 786;
}
);
note = Cdotaccent;
unicode = 010A;
},
{
color = 6;
glyphname = D;
lastChange = "2021-04-21 04:42:22 +0000";
layers = (
{
hints = (
{
horizontal = 1;
place = "{-69, 36}";
type = Stem;
},
{
horizontal = 1;
place = "{527, 40}";
type = Stem;
},
{
place = "{14, 68}";
type = Stem;
},
{
place = "{170, 47}";
type = Stem;
},
{
place = "{938, 62}";
type = Stem;
}
);
layerId = "AFE3E0A9-A514-4B93-8E4E-B7D18C88F31C";
paths = (
{
closed = 1;
nodes = (
"859 83 OFFCURVE",
"1001 189 OFFCURVE",
"1001 311 CURVE SMOOTH",
"1001 524 OFFCURVE",
"649 567 OFFCURVE",
"491 567 CURVE SMOOTH",
"430 567 OFFCURVE",
"100 552 OFFCURVE",
"100 471 CURVE SMOOTH",
"100 457 OFFCURVE",
"109 450 OFFCURVE",
"122 450 CURVE SMOOTH",
"139 450 OFFCURVE",
"187 473 OFFCURVE",
"206 480 CURVE SMOOTH",
"303 514 OFFCURVE",
"400 535 OFFCURVE",
"503 535 CURVE SMOOTH",
"632 535 OFFCURVE",
"939 493 OFFCURVE",
"939 316 CURVE SMOOTH",
"939 212 OFFCURVE",
"817 115 OFFCURVE",
"743 71 CURVE",
"650 170 OFFCURVE",
"457 209 OFFCURVE",
"314 212 CURVE",
"369 301 OFFCURVE",
"438 384 OFFCURVE",
"508 462 CURVE SMOOTH",
"516 471 OFFCURVE",
"532 485 OFFCURVE",
"535 497 CURVE",
"533 509 OFFCURVE",
"507 513 OFFCURVE",
"497 513 CURVE SMOOTH",
"470 513 OFFCURVE",
"449 508 OFFCURVE",
"429 489 CURVE SMOOTH",
"385 446 OFFCURVE",
"283 272 OFFCURVE",
"250 211 CURVE",
"162 205 OFFCURVE",
"14 166 OFFCURVE",
"14 55 CURVE SMOOTH",
"14 -45 OFFCURVE",
"225 -69 OFFCURVE",
"298 -69 CURVE SMOOTH",
"456 -69 OFFCURVE",
"604 -50 OFFCURVE",
"748 19 CURVE",
"752 15 OFFCURVE",
"761 5 OFFCURVE",
"767 5 CURVE SMOOTH",
"788 5 OFFCURVE",
"779 24 OFFCURVE",
"772 33 CURVE"
);
},
{
closed = 1;
nodes = (
"213 -35 OFFCURVE",
"218 -27 OFFCURVE",
"218 -18 CURVE SMOOTH",
"218 50 OFFCURVE",
"263 123 OFFCURVE",
"297 181 CURVE",
"308 182 LINE SMOOTH",
"432 188 OFFCURVE",
"619 141 OFFCURVE",
"713 56 CURVE",
"587 -7 OFFCURVE",
"447 -45 OFFCURVE",
"307 -45 CURVE SMOOTH",
"272 -45 OFFCURVE",
"238 -44 OFFCURVE",
"204 -37 CURVE"
);
},
{
closed = 1;
nodes = (
"146 -22 OFFCURVE",
"82 8 OFFCURVE",
"82 53 CURVE SMOOTH",
"82 132 OFFCURVE",
"170 169 OFFCURVE",
"234 179 CURVE",
"215 139 OFFCURVE",
"171 39 OFFCURVE",
"171 -4 CURVE SMOOTH",
"171 -14 OFFCURVE",
"173 -24 OFFCURVE",
"180 -31 CURVE"
);
}
);
width = 1000;
}
);
note = D;
unicode = 0044;
},
{
color = 6;
glyphname = Eth;
lastChange = "2021-04-21 04:42:22 +0000";
layers = (
{
hints = (
{
horizontal = 1;
place = "{-69, 36}";
type = Stem;
},
{
horizontal = 1;
place = "{527, 40}";
type = Stem;
},
{
place = "{-7, 68}";
type = Stem;
},
{
place = "{149, 47}";
type = Stem;
},
{
place = "{165, 341}";
type = Stem;
},
{
place = "{917, 62}";
type = Stem;
}
);
layerId = "AFE3E0A9-A514-4B93-8E4E-B7D18C88F31C";
paths = (
{
closed = 1;
nodes = (
"235 278 OFFCURVE",
"266 285 OFFCURVE",
"297 293 CURVE",
"277 260 OFFCURVE",
"260 230 OFFCURVE",
"250 211 CURVE",
"162 205 OFFCURVE",
"14 166 OFFCURVE",
"14 55 CURVE SMOOTH",
"14 -45 OFFCURVE",
"225 -69 OFFCURVE",
"298 -69 CURVE SMOOTH",
"456 -69 OFFCURVE",
"604 -50 OFFCURVE",
"748 19 CURVE",
"752 15 OFFCURVE",
"761 5 OFFCURVE",
"767 5 CURVE SMOOTH",
"788 5 OFFCURVE",
"779 24 OFFCURVE",
"772 33 CURVE",
"859 83 OFFCURVE",
"1001 189 OFFCURVE",
"1001 311 CURVE SMOOTH",
"1001 524 OFFCURVE",
"649 567 OFFCURVE",
"491 567 CURVE SMOOTH",
"430 567 OFFCURVE",
"100 552 OFFCURVE",
"100 471 CURVE SMOOTH",
"100 457 OFFCURVE",
"109 450 OFFCURVE",
"122 450 CURVE SMOOTH",
"139 450 OFFCURVE",
"187 473 OFFCURVE",
"206 480 CURVE SMOOTH",
"303 514 OFFCURVE",
"400 535 OFFCURVE",
"503 535 CURVE SMOOTH",
"632 535 OFFCURVE",
"939 493 OFFCURVE",
"939 316 CURVE SMOOTH",
"939 212 OFFCURVE",
"817 115 OFFCURVE",
"743 71 CURVE",
"650 170 OFFCURVE",
"457 209 OFFCURVE",
"314 212 CURVE",
"336 247 OFFCURVE",
"360 282 OFFCURVE",
"385 315 CURVE",
"413 321 LINE SMOOTH",
"425 323 OFFCURVE",
"502 340 OFFCURVE",
"505 352 CURVE SMOOTH",
"507 363 OFFCURVE",
"466 363 OFFCURVE",
"420 359 CURVE",
"448 394 OFFCURVE",
"478 428 OFFCURVE",
"508 462 CURVE SMOOTH",
"516 471 OFFCURVE",
"532 485 OFFCURVE",
"535 497 CURVE",
"533 509 OFFCURVE",
"507 513 OFFCURVE",
"497 513 CURVE SMOOTH",
"470 513 OFFCURVE",
"449 508 OFFCURVE",
"429 489 CURVE SMOOTH",
"406 466 OFFCURVE",
"367 408 OFFCURVE",
"330 349 CURVE",
"321 347 OFFCURVE",
"313 346 OFFCURVE",
"309 346 CURVE",
"280 341 OFFCURVE",
"168 315 OFFCURVE",
"160 281 CURVE SMOOTH",
"156 265 OFFCURVE",
"193 272 OFFCURVE",
"205 273 CURVE SMOOTH"
);
},
{
closed = 1;
nodes = (
"213 -35 OFFCURVE",
"218 -27 OFFCURVE",
"218 -18 CURVE SMOOTH",
"218 50 OFFCURVE",
"263 123 OFFCURVE",
"297 181 CURVE",
"308 182 LINE SMOOTH",
"432 188 OFFCURVE",
"619 141 OFFCURVE",
"713 56 CURVE",
"587 -7 OFFCURVE",
"447 -45 OFFCURVE",
"307 -45 CURVE SMOOTH",
"272 -45 OFFCURVE",
"238 -44 OFFCURVE",
"204 -37 CURVE"
);
},
{
closed = 1;
nodes = (
"146 -22 OFFCURVE",
"82 8 OFFCURVE",
"82 53 CURVE SMOOTH",
"82 132 OFFCURVE",
"170 169 OFFCURVE",
"234 179 CURVE",
"215 139 OFFCURVE",
"171 39 OFFCURVE",
"171 -4 CURVE SMOOTH",
"171 -14 OFFCURVE",
"173 -24 OFFCURVE",
"180 -31 CURVE"
);
}
);
width = 973;
}
);
note = Eth;
unicode = 00D0;
},
{
color = 6;
glyphname = Dcaron;
lastChange = "2021-04-21 04:42:22 +0000";
layers = (
{
hints = (
{
horizontal = 1;
place = "{-69, 36}";
type = Stem;
},
{
horizontal = 1;
place = "{527, 40}";
type = Stem;
},
{
place = "{-7, 68}";
type = Stem;
},
{
place = "{149, 47}";
type = Stem;
},
{
place = "{917, 62}";
type = Stem;
}
);
layerId = "AFE3E0A9-A514-4B93-8E4E-B7D18C88F31C";
paths = (
{
closed = 1;
nodes = (
"859 83 OFFCURVE",
"1001 189 OFFCURVE",
"1001 311 CURVE SMOOTH",
"1001 524 OFFCURVE",
"649 567 OFFCURVE",
"491 567 CURVE SMOOTH",
"430 567 OFFCURVE",
"100 552 OFFCURVE",
"100 471 CURVE SMOOTH",
"100 457 OFFCURVE",
"109 450 OFFCURVE",
"122 450 CURVE SMOOTH",
"139 450 OFFCURVE",
"187 473 OFFCURVE",
"206 480 CURVE SMOOTH",
"303 514 OFFCURVE",
"400 535 OFFCURVE",
"503 535 CURVE SMOOTH",
"632 535 OFFCURVE",
"939 493 OFFCURVE",
"939 316 CURVE SMOOTH",
"939 212 OFFCURVE",
"817 115 OFFCURVE",
"743 71 CURVE",
"650 170 OFFCURVE",
"457 209 OFFCURVE",
"314 212 CURVE",
"369 301 OFFCURVE",
"438 384 OFFCURVE",
"508 462 CURVE SMOOTH",
"516 471 OFFCURVE",
"532 485 OFFCURVE",
"535 497 CURVE",
"533 509 OFFCURVE",
"507 513 OFFCURVE",
"497 513 CURVE SMOOTH",
"470 513 OFFCURVE",
"449 508 OFFCURVE",
"429 489 CURVE SMOOTH",
"385 446 OFFCURVE",
"283 272 OFFCURVE",
"250 211 CURVE",
"162 205 OFFCURVE",
"14 166 OFFCURVE",
"14 55 CURVE SMOOTH",
"14 -45 OFFCURVE",
"225 -69 OFFCURVE",
"298 -69 CURVE SMOOTH",
"456 -69 OFFCURVE",
"604 -50 OFFCURVE",
"748 19 CURVE",
"752 15 OFFCURVE",
"761 5 OFFCURVE",
"767 5 CURVE SMOOTH",
"788 5 OFFCURVE",
"779 24 OFFCURVE",
"772 33 CURVE"
);
},
{
closed = 1;
nodes = (
"213 -35 OFFCURVE",
"218 -27 OFFCURVE",
"218 -18 CURVE SMOOTH",
"218 50 OFFCURVE",
"263 123 OFFCURVE",
"297 181 CURVE",
"308 182 LINE SMOOTH",
"432 188 OFFCURVE",
"619 141 OFFCURVE",
"713 56 CURVE",
"587 -7 OFFCURVE",
"447 -45 OFFCURVE",
"307 -45 CURVE SMOOTH",
"272 -45 OFFCURVE",
"238 -44 OFFCURVE",
"204 -37 CURVE"
);
},
{
closed = 1;
nodes = (
"146 -22 OFFCURVE",
"82 8 OFFCURVE",
"82 53 CURVE SMOOTH",
"82 132 OFFCURVE",
"170 169 OFFCURVE",
"234 179 CURVE",
"215 139 OFFCURVE",
"171 39 OFFCURVE",
"171 -4 CURVE SMOOTH",
"171 -14 OFFCURVE",
"173 -24 OFFCURVE",
"180 -31 CURVE"
);
},
{
closed = 1;
nodes = (
"796 680 LINE",
"799 688 LINE",
"799 692 OFFCURVE",
"791 696 OFFCURVE",
"787 696 CURVE SMOOTH",
"772 696 OFFCURVE",
"707 659 OFFCURVE",
"689 650 CURVE",
"675 664 OFFCURVE",
"631 698 OFFCURVE",
"610 698 CURVE SMOOTH",
"604 698 OFFCURVE",
"593 695 OFFCURVE",
"593 688 CURVE SMOOTH",
"593 681 OFFCURVE",
"666 615 OFFCURVE",
"673 615 CURVE SMOOTH",
"691 615 OFFCURVE",
"784 668 OFFCURVE",
"796 681 CURVE"
);
}
);
width = 1000;
}
);
note = Dcaron;
unicode = 010E;
},
{
color = 6;
glyphname = Dcroat;
lastChange = "2021-04-21 04:42:22 +0000";
layers = (
{
hints = (
{
horizontal = 1;
place = "{-69, 36}";
type = Stem;
},
{
horizontal = 1;
place = "{175, 36}";
type = Stem;
},
{
horizontal = 1;
place = "{527, 40}";
type = Stem;
},
{
place = "{-7, 68}";
type = Stem;
},
{
place = "{149, 47}";
type = Stem;
},
{
place = "{917, 62}";
type = Stem;
},
{
place = "{14, 68}";
type = Stem;
},
{
place = "{170, 47}";
type = Stem;
},
{
place = "{938, 62}";
type = Stem;
}
);
layerId = "AFE3E0A9-A514-4B93-8E4E-B7D18C88F31C";
paths = (
{
closed = 1;
nodes = (
"859 83 OFFCURVE",
"1001 189 OFFCURVE",
"1001 311 CURVE SMOOTH",
"1001 524 OFFCURVE",
"649 567 OFFCURVE",
"491 567 CURVE SMOOTH",
"430 567 OFFCURVE",
"100 552 OFFCURVE",
"100 471 CURVE SMOOTH",
"100 457 OFFCURVE",
"109 450 OFFCURVE",
"122 450 CURVE SMOOTH",
"139 450 OFFCURVE",
"187 473 OFFCURVE",
"206 480 CURVE SMOOTH",
"303 514 OFFCURVE",
"400 535 OFFCURVE",
"503 535 CURVE SMOOTH",
"632 535 OFFCURVE",
"939 493 OFFCURVE",
"939 316 CURVE SMOOTH",
"939 212 OFFCURVE",
"817 115 OFFCURVE",
"743 71 CURVE",
"650 170 OFFCURVE",
"457 209 OFFCURVE",
"314 212 CURVE",
"369 301 OFFCURVE",
"438 384 OFFCURVE",
"508 462 CURVE SMOOTH",
"516 471 OFFCURVE",
"532 485 OFFCURVE",
"535 497 CURVE",
"533 509 OFFCURVE",
"507 513 OFFCURVE",
"497 513 CURVE SMOOTH",
"470 513 OFFCURVE",
"449 508 OFFCURVE",
"429 489 CURVE SMOOTH",
"385 446 OFFCURVE",
"283 272 OFFCURVE",
"250 211 CURVE",
"162 205 OFFCURVE",
"14 166 OFFCURVE",
"14 55 CURVE SMOOTH",
"14 -45 OFFCURVE",
"225 -69 OFFCURVE",
"298 -69 CURVE SMOOTH",
"456 -69 OFFCURVE",
"604 -50 OFFCURVE",
"748 19 CURVE",
"752 15 OFFCURVE",
"761 5 OFFCURVE",
"767 5 CURVE SMOOTH",
"788 5 OFFCURVE",
"779 24 OFFCURVE",
"772 33 CURVE"
);
},
{
closed = 1;
nodes = (
"213 -35 OFFCURVE",
"218 -27 OFFCURVE",
"218 -18 CURVE SMOOTH",
"218 50 OFFCURVE",
"263 123 OFFCURVE",
"297 181 CURVE",
"308 182 LINE SMOOTH",
"432 188 OFFCURVE",
"619 141 OFFCURVE",
"713 56 CURVE",
"587 -7 OFFCURVE",
"447 -45 OFFCURVE",
"307 -45 CURVE SMOOTH",
"272 -45 OFFCURVE",
"238 -44 OFFCURVE",
"204 -37 CURVE"
);
},
{
closed = 1;
nodes = (
"146 -22 OFFCURVE",
"82 8 OFFCURVE",
"82 53 CURVE SMOOTH",
"82 132 OFFCURVE",
"170 169 OFFCURVE",
"234 179 CURVE",
"215 139 OFFCURVE",
"171 39 OFFCURVE",
"171 -4 CURVE SMOOTH",
"171 -14 OFFCURVE",
"173 -24 OFFCURVE",
"180 -31 CURVE"
);
},
{
closed = 1;
nodes = (
"292 258 OFFCURVE",
"340 260 OFFCURVE",
"391 263 CURVE SMOOTH",
"400 264 OFFCURVE",
"458 268 OFFCURVE",
"458 278 CURVE SMOOTH",
"458 299 OFFCURVE",
"324 297 OFFCURVE",
"304 297 CURVE SMOOTH",
"282 297 OFFCURVE",
"202 294 OFFCURVE",
"202 271 CURVE SMOOTH",
"202 257 OFFCURVE",
"230 258 OFFCURVE",
"239 258 CURVE SMOOTH"
);
}
);
width = 1000;
}
);
note = Dcroat;
unicode = 0110;
},
{
color = 6;
glyphname = E;
lastChange = "2021-04-21 04:42:22 +0000";
layers = (
{
hints = (
{
horizontal = 1;
place = "{-53, 41}";
type = Stem;
},
{
horizontal = 1;
place = "{257, 43}";
type = Stem;
},
{
horizontal = 1;
place = "{506, 40}";
type = Stem;
},
{
place = "{34, 71}";
type = Stem;
},
{
place = "{804, 48}";
type = Stem;
}
);
layerId = "AFE3E0A9-A514-4B93-8E4E-B7D18C88F31C";
paths = (
{
closed = 1;
nodes = (
"790 333 OFFCURVE",
"852 406 OFFCURVE",
"852 462 CURVE SMOOTH",
"852 537 OFFCURVE",
"763 546 OFFCURVE",
"707 546 CURVE SMOOTH",
"501 546 OFFCURVE",
"268 436 OFFCURVE",
"130 285 CURVE",
"98 281 OFFCURVE",
"30 283 OFFCURVE",
"30 237 CURVE SMOOTH",
"30 203 OFFCURVE",
"67 219 OFFCURVE",
"85 222 CURVE",
"56 179 OFFCURVE",
"34 139 OFFCURVE",
"34 87 CURVE SMOOTH",
"34 -27 OFFCURVE",
"160 -53 OFFCURVE",
"251 -53 CURVE SMOOTH",
"473 -53 OFFCURVE",
"695 81 OFFCURVE",
"725 128 CURVE SMOOTH",
"733 140 OFFCURVE",
"729 142 OFFCURVE",
"716 142 CURVE SMOOTH",
"706 142 OFFCURVE",
"559 -13 OFFCURVE",
"278 -13 CURVE SMOOTH",
"106 -13 OFFCURVE",
"48 87 OFFCURVE",
"187 252 CURVE",
"274 262 OFFCURVE",
"306 262 OFFCURVE",
"394 262 CURVE SMOOTH",
"438 262 OFFCURVE",
"533 263 OFFCURVE",
"578 260 CURVE SMOOTH",
"613 258 OFFCURVE",
"621 272 OFFCURVE",
"602 279 CURVE SMOOTH",
"585 285 OFFCURVE",
"485 294 OFFCURVE",
"390 294 CURVE SMOOTH",
"327 294 OFFCURVE",
"286 296 OFFCURVE",
"223 291 CURVE",
"345 406 OFFCURVE",
"539 507 OFFCURVE",
"708 507 CURVE SMOOTH",
"738 507 OFFCURVE",
"824 506 OFFCURVE",
"824 463 CURVE SMOOTH",
"824 402 OFFCURVE",
"714 353 OFFCURVE",
"684 329 CURVE SMOOTH",
"653 304 OFFCURVE",
"708 304 OFFCURVE",
"724 310 CURVE SMOOTH"
);
}
);
width = 747;
}
);
note = E;
unicode = 0045;
},
{
color = 6;
glyphname = Eacute;
lastChange = "2021-04-21 04:42:22 +0000";
layers = (
{
hints = (
{
horizontal = 1;
place = "{-53, 41}";
type = Stem;
},
{
horizontal = 1;
place = "{258, 43}";
type = Stem;
},
{
horizontal = 1;
place = "{506, 40}";
type = Stem;
},
{
place = "{34, 71}";
type = Stem;
},
{
place = "{804, 48}";
type = Stem;
},
{
horizontal = 1;
place = "{257, 43}";
type = Stem;
}
);
layerId = "AFE3E0A9-A514-4B93-8E4E-B7D18C88F31C";
paths = (
{
closed = 1;
nodes = (
"740 589 OFFCURVE",
"841 639 OFFCURVE",
"856 648 CURVE SMOOTH",
"864 652 OFFCURVE",
"869 661 OFFCURVE",
"869 670 CURVE SMOOTH",
"869 679 OFFCURVE",
"863 686 OFFCURVE",
"853 686 CURVE SMOOTH",
"835 686 OFFCURVE",
"729 614 OFFCURVE",
"723 610 CURVE SMOOTH",
"720 608 OFFCURVE",
"716 604 OFFCURVE",
"716 600 CURVE SMOOTH",
"716 593 OFFCURVE",
"723 589 OFFCURVE",
"729 589 CURVE SMOOTH"
);
},
{
closed = 1;
nodes = (
"790 333 OFFCURVE",
"852 406 OFFCURVE",
"852 462 CURVE SMOOTH",
"852 537 OFFCURVE",
"763 546 OFFCURVE",
"707 546 CURVE SMOOTH",
"501 546 OFFCURVE",
"268 436 OFFCURVE",
"130 285 CURVE",
"98 281 OFFCURVE",
"30 283 OFFCURVE",
"30 237 CURVE SMOOTH",
"30 203 OFFCURVE",
"67 219 OFFCURVE",
"85 222 CURVE",
"56 179 OFFCURVE",
"34 139 OFFCURVE",
"34 87 CURVE SMOOTH",
"34 -27 OFFCURVE",
"160 -53 OFFCURVE",
"251 -53 CURVE SMOOTH",
"473 -53 OFFCURVE",
"695 81 OFFCURVE",
"725 128 CURVE SMOOTH",
"733 140 OFFCURVE",
"729 142 OFFCURVE",
"716 142 CURVE SMOOTH",
"706 142 OFFCURVE",
"559 -13 OFFCURVE",
"278 -13 CURVE SMOOTH",
"106 -13 OFFCURVE",
"48 87 OFFCURVE",
"187 252 CURVE",
"274 262 OFFCURVE",
"306 262 OFFCURVE",
"394 262 CURVE SMOOTH",
"438 262 OFFCURVE",
"533 263 OFFCURVE",
"578 260 CURVE SMOOTH",
"613 258 OFFCURVE",
"621 272 OFFCURVE",
"602 279 CURVE SMOOTH",
"585 285 OFFCURVE",
"485 294 OFFCURVE",
"390 294 CURVE SMOOTH",
"327 294 OFFCURVE",
"286 296 OFFCURVE",
"223 291 CURVE",
"345 406 OFFCURVE",
"539 507 OFFCURVE",
"708 507 CURVE SMOOTH",
"738 507 OFFCURVE",
"824 506 OFFCURVE",
"824 463 CURVE SMOOTH",
"824 402 OFFCURVE",
"714 353 OFFCURVE",
"684 329 CURVE SMOOTH",
"653 304 OFFCURVE",
"708 304 OFFCURVE",
"724 310 CURVE SMOOTH"
);
}
);
width = 721;
}
);
note = Eacute;
unicode = 00C9;
},
{
color = 6;
glyphname = Ebreve;
lastChange = "2021-04-21 04:42:22 +0000";
layers = (
{
hints = (
{
horizontal = 1;
place = "{-53, 41}";
type = Stem;
},
{
horizontal = 1;
place = "{258, 43}";
type = Stem;
},
{
horizontal = 1;
place = "{506, 40}";
type = Stem;
},
{
horizontal = 1;
place = "{620, 31}";
type = Stem;
},
{
place = "{34, 71}";
type = Stem;
},
{
place = "{804, 48}";
type = Stem;
},
{
horizontal = 1;
place = "{257, 43}";
type = Stem;
}
);
layerId = "AFE3E0A9-A514-4B93-8E4E-B7D18C88F31C";
paths = (
{
closed = 1;
nodes = (
"790 333 OFFCURVE",
"852 406 OFFCURVE",
"852 462 CURVE SMOOTH",
"852 537 OFFCURVE",
"763 546 OFFCURVE",
"707 546 CURVE SMOOTH",
"501 546 OFFCURVE",
"268 436 OFFCURVE",
"130 285 CURVE",
"98 281 OFFCURVE",
"30 283 OFFCURVE",
"30 237 CURVE SMOOTH",
"30 203 OFFCURVE",
"67 219 OFFCURVE",
"85 222 CURVE",
"56 179 OFFCURVE",
"34 139 OFFCURVE",
"34 87 CURVE SMOOTH",
"34 -27 OFFCURVE",
"160 -53 OFFCURVE",
"251 -53 CURVE SMOOTH",
"473 -53 OFFCURVE",
"695 81 OFFCURVE",
"725 128 CURVE SMOOTH",
"733 140 OFFCURVE",
"729 142 OFFCURVE",
"716 142 CURVE SMOOTH",
"706 142 OFFCURVE",
"559 -13 OFFCURVE",
"278 -13 CURVE SMOOTH",
"106 -13 OFFCURVE",
"48 87 OFFCURVE",
"187 252 CURVE",
"274 262 OFFCURVE",
"306 262 OFFCURVE",
"394 262 CURVE SMOOTH",
"438 262 OFFCURVE",
"533 263 OFFCURVE",
"578 260 CURVE SMOOTH",
"613 258 OFFCURVE",
"621 272 OFFCURVE",
"602 279 CURVE SMOOTH",
"585 285 OFFCURVE",
"485 294 OFFCURVE",
"390 294 CURVE SMOOTH",
"327 294 OFFCURVE",
"286 296 OFFCURVE",
"223 291 CURVE",
"345 406 OFFCURVE",
"539 507 OFFCURVE",
"708 507 CURVE SMOOTH",
"738 507 OFFCURVE",
"824 506 OFFCURVE",
"824 463 CURVE SMOOTH",
"824 402 OFFCURVE",
"714 353 OFFCURVE",
"684 329 CURVE SMOOTH",
"653 304 OFFCURVE",
"708 304 OFFCURVE",
"724 310 CURVE SMOOTH"
);
},
{
closed = 1;
nodes = (
"801 607 OFFCURVE",
"867 652 OFFCURVE",
"875 684 CURVE",
"875 697 OFFCURVE",
"865 695 OFFCURVE",
"858 688 CURVE SMOOTH",
"833 662 OFFCURVE",
"782 634 OFFCURVE",
"747 634 CURVE SMOOTH",
"730 634 OFFCURVE",
"710 635 OFFCURVE",
"697 646 CURVE SMOOTH",
"689 652 OFFCURVE",
"681 661 OFFCURVE",
"678 678 CURVE SMOOTH",
"677 686 OFFCURVE",
"667 692 OFFCURVE",
"664 692 CURVE SMOOTH",
"649 692 OFFCURVE",
"643 682 OFFCURVE",
"643 671 CURVE SMOOTH",
"643 624 OFFCURVE",
"699 607 OFFCURVE",
"739 607 CURVE SMOOTH"
);
}
);
width = 747;
}
);
note = Ebreve;
unicode = 0114;
},
{
color = 6;
glyphname = Ecaron;
lastChange = "2021-04-21 04:42:22 +0000";
layers = (
{
hints = (
{
horizontal = 1;
place = "{-53, 41}";
type = Stem;
},
{
horizontal = 1;
place = "{258, 43}";
type = Stem;
},
{
horizontal = 1;
place = "{506, 40}";
type = Stem;
},
{
place = "{34, 71}";
type = Stem;
},
{
place = "{804, 48}";
type = Stem;
}
);
layerId = "AFE3E0A9-A514-4B93-8E4E-B7D18C88F31C";
paths = (
{
closed = 1;
nodes = (
"790 333 OFFCURVE",
"852 406 OFFCURVE",
"852 462 CURVE SMOOTH",
"852 537 OFFCURVE",
"763 546 OFFCURVE",
"707 546 CURVE SMOOTH",
"501 546 OFFCURVE",
"268 436 OFFCURVE",
"130 285 CURVE",
"98 281 OFFCURVE",
"30 283 OFFCURVE",
"30 237 CURVE SMOOTH",
"30 203 OFFCURVE",
"67 219 OFFCURVE",
"85 222 CURVE",
"56 179 OFFCURVE",
"34 139 OFFCURVE",
"34 87 CURVE SMOOTH",
"34 -27 OFFCURVE",
"160 -53 OFFCURVE",
"251 -53 CURVE SMOOTH",
"473 -53 OFFCURVE",
"695 81 OFFCURVE",
"725 128 CURVE SMOOTH",
"733 140 OFFCURVE",
"729 142 OFFCURVE",
"716 142 CURVE SMOOTH",
"706 142 OFFCURVE",
"559 -13 OFFCURVE",
"278 -13 CURVE SMOOTH",
"106 -13 OFFCURVE",
"48 87 OFFCURVE",
"187 252 CURVE",
"274 262 OFFCURVE",
"306 262 OFFCURVE",
"394 262 CURVE SMOOTH",
"438 262 OFFCURVE",
"533 263 OFFCURVE",
"578 260 CURVE SMOOTH",
"613 258 OFFCURVE",
"621 272 OFFCURVE",
"602 279 CURVE SMOOTH",
"585 285 OFFCURVE",
"485 294 OFFCURVE",
"390 294 CURVE SMOOTH",
"327 294 OFFCURVE",
"286 296 OFFCURVE",
"223 291 CURVE",
"345 406 OFFCURVE",
"539 507 OFFCURVE",
"708 507 CURVE SMOOTH",
"738 507 OFFCURVE",
"824 506 OFFCURVE",
"824 463 CURVE SMOOTH",
"824 402 OFFCURVE",
"714 353 OFFCURVE",
"684 329 CURVE SMOOTH",
"653 304 OFFCURVE",
"708 304 OFFCURVE",
"724 310 CURVE SMOOTH"
);
},
{
closed = 1;
nodes = (
"867 655 LINE",
"870 663 LINE",
"870 667 OFFCURVE",
"862 671 OFFCURVE",
"858 671 CURVE SMOOTH",
"843 671 OFFCURVE",
"778 634 OFFCURVE",
"760 625 CURVE",
"746 639 OFFCURVE",
"702 673 OFFCURVE",
"681 673 CURVE SMOOTH",
"675 673 OFFCURVE",
"664 670 OFFCURVE",
"664 663 CURVE SMOOTH",
"664 656 OFFCURVE",
"737 590 OFFCURVE",
"744 590 CURVE SMOOTH",
"762 590 OFFCURVE",
"855 643 OFFCURVE",
"867 656 CURVE"
);
}
);
width = 747;
}
);
note = Ecaron;
unicode = 011A;
},
{
color = 6;
glyphname = Ecircumflex;
lastChange = "2021-04-21 04:42:22 +0000";
layers = (
{
hints = (
{
horizontal = 1;
place = "{-53, 41}";
type = Stem;
},
{
horizontal = 1;
place = "{258, 43}";
type = Stem;
},
{
horizontal = 1;
place = "{506, 40}";
type = Stem;
},
{
place = "{34, 71}";
type = Stem;
},
{
place = "{804, 48}";
type = Stem;
}
);
layerId = "AFE3E0A9-A514-4B93-8E4E-B7D18C88F31C";
paths = (
{
closed = 1;
nodes = (
"790 333 OFFCURVE",
"852 406 OFFCURVE",
"852 462 CURVE SMOOTH",
"852 537 OFFCURVE",
"763 546 OFFCURVE",
"707 546 CURVE SMOOTH",
"501 546 OFFCURVE",
"268 436 OFFCURVE",
"130 285 CURVE",
"98 281 OFFCURVE",
"30 283 OFFCURVE",
"30 237 CURVE SMOOTH",
"30 203 OFFCURVE",
"67 219 OFFCURVE",
"85 222 CURVE",
"56 179 OFFCURVE",
"34 139 OFFCURVE",
"34 87 CURVE SMOOTH",
"34 -27 OFFCURVE",
"160 -53 OFFCURVE",
"251 -53 CURVE SMOOTH",
"473 -53 OFFCURVE",
"695 81 OFFCURVE",
"725 128 CURVE SMOOTH",
"733 140 OFFCURVE",
"729 142 OFFCURVE",
"716 142 CURVE SMOOTH",
"706 142 OFFCURVE",
"559 -13 OFFCURVE",
"278 -13 CURVE SMOOTH",
"106 -13 OFFCURVE",
"48 87 OFFCURVE",
"187 252 CURVE",
"274 262 OFFCURVE",
"306 262 OFFCURVE",
"394 262 CURVE SMOOTH",
"438 262 OFFCURVE",
"533 263 OFFCURVE",
"578 260 CURVE SMOOTH",
"613 258 OFFCURVE",
"621 272 OFFCURVE",
"602 279 CURVE SMOOTH",
"585 285 OFFCURVE",
"485 294 OFFCURVE",
"390 294 CURVE SMOOTH",
"327 294 OFFCURVE",
"286 296 OFFCURVE",
"223 291 CURVE",
"345 406 OFFCURVE",
"539 507 OFFCURVE",
"708 507 CURVE SMOOTH",
"738 507 OFFCURVE",
"824 506 OFFCURVE",
"824 463 CURVE SMOOTH",
"824 402 OFFCURVE",
"714 353 OFFCURVE",
"684 329 CURVE SMOOTH",
"653 304 OFFCURVE",
"708 304 OFFCURVE",
"724 310 CURVE SMOOTH"
);
},
{
closed = 1;
nodes = (
"810 612 OFFCURVE",
"778 641 OFFCURVE",
"769 656 CURVE SMOOTH",
"756 675 OFFCURVE",
"732 656 OFFCURVE",
"674 624 CURVE SMOOTH",
"627 597 OFFCURVE",
"596 575 OFFCURVE",
"595 570 CURVE",
"592 565 OFFCURVE",
"595 563 OFFCURVE",
"600 563 CURVE SMOOTH",
"607 563 OFFCURVE",
"648 582 OFFCURVE",
"726 626 CURVE",
"733 616 OFFCURVE",
"749 602 OFFCURVE",
"775 585 CURVE SMOOTH",
"777 584 OFFCURVE",
"801 566 OFFCURVE",
"819 560 CURVE",
"836 551 OFFCURVE",
"860 566 OFFCURVE",
"849 579 CURVE"
);
}
);
width = 721;
}
);
note = Ecircumflex;
unicode = 00CA;
},
{
color = 6;
glyphname = Edieresis;
lastChange = "2021-04-21 04:42:22 +0000";
layers = (
{
hints = (
{
horizontal = 1;
place = "{-53, 41}";
type = Stem;
},
{
horizontal = 1;
place = "{258, 43}";
type = Stem;
},
{
horizontal = 1;
place = "{506, 40}";
type = Stem;
},
{
horizontal = 1;
place = "{575, 74}";
type = Stem;
},
{
place = "{34, 71}";
type = Stem;
},
{
place = "{613, 82}";
type = Stem;
},
{
place = "{804, 48}";
type = Stem;
},
{
horizontal = 1;
place = "{257, 43}";
type = Stem;
}
);
layerId = "AFE3E0A9-A514-4B93-8E4E-B7D18C88F31C";
paths = (
{
closed = 1;
nodes = (
"790 333 OFFCURVE",
"852 406 OFFCURVE",
"852 462 CURVE SMOOTH",
"852 537 OFFCURVE",
"763 546 OFFCURVE",
"707 546 CURVE SMOOTH",
"501 546 OFFCURVE",
"268 436 OFFCURVE",
"130 285 CURVE",
"98 281 OFFCURVE",
"30 283 OFFCURVE",
"30 237 CURVE SMOOTH",
"30 203 OFFCURVE",
"67 219 OFFCURVE",
"85 222 CURVE",
"56 179 OFFCURVE",
"34 139 OFFCURVE",
"34 87 CURVE SMOOTH",
"34 -27 OFFCURVE",
"160 -53 OFFCURVE",
"251 -53 CURVE SMOOTH",
"473 -53 OFFCURVE",
"695 81 OFFCURVE",
"725 128 CURVE SMOOTH",
"733 140 OFFCURVE",
"729 142 OFFCURVE",
"716 142 CURVE SMOOTH",
"706 142 OFFCURVE",
"559 -13 OFFCURVE",
"278 -13 CURVE SMOOTH",
"106 -13 OFFCURVE",
"48 87 OFFCURVE",
"187 252 CURVE",
"274 262 OFFCURVE",
"306 262 OFFCURVE",
"394 262 CURVE SMOOTH",
"438 262 OFFCURVE",
"533 263 OFFCURVE",
"578 260 CURVE SMOOTH",
"613 258 OFFCURVE",
"621 272 OFFCURVE",
"602 279 CURVE SMOOTH",
"585 285 OFFCURVE",
"485 294 OFFCURVE",
"390 294 CURVE SMOOTH",
"327 294 OFFCURVE",
"286 296 OFFCURVE",
"223 291 CURVE",
"345 406 OFFCURVE",
"539 507 OFFCURVE",
"708 507 CURVE SMOOTH",
"738 507 OFFCURVE",
"824 506 OFFCURVE",
"824 463 CURVE SMOOTH",
"824 402 OFFCURVE",
"714 353 OFFCURVE",
"684 329 CURVE SMOOTH",
"653 304 OFFCURVE",
"708 304 OFFCURVE",
"724 310 CURVE SMOOTH"
);
},
{
closed = 1;
nodes = (
"614 598 OFFCURVE",
"627 584 OFFCURVE",
"646 584 CURVE SMOOTH",
"665 584 OFFCURVE",
"682 598 OFFCURVE",
"684 616 CURVE SMOOTH",
"687 634 OFFCURVE",
"674 648 OFFCURVE",
"655 648 CURVE SMOOTH",
"635 648 OFFCURVE",
"618 634 OFFCURVE",
"616 616 CURVE SMOOTH"
);
},
{
closed = 1;
nodes = (
"766 598 OFFCURVE",
"779 584 OFFCURVE",
"798 584 CURVE SMOOTH",
"817 584 OFFCURVE",
"834 598 OFFCURVE",
"836 616 CURVE SMOOTH",
"839 634 OFFCURVE",
"826 648 OFFCURVE",
"807 648 CURVE SMOOTH",
"787 648 OFFCURVE",
"770 634 OFFCURVE",
"768 616 CURVE SMOOTH"
);
}
);
width = 721;
}
);
note = Edieresis;
unicode = 00CB;
},
{
color = 6;
glyphname = Edotaccent;
lastChange = "2021-04-21 04:42:22 +0000";
layers = (
{
hints = (
{
horizontal = 1;
place = "{-53, 41}";
type = Stem;
},
{
horizontal = 1;
place = "{258, 43}";
type = Stem;
},
{
horizontal = 1;
place = "{506, 40}";
type = Stem;
},
{
horizontal = 1;
place = "{600, 67}";
type = Stem;
},
{
place = "{34, 71}";
type = Stem;
},
{
place = "{804, 48}";
type = Stem;
},
{
horizontal = 1;
place = "{257, 43}";
type = Stem;
}
);
layerId = "AFE3E0A9-A514-4B93-8E4E-B7D18C88F31C";
paths = (
{
closed = 1;
nodes = (
"790 333 OFFCURVE",
"852 406 OFFCURVE",
"852 462 CURVE SMOOTH",
"852 537 OFFCURVE",
"763 546 OFFCURVE",
"707 546 CURVE SMOOTH",
"501 546 OFFCURVE",
"268 436 OFFCURVE",
"130 285 CURVE",
"98 281 OFFCURVE",
"30 283 OFFCURVE",
"30 237 CURVE SMOOTH",
"30 203 OFFCURVE",
"67 219 OFFCURVE",
"85 222 CURVE",
"56 179 OFFCURVE",
"34 139 OFFCURVE",
"34 87 CURVE SMOOTH",
"34 -27 OFFCURVE",
"160 -53 OFFCURVE",
"251 -53 CURVE SMOOTH",
"473 -53 OFFCURVE",
"695 81 OFFCURVE",
"725 128 CURVE SMOOTH",
"733 140 OFFCURVE",
"729 142 OFFCURVE",
"716 142 CURVE SMOOTH",
"706 142 OFFCURVE",
"559 -13 OFFCURVE",
"278 -13 CURVE SMOOTH",
"106 -13 OFFCURVE",
"48 87 OFFCURVE",
"187 252 CURVE",
"274 262 OFFCURVE",
"306 262 OFFCURVE",
"394 262 CURVE SMOOTH",
"438 262 OFFCURVE",
"533 263 OFFCURVE",
"578 260 CURVE SMOOTH",
"613 258 OFFCURVE",
"621 272 OFFCURVE",
"602 279 CURVE SMOOTH",
"585 285 OFFCURVE",
"485 294 OFFCURVE",
"390 294 CURVE SMOOTH",
"327 294 OFFCURVE",
"286 296 OFFCURVE",
"223 291 CURVE",
"345 406 OFFCURVE",
"539 507 OFFCURVE",
"708 507 CURVE SMOOTH",
"738 507 OFFCURVE",
"824 506 OFFCURVE",
"824 463 CURVE SMOOTH",
"824 402 OFFCURVE",
"714 353 OFFCURVE",
"684 329 CURVE SMOOTH",
"653 304 OFFCURVE",
"708 304 OFFCURVE",
"724 310 CURVE SMOOTH"
);
},
{
closed = 1;
nodes = (
"733 608 OFFCURVE",
"746 594 OFFCURVE",
"765 594 CURVE SMOOTH",
"784 594 OFFCURVE",
"801 608 OFFCURVE",
"803 626 CURVE SMOOTH",
"806 644 OFFCURVE",
"793 658 OFFCURVE",
"774 658 CURVE SMOOTH",
"754 658 OFFCURVE",
"737 644 OFFCURVE",
"735 626 CURVE SMOOTH"
);
}
);
width = 747;
}
);
note = Edotaccent;
unicode = 0116;
},
{
color = 6;
glyphname = Egrave;
lastChange = "2021-04-21 04:42:22 +0000";
layers = (
{
hints = (
{
horizontal = 1;
place = "{-53, 41}";
type = Stem;
},
{
horizontal = 1;
place = "{258, 43}";
type = Stem;
},
{
horizontal = 1;
place = "{506, 40}";
type = Stem;
},
{
place = "{34, 71}";
type = Stem;
},
{
place = "{804, 48}";
type = Stem;
}
);
layerId = "AFE3E0A9-A514-4B93-8E4E-B7D18C88F31C";
paths = (
{
closed = 1;
nodes = (
"790 333 OFFCURVE",
"852 406 OFFCURVE",
"852 462 CURVE SMOOTH",
"852 537 OFFCURVE",
"763 546 OFFCURVE",
"707 546 CURVE SMOOTH",
"501 546 OFFCURVE",
"268 436 OFFCURVE",
"130 285 CURVE",
"98 281 OFFCURVE",
"30 283 OFFCURVE",
"30 237 CURVE SMOOTH",
"30 203 OFFCURVE",
"67 219 OFFCURVE",
"85 222 CURVE",
"56 179 OFFCURVE",
"34 139 OFFCURVE",
"34 87 CURVE SMOOTH",
"34 -27 OFFCURVE",
"160 -53 OFFCURVE",
"251 -53 CURVE SMOOTH",
"473 -53 OFFCURVE",
"695 81 OFFCURVE",
"725 128 CURVE SMOOTH",
"733 140 OFFCURVE",
"729 142 OFFCURVE",
"716 142 CURVE SMOOTH",
"706 142 OFFCURVE",
"559 -13 OFFCURVE",
"278 -13 CURVE SMOOTH",
"106 -13 OFFCURVE",
"48 87 OFFCURVE",
"187 252 CURVE",
"274 262 OFFCURVE",
"306 262 OFFCURVE",
"394 262 CURVE SMOOTH",
"438 262 OFFCURVE",
"533 263 OFFCURVE",
"578 260 CURVE SMOOTH",
"613 258 OFFCURVE",
"621 272 OFFCURVE",
"602 279 CURVE SMOOTH",
"585 285 OFFCURVE",
"485 294 OFFCURVE",
"390 294 CURVE SMOOTH",
"327 294 OFFCURVE",
"286 296 OFFCURVE",
"223 291 CURVE",
"345 406 OFFCURVE",
"539 507 OFFCURVE",
"708 507 CURVE SMOOTH",
"738 507 OFFCURVE",
"824 506 OFFCURVE",
"824 463 CURVE SMOOTH",
"824 402 OFFCURVE",
"714 353 OFFCURVE",
"684 329 CURVE SMOOTH",
"653 304 OFFCURVE",
"708 304 OFFCURVE",
"724 310 CURVE SMOOTH"
);
},
{
closed = 1;
nodes = (
"750 572 OFFCURVE",
"759 575 OFFCURVE",
"759 583 CURVE SMOOTH",
"759 595 OFFCURVE",
"615 686 OFFCURVE",
"596 686 CURVE SMOOTH",
"584 686 OFFCURVE",
"577 679 OFFCURVE",
"577 667 CURVE SMOOTH",
"577 638 OFFCURVE",
"731 572 OFFCURVE",
"743 572 CURVE SMOOTH"
);
}
);
width = 721;
}
);
note = Egrave;
unicode = 00C8;
},
{
color = 6;
glyphname = Emacron;
lastChange = "2021-04-21 04:42:22 +0000";
layers = (
{
hints = (
{
horizontal = 1;
place = "{-53, 41}";
type = Stem;
},
{
horizontal = 1;
place = "{258, 43}";
type = Stem;
},
{
horizontal = 1;
place = "{506, 40}";
type = Stem;
},
{
place = "{34, 71}";
type = Stem;
},
{
place = "{804, 48}";
type = Stem;
},
{
horizontal = 1;
place = "{257, 43}";
type = Stem;
}
);
layerId = "AFE3E0A9-A514-4B93-8E4E-B7D18C88F31C";
paths = (
{
closed = 1;
nodes = (
"790 333 OFFCURVE",
"852 406 OFFCURVE",
"852 462 CURVE SMOOTH",
"852 537 OFFCURVE",
"763 546 OFFCURVE",
"707 546 CURVE SMOOTH",
"501 546 OFFCURVE",
"268 436 OFFCURVE",
"130 285 CURVE",
"98 281 OFFCURVE",
"30 283 OFFCURVE",
"30 237 CURVE SMOOTH",
"30 203 OFFCURVE",
"67 219 OFFCURVE",
"85 222 CURVE",
"56 179 OFFCURVE",
"34 139 OFFCURVE",
"34 87 CURVE SMOOTH",
"34 -27 OFFCURVE",
"160 -53 OFFCURVE",
"251 -53 CURVE SMOOTH",
"473 -53 OFFCURVE",
"695 81 OFFCURVE",
"725 128 CURVE SMOOTH",
"733 140 OFFCURVE",
"729 142 OFFCURVE",
"716 142 CURVE SMOOTH",
"706 142 OFFCURVE",
"559 -13 OFFCURVE",
"278 -13 CURVE SMOOTH",
"106 -13 OFFCURVE",
"48 87 OFFCURVE",
"187 252 CURVE",
"274 262 OFFCURVE",
"306 262 OFFCURVE",
"394 262 CURVE SMOOTH",
"438 262 OFFCURVE",
"533 263 OFFCURVE",
"578 260 CURVE SMOOTH",
"613 258 OFFCURVE",
"621 272 OFFCURVE",
"602 279 CURVE SMOOTH",
"585 285 OFFCURVE",
"485 294 OFFCURVE",
"390 294 CURVE SMOOTH",
"327 294 OFFCURVE",
"286 296 OFFCURVE",
"223 291 CURVE",
"345 406 OFFCURVE",
"539 507 OFFCURVE",
"708 507 CURVE SMOOTH",
"738 507 OFFCURVE",
"824 506 OFFCURVE",
"824 463 CURVE SMOOTH",
"824 402 OFFCURVE",
"714 353 OFFCURVE",
"684 329 CURVE SMOOTH",
"653 304 OFFCURVE",
"708 304 OFFCURVE",
"724 310 CURVE SMOOTH"
);
},
{
closed = 1;
nodes = (
"698 597 OFFCURVE",
"754 608 OFFCURVE",
"811 608 CURVE SMOOTH",
"820 608 OFFCURVE",
"864 608 OFFCURVE",
"864 623 CURVE SMOOTH",
"864 644 OFFCURVE",
"730 647 OFFCURVE",
"710 647 CURVE SMOOTH",
"689 647 OFFCURVE",
"604 640 OFFCURVE",
"604 610 CURVE SMOOTH",
"604 596 OFFCURVE",
"632 597 OFFCURVE",
"641 597 CURVE SMOOTH"
);
}
);
width = 747;
}
);
note = Emacron;
unicode = 0112;
},
{
color = 6;
glyphname = Eogonek;
lastChange = "2021-04-21 04:42:22 +0000";
layers = (
{
hints = (
{
horizontal = 1;
place = "{-156, 45}";
type = Stem;
},
{
horizontal = 1;
place = "{-53, 41}";
type = Stem;
},
{
horizontal = 1;
place = "{257, 43}";
type = Stem;
},
{
horizontal = 1;
place = "{506, 40}";
type = Stem;
},
{
place = "{34, 71}";
type = Stem;
},
{
place = "{487, 62}";
type = Stem;
},
{
place = "{804, 48}";
type = Stem;
}
);
layerId = "AFE3E0A9-A514-4B93-8E4E-B7D18C88F31C";
paths = (
{
closed = 1;
nodes = (
"790 333 OFFCURVE",
"852 406 OFFCURVE",
"852 462 CURVE SMOOTH",
"852 537 OFFCURVE",
"763 546 OFFCURVE",
"707 546 CURVE SMOOTH",
"501 546 OFFCURVE",
"268 436 OFFCURVE",
"130 285 CURVE",
"98 281 OFFCURVE",
"30 283 OFFCURVE",
"30 237 CURVE SMOOTH",
"30 203 OFFCURVE",
"67 219 OFFCURVE",
"85 222 CURVE",
"56 179 OFFCURVE",
"34 139 OFFCURVE",
"34 87 CURVE SMOOTH",
"34 -27 OFFCURVE",
"160 -53 OFFCURVE",
"251 -53 CURVE SMOOTH",
"473 -53 OFFCURVE",
"695 81 OFFCURVE",
"725 128 CURVE SMOOTH",
"733 140 OFFCURVE",
"729 142 OFFCURVE",
"716 142 CURVE SMOOTH",
"706 142 OFFCURVE",
"559 -13 OFFCURVE",
"278 -13 CURVE SMOOTH",
"106 -13 OFFCURVE",
"48 87 OFFCURVE",
"187 252 CURVE",
"274 262 OFFCURVE",
"306 262 OFFCURVE",
"394 262 CURVE SMOOTH",
"438 262 OFFCURVE",
"533 263 OFFCURVE",
"578 260 CURVE SMOOTH",
"613 258 OFFCURVE",
"621 272 OFFCURVE",
"602 279 CURVE SMOOTH",
"585 285 OFFCURVE",
"485 294 OFFCURVE",
"390 294 CURVE SMOOTH",
"327 294 OFFCURVE",
"286 296 OFFCURVE",
"223 291 CURVE",
"345 406 OFFCURVE",
"539 507 OFFCURVE",
"708 507 CURVE SMOOTH",
"738 507 OFFCURVE",
"824 506 OFFCURVE",
"824 463 CURVE SMOOTH",
"824 402 OFFCURVE",
"714 353 OFFCURVE",
"684 329 CURVE SMOOTH",
"653 304 OFFCURVE",
"708 304 OFFCURVE",
"724 310 CURVE SMOOTH"
);
},
{
closed = 1;
nodes = (
"674 95 OFFCURVE",
"670 92 OFFCURVE",
"665 92 CURVE",
"611 71 OFFCURVE",
"491 -37 OFFCURVE",
"491 -99 CURVE SMOOTH",
"491 -129 OFFCURVE",
"515 -144 OFFCURVE",
"543 -144 CURVE SMOOTH",
"600 -144 OFFCURVE",
"643 -108 OFFCURVE",
"647 -88 CURVE SMOOTH",
"649 -79 OFFCURVE",
"639 -82 OFFCURVE",
"635 -84 CURVE",
"621 -97 OFFCURVE",
"600 -114 OFFCURVE",
"580 -114 CURVE SMOOTH",
"554 -114 OFFCURVE",
"546 -99 OFFCURVE",
"546 -81 CURVE SMOOTH",
"546 -35 OFFCURVE",
"614 40 OFFCURVE",
"672 82 CURVE"
);
}
);
width = 747;
}
);
note = Eogonek;
unicode = 0118;
},
{
color = 6;
glyphname = F;
lastChange = "2021-04-21 04:42:22 +0000";
layers = (
{
hints = (
{
horizontal = 1;
place = "{-59, 33}";
type = Stem;
},
{
horizontal = 1;
place = "{424, 42}";
type = Stem;
},
{
horizontal = 1;
place = "{541, -20}";
target = down;
type = TopGhost;
},
{
place = "{3, 69}";
type = Stem;
},
{
place = "{441, 46}";
type = Stem;
}
);
layerId = "AFE3E0A9-A514-4B93-8E4E-B7D18C88F31C";
paths = (
{
closed = 1;
nodes = (
"955 440 OFFCURVE",
"1077 440 OFFCURVE",
"1075 465 CURVE SMOOTH",
"1073 486 OFFCURVE",
"1052 481 OFFCURVE",
"1039 477 CURVE SMOOTH",
"1010 466 OFFCURVE",
"967 466 OFFCURVE",
"935 466 CURVE SMOOTH",
"875 466 OFFCURVE",
"826 468 OFFCURVE",
"766 472 CURVE",
"782 490 OFFCURVE",
"796 509 OFFCURVE",
"813 526 CURVE",
"812 538 OFFCURVE",
"799 539 OFFCURVE",
"789 539 CURVE SMOOTH",
"731 539 OFFCURVE",
"712 525 OFFCURVE",
"677 481 CURVE",
"598 487 OFFCURVE",
"519 494 OFFCURVE",
"440 494 CURVE SMOOTH",
"217 494 OFFCURVE",
"3 464 OFFCURVE",
"3 336 CURVE SMOOTH",
"3 315 OFFCURVE",
"20 298 OFFCURVE",
"36 286 CURVE SMOOTH",
"146 207 OFFCURVE",
"347 200 OFFCURVE",
"479 202 CURVE SMOOTH",
"505 202 LINE",
"478 149 OFFCURVE",
"441 68 OFFCURVE",
"441 8 CURVE SMOOTH",
"441 -34 OFFCURVE",
"461 -59 OFFCURVE",
"505 -59 CURVE SMOOTH",
"521 -59 OFFCURVE",
"565 -41 OFFCURVE",
"577 -19 CURVE SMOOTH",
"582 -10 OFFCURVE",
"575 -4 OFFCURVE",
"568 -10 CURVE SMOOTH",
"539 -34 OFFCURVE",
"487 -51 OFFCURVE",
"487 3 CURVE SMOOTH",
"487 62 OFFCURVE",
"534 152 OFFCURVE",
"562 204 CURVE",
"628 207 OFFCURVE",
"694 213 OFFCURVE",
"759 222 CURVE SMOOTH",
"780 225 OFFCURVE",
"834 232 OFFCURVE",
"855 244 CURVE SMOOTH",
"863 249 OFFCURVE",
"844 257 OFFCURVE",
"837 256 CURVE SMOOTH",
"749 245 OFFCURVE",
"663 237 OFFCURVE",
"576 232 CURVE",
"615 299 OFFCURVE",
"712 419 OFFCURVE",
"745 446 CURVE",
"809 441 OFFCURVE",
"862 440 OFFCURVE",
"925 440 CURVE SMOOTH"
);
},
{
closed = 1;
nodes = (
"537 461 OFFCURVE",
"600 459 OFFCURVE",
"662 455 CURVE",
"617 392 OFFCURVE",
"553 298 OFFCURVE",
"517 230 CURVE",
"497 229 LINE SMOOTH",
"426 227 OFFCURVE",
"72 241 OFFCURVE",
"72 331 CURVE SMOOTH",
"72 447 OFFCURVE",
"395 461 OFFCURVE",
"475 461 CURVE SMOOTH"
);
}
);
width = 824;
}
);
note = F;
unicode = 0046;
},
{
color = 6;
glyphname = G;
lastChange = "2021-04-21 04:42:22 +0000";
layers = (
{
hints = (
{
horizontal = 1;
place = "{-277, 47}";
type = Stem;
},
{
horizontal = 1;
place = "{227, 38}";
type = Stem;
},
{
place = "{-219, 63}";
type = Stem;
},
{
place = "{160, 64}";
type = Stem;
},
{
place = "{752, 55}";
type = Stem;
}
);
layerId = "AFE3E0A9-A514-4B93-8E4E-B7D18C88F31C";
paths = (
{
closed = 1;
nodes = (
"855 418 OFFCURVE",
"887 451 OFFCURVE",
"887 475 CURVE SMOOTH",
"887 517 OFFCURVE",
"819 528 OFFCURVE",
"788 531 CURVE",
"779 545 OFFCURVE",
"764 553 OFFCURVE",
"748 553 CURVE SMOOTH",
"736 553 OFFCURVE",
"726 545 OFFCURVE",
"723 534 CURVE",
"575 497 OFFCURVE",
"240 367 OFFCURVE",
"240 181 CURVE SMOOTH",
"240 170 OFFCURVE",
"244 158 OFFCURVE",
"251 149 CURVE",
"127 108 OFFCURVE",
"-139 10 OFFCURVE",
"-139 -149 CURVE SMOOTH",
"-139 -257 OFFCURVE",
"-36 -277 OFFCURVE",
"51 -277 CURVE SMOOTH",
"366 -277 OFFCURVE",
"632 -62 OFFCURVE",
"728 236 CURVE",
"740 237 OFFCURVE",
"752 238 OFFCURVE",
"764 238 CURVE SMOOTH",
"798 239 OFFCURVE",
"822 228 OFFCURVE",
"825 242 CURVE SMOOTH",
"829 263 OFFCURVE",
"774 265 OFFCURVE",
"747 265 CURVE SMOOTH",
"736 265 LINE",
"757 338 OFFCURVE",
"781 434 OFFCURVE",
"790 510 CURVE",
"795 510 LINE SMOOTH",
"810 510 OFFCURVE",
"839 494 OFFCURVE",
"843 474 CURVE SMOOTH",
"849 446 OFFCURVE",
"833 439 OFFCURVE",
"826 432 CURVE SMOOTH",
"821 427 OFFCURVE",
"823 418 OFFCURVE",
"831 418 CURVE SMOOTH"
);
},
{
closed = 1;
nodes = (
"609 244 LINE",
"634 268 OFFCURVE",
"658 294 OFFCURVE",
"680 322 CURVE",
"664 254 LINE"
);
},
{
closed = 1;
nodes = (
"427 392 OFFCURVE",
"581 474 OFFCURVE",
"726 509 CURVE",
"695 349 OFFCURVE",
"608 289 OFFCURVE",
"527 226 CURVE",
"452 209 OFFCURVE",
"402 192 OFFCURVE",
"329 170 CURVE",
"277 175 OFFCURVE",
"324 242 OFFCURVE",
"340 266 CURVE SMOOTH"
);
},
{
closed = 1;
nodes = (
"659 227 LINE",
"575 -48 OFFCURVE",
"373 -248 OFFCURVE",
"76 -248 CURVE SMOOTH",
"11 -248 OFFCURVE",
"-76 -221 OFFCURVE",
"-76 -136 CURVE SMOOTH",
"-76 -2 OFFCURVE",
"158 90 OFFCURVE",
"263 124 CURVE",
"280 112 OFFCURVE",
"301 107 OFFCURVE",
"322 107 CURVE SMOOTH",
"401 107 OFFCURVE",
"499 157 OFFCURVE",
"559 204 CURVE"
);
}
);
width = 772;
}
);
note = G;
unicode = 0047;
},
{
color = 6;
glyphname = Gbreve;
lastChange = "2021-04-21 04:42:22 +0000";
layers = (
{
hints = (
{
horizontal = 1;
place = "{-277, 47}";
type = Stem;
},
{
horizontal = 1;
place = "{227, 38}";
type = Stem;
},
{
horizontal = 1;
place = "{624, 31}";
type = Stem;
},
{
place = "{-169, 63}";
type = Stem;
},
{
place = "{210, 64}";
type = Stem;
},
{
place = "{802, 55}";
type = Stem;
},
{
place = "{-219, 63}";
type = Stem;
},
{
place = "{160, 64}";
type = Stem;
},
{
place = "{752, 55}";
type = Stem;
}
);
layerId = "AFE3E0A9-A514-4B93-8E4E-B7D18C88F31C";
paths = (
{
closed = 1;
nodes = (
"855 418 OFFCURVE",
"887 451 OFFCURVE",
"887 475 CURVE SMOOTH",
"887 517 OFFCURVE",
"819 528 OFFCURVE",
"788 531 CURVE",
"779 545 OFFCURVE",
"764 553 OFFCURVE",
"748 553 CURVE SMOOTH",
"736 553 OFFCURVE",
"726 545 OFFCURVE",
"723 534 CURVE",
"575 497 OFFCURVE",
"240 367 OFFCURVE",
"240 181 CURVE SMOOTH",
"240 170 OFFCURVE",
"244 158 OFFCURVE",
"251 149 CURVE",
"127 108 OFFCURVE",
"-139 10 OFFCURVE",
"-139 -149 CURVE SMOOTH",
"-139 -257 OFFCURVE",
"-36 -277 OFFCURVE",
"51 -277 CURVE SMOOTH",
"366 -277 OFFCURVE",
"632 -62 OFFCURVE",
"728 236 CURVE",
"740 237 OFFCURVE",
"752 238 OFFCURVE",
"764 238 CURVE SMOOTH",
"798 239 OFFCURVE",
"822 228 OFFCURVE",
"825 242 CURVE SMOOTH",
"829 263 OFFCURVE",
"774 265 OFFCURVE",
"747 265 CURVE SMOOTH",
"736 265 LINE",
"757 338 OFFCURVE",
"781 434 OFFCURVE",
"790 510 CURVE",
"795 510 LINE SMOOTH",
"810 510 OFFCURVE",
"839 494 OFFCURVE",
"843 474 CURVE SMOOTH",
"849 446 OFFCURVE",
"833 439 OFFCURVE",
"826 432 CURVE SMOOTH",
"821 427 OFFCURVE",
"823 418 OFFCURVE",
"831 418 CURVE SMOOTH"
);
},
{
closed = 1;
nodes = (
"609 244 LINE",
"634 268 OFFCURVE",
"658 294 OFFCURVE",
"680 322 CURVE",
"664 254 LINE"
);
},
{
closed = 1;
nodes = (
"427 392 OFFCURVE",
"581 474 OFFCURVE",
"726 509 CURVE",
"695 349 OFFCURVE",
"608 289 OFFCURVE",
"527 226 CURVE",
"452 209 OFFCURVE",
"402 192 OFFCURVE",
"329 170 CURVE",
"277 175 OFFCURVE",
"324 242 OFFCURVE",
"340 266 CURVE SMOOTH"
);
},
{
closed = 1;
nodes = (
"659 227 LINE",
"575 -48 OFFCURVE",
"373 -248 OFFCURVE",
"76 -248 CURVE SMOOTH",
"11 -248 OFFCURVE",
"-76 -221 OFFCURVE",
"-76 -136 CURVE SMOOTH",
"-76 -2 OFFCURVE",
"158 90 OFFCURVE",
"263 124 CURVE",
"280 112 OFFCURVE",
"301 107 OFFCURVE",
"322 107 CURVE SMOOTH",
"401 107 OFFCURVE",
"499 157 OFFCURVE",
"559 204 CURVE"
);
},
{
closed = 1;
nodes = (
"816 622 OFFCURVE",
"882 667 OFFCURVE",
"890 699 CURVE",
"890 712 OFFCURVE",
"880 710 OFFCURVE",
"873 703 CURVE SMOOTH",
"848 677 OFFCURVE",
"797 649 OFFCURVE",
"762 649 CURVE SMOOTH",
"745 649 OFFCURVE",
"725 650 OFFCURVE",
"712 661 CURVE SMOOTH",
"704 667 OFFCURVE",
"696 676 OFFCURVE",
"693 693 CURVE SMOOTH",
"692 701 OFFCURVE",
"682 707 OFFCURVE",
"679 707 CURVE SMOOTH",
"664 707 OFFCURVE",
"658 697 OFFCURVE",
"658 686 CURVE SMOOTH",
"658 639 OFFCURVE",
"714 622 OFFCURVE",
"754 622 CURVE SMOOTH"
);
}
);
width = 772;
}
);
note = Gbreve;
unicode = 011E;
},
{
color = 6;
glyphname = Gcircumflex;
lastChange = "2021-04-21 04:42:22 +0000";
layers = (
{
hints = (
{
horizontal = 1;
place = "{-277, 47}";
type = Stem;
},
{
horizontal = 1;
place = "{227, 38}";
type = Stem;
},
{
horizontal = 1;
place = "{417, 269}";
type = Stem;
},
{
place = "{-169, 63}";
type = Stem;
},
{
place = "{210, 64}";
type = Stem;
},
{
place = "{802, 55}";
type = Stem;
}
);
layerId = "AFE3E0A9-A514-4B93-8E4E-B7D18C88F31C";
paths = (
{
closed = 1;
nodes = (
"855 418 OFFCURVE",
"887 451 OFFCURVE",
"887 475 CURVE SMOOTH",
"887 517 OFFCURVE",
"819 528 OFFCURVE",
"788 531 CURVE",
"779 545 OFFCURVE",
"764 553 OFFCURVE",
"748 553 CURVE SMOOTH",
"736 553 OFFCURVE",
"726 545 OFFCURVE",
"723 534 CURVE",
"575 497 OFFCURVE",
"240 367 OFFCURVE",
"240 181 CURVE SMOOTH",
"240 170 OFFCURVE",
"244 158 OFFCURVE",
"251 149 CURVE",
"127 108 OFFCURVE",
"-139 10 OFFCURVE",
"-139 -149 CURVE SMOOTH",
"-139 -257 OFFCURVE",
"-36 -277 OFFCURVE",
"51 -277 CURVE SMOOTH",
"366 -277 OFFCURVE",
"632 -62 OFFCURVE",
"728 236 CURVE",
"740 237 OFFCURVE",
"752 238 OFFCURVE",
"764 238 CURVE SMOOTH",
"798 239 OFFCURVE",
"822 228 OFFCURVE",
"825 242 CURVE SMOOTH",
"829 263 OFFCURVE",
"774 265 OFFCURVE",
"747 265 CURVE SMOOTH",
"736 265 LINE",
"757 338 OFFCURVE",
"781 434 OFFCURVE",
"790 510 CURVE",
"795 510 LINE SMOOTH",
"810 510 OFFCURVE",
"839 494 OFFCURVE",
"843 474 CURVE SMOOTH",
"849 446 OFFCURVE",
"833 439 OFFCURVE",
"826 432 CURVE SMOOTH",
"821 427 OFFCURVE",
"823 418 OFFCURVE",
"831 418 CURVE SMOOTH"
);
},
{
closed = 1;
nodes = (
"609 244 LINE",
"634 268 OFFCURVE",
"658 294 OFFCURVE",
"680 322 CURVE",
"664 254 LINE"
);
},
{
closed = 1;
nodes = (
"427 392 OFFCURVE",
"581 474 OFFCURVE",
"726 509 CURVE",
"695 349 OFFCURVE",
"608 289 OFFCURVE",
"527 226 CURVE",
"452 209 OFFCURVE",
"402 192 OFFCURVE",
"329 170 CURVE",
"277 175 OFFCURVE",
"324 242 OFFCURVE",
"340 266 CURVE SMOOTH"
);
},
{
closed = 1;
nodes = (
"659 227 LINE",
"575 -48 OFFCURVE",
"373 -248 OFFCURVE",
"76 -248 CURVE SMOOTH",
"11 -248 OFFCURVE",
"-76 -221 OFFCURVE",
"-76 -136 CURVE SMOOTH",
"-76 -2 OFFCURVE",
"158 90 OFFCURVE",
"263 124 CURVE",
"280 112 OFFCURVE",
"301 107 OFFCURVE",
"322 107 CURVE SMOOTH",
"401 107 OFFCURVE",
"499 157 OFFCURVE",
"559 204 CURVE"
);
},
{
closed = 1;
nodes = (
"852 634 OFFCURVE",
"820 663 OFFCURVE",
"811 678 CURVE SMOOTH",
"798 697 OFFCURVE",
"774 678 OFFCURVE",
"716 646 CURVE SMOOTH",
"669 619 OFFCURVE",
"638 597 OFFCURVE",
"637 592 CURVE",
"634 587 OFFCURVE",
"637 585 OFFCURVE",
"642 585 CURVE SMOOTH",
"649 585 OFFCURVE",
"690 604 OFFCURVE",
"768 648 CURVE",
"775 638 OFFCURVE",
"791 624 OFFCURVE",
"817 607 CURVE SMOOTH",
"819 606 OFFCURVE",
"843 588 OFFCURVE",
"861 582 CURVE",
"878 573 OFFCURVE",
"902 588 OFFCURVE",
"891 601 CURVE"
);
}
);
width = 772;
}
);
note = Gcircumflex;
unicode = 011C;
},
{
color = 6;
glyphname = Gcommaaccent;
lastChange = "2021-04-21 04:42:22 +0000";
layers = (
{
hints = (
{
horizontal = 1;
place = "{-277, 47}";
type = Stem;
},
{
horizontal = 1;
place = "{227, 38}";
type = Stem;
},
{
place = "{-169, 63}";
type = Stem;
},
{
place = "{181, 49}";
type = Stem;
},
{
place = "{802, 55}";
type = Stem;
},
{
place = "{-219, 63}";
type = Stem;
},
{
place = "{160, 64}";
type = Stem;
},
{
place = "{752, 55}";
type = Stem;
}
);
layerId = "AFE3E0A9-A514-4B93-8E4E-B7D18C88F31C";
paths = (
{
closed = 1;
nodes = (
"855 418 OFFCURVE",
"887 451 OFFCURVE",
"887 475 CURVE SMOOTH",
"887 517 OFFCURVE",
"819 528 OFFCURVE",
"788 531 CURVE",
"779 545 OFFCURVE",
"764 553 OFFCURVE",
"748 553 CURVE SMOOTH",
"736 553 OFFCURVE",
"726 545 OFFCURVE",
"723 534 CURVE",
"575 497 OFFCURVE",
"240 367 OFFCURVE",
"240 181 CURVE SMOOTH",
"240 170 OFFCURVE",
"244 158 OFFCURVE",
"251 149 CURVE",
"127 108 OFFCURVE",
"-139 10 OFFCURVE",
"-139 -149 CURVE SMOOTH",
"-139 -257 OFFCURVE",
"-36 -277 OFFCURVE",
"51 -277 CURVE SMOOTH",
"366 -277 OFFCURVE",
"632 -62 OFFCURVE",
"728 236 CURVE",
"740 237 OFFCURVE",
"752 238 OFFCURVE",
"764 238 CURVE SMOOTH",
"798 239 OFFCURVE",
"822 228 OFFCURVE",
"825 242 CURVE SMOOTH",
"829 263 OFFCURVE",
"774 265 OFFCURVE",
"747 265 CURVE SMOOTH",
"736 265 LINE",
"757 338 OFFCURVE",
"781 434 OFFCURVE",
"790 510 CURVE",
"795 510 LINE SMOOTH",
"810 510 OFFCURVE",
"839 494 OFFCURVE",
"843 474 CURVE SMOOTH",
"849 446 OFFCURVE",
"833 439 OFFCURVE",
"826 432 CURVE SMOOTH",
"821 427 OFFCURVE",
"823 418 OFFCURVE",
"831 418 CURVE SMOOTH"
);
},
{
closed = 1;
nodes = (
"609 244 LINE",
"634 268 OFFCURVE",
"658 294 OFFCURVE",
"680 322 CURVE",
"664 254 LINE"
);
},
{
closed = 1;
nodes = (
"427 392 OFFCURVE",
"581 474 OFFCURVE",
"726 509 CURVE",
"695 349 OFFCURVE",
"608 289 OFFCURVE",
"527 226 CURVE",
"452 209 OFFCURVE",
"402 192 OFFCURVE",
"329 170 CURVE",
"277 175 OFFCURVE",
"324 242 OFFCURVE",
"340 266 CURVE SMOOTH"
);
},
{
closed = 1;
nodes = (
"659 227 LINE",
"575 -48 OFFCURVE",
"373 -248 OFFCURVE",
"76 -248 CURVE SMOOTH",
"11 -248 OFFCURVE",
"-76 -221 OFFCURVE",
"-76 -136 CURVE SMOOTH",
"-76 -2 OFFCURVE",
"158 90 OFFCURVE",
"263 124 CURVE",
"280 112 OFFCURVE",
"301 107 OFFCURVE",
"322 107 CURVE SMOOTH",
"401 107 OFFCURVE",
"499 157 OFFCURVE",
"559 204 CURVE"
);
},
{
closed = 1;
nodes = (
"168 -317 OFFCURVE",
"182 -301 OFFCURVE",
"202 -301 CURVE SMOOTH",
"219 -301 OFFCURVE",
"228 -311 OFFCURVE",
"228 -324 CURVE SMOOTH",
"228 -339 OFFCURVE",
"219 -356 OFFCURVE",
"193 -382 CURVE SMOOTH",
"175 -400 OFFCURVE",
"157 -413 OFFCURVE",
"147 -419 CURVE",
"135 -422 OFFCURVE",
"123 -417 OFFCURVE",
"140 -408 CURVE",
"141 -407 OFFCURVE",
"177 -378 OFFCURVE",
"185 -351 CURVE",
"174 -347 OFFCURVE",
"168 -340 OFFCURVE",
"168 -332 CURVE SMOOTH"
);
}
);
width = 772;
}
);
note = Gcommaaccent;
unicode = 0122;
},
{
color = 6;
glyphname = Gdotaccent;
lastChange = "2021-04-21 04:42:22 +0000";
layers = (
{
hints = (
{
horizontal = 1;
place = "{-277, 47}";
type = Stem;
},
{
horizontal = 1;
place = "{227, 38}";
type = Stem;
},
{
horizontal = 1;
place = "{605, 67}";
type = Stem;
},
{
place = "{-169, 63}";
type = Stem;
},
{
place = "{210, 64}";
type = Stem;
},
{
place = "{709, 82}";
type = Stem;
},
{
place = "{802, 55}";
type = Stem;
},
{
place = "{-219, 63}";
type = Stem;
},
{
place = "{160, 64}";
type = Stem;
},
{
place = "{752, 55}";
type = Stem;
}
);
layerId = "AFE3E0A9-A514-4B93-8E4E-B7D18C88F31C";
paths = (
{
closed = 1;
nodes = (
"855 418 OFFCURVE",
"887 451 OFFCURVE",
"887 475 CURVE SMOOTH",
"887 517 OFFCURVE",
"819 528 OFFCURVE",
"788 531 CURVE",
"779 545 OFFCURVE",
"764 553 OFFCURVE",
"748 553 CURVE SMOOTH",
"736 553 OFFCURVE",
"726 545 OFFCURVE",
"723 534 CURVE",
"575 497 OFFCURVE",
"240 367 OFFCURVE",
"240 181 CURVE SMOOTH",
"240 170 OFFCURVE",
"244 158 OFFCURVE",
"251 149 CURVE",
"127 108 OFFCURVE",
"-139 10 OFFCURVE",
"-139 -149 CURVE SMOOTH",
"-139 -257 OFFCURVE",
"-36 -277 OFFCURVE",
"51 -277 CURVE SMOOTH",
"366 -277 OFFCURVE",
"632 -62 OFFCURVE",
"728 236 CURVE",
"740 237 OFFCURVE",
"752 238 OFFCURVE",
"764 238 CURVE SMOOTH",
"798 239 OFFCURVE",
"822 228 OFFCURVE",
"825 242 CURVE SMOOTH",
"829 263 OFFCURVE",
"774 265 OFFCURVE",
"747 265 CURVE SMOOTH",
"736 265 LINE",
"757 338 OFFCURVE",
"781 434 OFFCURVE",
"790 510 CURVE",
"795 510 LINE SMOOTH",
"810 510 OFFCURVE",
"839 494 OFFCURVE",
"843 474 CURVE SMOOTH",
"849 446 OFFCURVE",
"833 439 OFFCURVE",
"826 432 CURVE SMOOTH",
"821 427 OFFCURVE",
"823 418 OFFCURVE",
"831 418 CURVE SMOOTH"
);
},
{
closed = 1;
nodes = (
"609 244 LINE",
"634 268 OFFCURVE",
"658 294 OFFCURVE",
"680 322 CURVE",
"664 254 LINE"
);
},
{
closed = 1;
nodes = (
"427 392 OFFCURVE",
"581 474 OFFCURVE",
"726 509 CURVE",
"695 349 OFFCURVE",
"608 289 OFFCURVE",
"527 226 CURVE",
"452 209 OFFCURVE",
"402 192 OFFCURVE",
"329 170 CURVE",
"277 175 OFFCURVE",
"324 242 OFFCURVE",
"340 266 CURVE SMOOTH"
);
},
{
closed = 1;
nodes = (
"659 227 LINE",
"575 -48 OFFCURVE",
"373 -248 OFFCURVE",
"76 -248 CURVE SMOOTH",
"11 -248 OFFCURVE",
"-76 -221 OFFCURVE",
"-76 -136 CURVE SMOOTH",
"-76 -2 OFFCURVE",
"158 90 OFFCURVE",
"263 124 CURVE",
"280 112 OFFCURVE",
"301 107 OFFCURVE",
"322 107 CURVE SMOOTH",
"401 107 OFFCURVE",
"499 157 OFFCURVE",
"559 204 CURVE"
);
},
{
closed = 1;
nodes = (
"719 609 OFFCURVE",
"732 595 OFFCURVE",
"751 595 CURVE SMOOTH",
"770 595 OFFCURVE",
"787 609 OFFCURVE",
"789 627 CURVE SMOOTH",
"792 645 OFFCURVE",
"779 659 OFFCURVE",
"760 659 CURVE SMOOTH",
"740 659 OFFCURVE",
"723 645 OFFCURVE",
"721 627 CURVE SMOOTH"
);
}
);
width = 772;
}
);
note = Gdotaccent;
unicode = 0120;
},
{
color = 6;
glyphname = H;
lastChange = "2021-04-21 04:42:22 +0000";
layers = (
{
hints = (
{
horizontal = 1;
place = "{-102, 37}";
type = Stem;
},
{
horizontal = 1;
place = "{-59, 33}";
type = Stem;
},
{
horizontal = 1;
place = "{226, 37}";
type = Stem;
},
{
horizontal = 1;
place = "{480, 38}";
type = Stem;
},
{
horizontal = 1;
place = "{541, -20}";
target = down;
type = TopGhost;
},
{
place = "{-29, 57}";
type = Stem;
},
{
place = "{741, 64}";
type = Stem;
},
{
place = "{824, 47}";
type = Stem;
},
{
place = "{978, 51}";
type = Stem;
}
);
layerId = "AFE3E0A9-A514-4B93-8E4E-B7D18C88F31C";
paths = (
{
closed = 1;
nodes = (
"1047 315 OFFCURVE",
"1117 405 OFFCURVE",
"1193 489 CURVE SMOOTH",
"1202 499 OFFCURVE",
"1223 518 OFFCURVE",
"1226 530 CURVE",
"1225 541 OFFCURVE",
"1211 541 OFFCURVE",
"1203 541 CURVE SMOOTH",
"1181 541 OFFCURVE",
"1157 539 OFFCURVE",
"1139 524 CURVE SMOOTH",
"1075 472 OFFCURVE",
"985 309 OFFCURVE",
"944 233 CURVE",
"893 246 OFFCURVE",
"841 253 OFFCURVE",
"789 258 CURVE",
"815 313 OFFCURVE",
"845 386 OFFCURVE",
"845 447 CURVE SMOOTH",
"845 489 OFFCURVE",
"827 518 OFFCURVE",
"781 518 CURVE SMOOTH",
"762 518 OFFCURVE",
"674 497 OFFCURVE",
"674 474 CURVE SMOOTH",
"674 466 OFFCURVE",
"681 464 OFFCURVE",
"689 468 CURVE SMOOTH",
"710 479 OFFCURVE",
"725 488 OFFCURVE",
"750 488 CURVE SMOOTH",
"769 488 OFFCURVE",
"781 465 OFFCURVE",
"781 448 CURVE SMOOTH",
"781 392 OFFCURVE",
"744 314 OFFCURVE",
"719 263 CURVE",
"571 271 OFFCURVE",
"11 257 OFFCURVE",
"11 41 CURVE SMOOTH",
"11 -68 OFFCURVE",
"146 -102 OFFCURVE",
"233 -102 CURVE SMOOTH",
"472 -102 OFFCURVE",
"670 75 OFFCURVE",
"778 235 CURVE",
"831 231 OFFCURVE",
"884 224 OFFCURVE",
"936 212 CURVE",
"911 160 OFFCURVE",
"863 65 OFFCURVE",
"863 8 CURVE SMOOTH",
"863 -34 OFFCURVE",
"883 -52 OFFCURVE",
"926 -55 CURVE SMOOTH",
"955 -57 OFFCURVE",
"994 -38 OFFCURVE",
"1001 -19 CURVE SMOOTH",
"1004 -11 OFFCURVE",
"1001 -5 OFFCURVE",
"994 -10 CURVE SMOOTH",
"969 -27 OFFCURVE",
"953 -33 OFFCURVE",
"935 -33 CURVE SMOOTH",
"917 -33 OFFCURVE",
"911 -10 OFFCURVE",
"911 3 CURVE SMOOTH",
"911 56 OFFCURVE",
"959 150 OFFCURVE",
"984 197 CURVE",
"998 192 OFFCURVE",
"1033 174 OFFCURVE",
"1036 157 CURVE SMOOTH",
"1039 141 OFFCURVE",
"1035 123 OFFCURVE",
"1030 117 CURVE SMOOTH",
"1017 101 OFFCURVE",
"1041 102 OFFCURVE",
"1051 115 CURVE SMOOTH",
"1058 124 OFFCURVE",
"1062 136 OFFCURVE",
"1062 151 CURVE SMOOTH",
"1062 185 OFFCURVE",
"1019 205 OFFCURVE",
"992 216 CURVE"
);
},
{
closed = 1;
nodes = (
"670 241 OFFCURVE",
"688 240 OFFCURVE",
"706 239 CURVE",
"611 90 OFFCURVE",
"476 -81 OFFCURVE",
"227 -81 CURVE SMOOTH",
"167 -81 OFFCURVE",
"60 -58 OFFCURVE",
"60 24 CURVE SMOOTH",
"60 202 OFFCURVE",
"533 241 OFFCURVE",
"653 241 CURVE SMOOTH"
);
}
);
width = 1061;
}
);
note = H;
unicode = 0048;
},
{
color = 6;
glyphname = Hbar;
lastChange = "2021-04-21 04:42:22 +0000";
layers = (
{
hints = (
{
horizontal = 1;
place = "{-102, 37}";
type = Stem;
},
{
horizontal = 1;
place = "{-59, 33}";
type = Stem;
},
{
horizontal = 1;
place = "{227, 37}";
type = Stem;
},
{
horizontal = 1;
place = "{383, 39}";
type = Stem;
},
{
horizontal = 1;
place = "{480, 38}";
type = Stem;
},
{
horizontal = 1;
place = "{541, -20}";
target = down;
type = TopGhost;
},
{
place = "{-29, 57}";
type = Stem;
},
{
place = "{741, 64}";
type = Stem;
},
{
place = "{824, 47}";
type = Stem;
},
{
place = "{978, 51}";
type = Stem;
},
{
horizontal = 1;
place = "{226, 37}";
type = Stem;
},
{
horizontal = 1;
place = "{389, 35}";
type = Stem;
}
);
layerId = "AFE3E0A9-A514-4B93-8E4E-B7D18C88F31C";
paths = (
{
closed = 1;
nodes = (
"769 383 LINE",
"756 340 OFFCURVE",
"735 296 OFFCURVE",
"719 263 CURVE",
"571 271 OFFCURVE",
"11 257 OFFCURVE",
"11 41 CURVE SMOOTH",
"11 -68 OFFCURVE",
"146 -102 OFFCURVE",
"233 -102 CURVE SMOOTH",
"472 -102 OFFCURVE",
"670 75 OFFCURVE",
"778 235 CURVE",
"831 231 OFFCURVE",
"884 224 OFFCURVE",
"936 212 CURVE",
"911 160 OFFCURVE",
"863 65 OFFCURVE",
"863 8 CURVE SMOOTH",
"863 -34 OFFCURVE",
"883 -52 OFFCURVE",
"926 -55 CURVE SMOOTH",
"955 -57 OFFCURVE",
"994 -38 OFFCURVE",
"1001 -19 CURVE SMOOTH",
"1004 -11 OFFCURVE",
"1001 -5 OFFCURVE",
"994 -10 CURVE SMOOTH",
"969 -27 OFFCURVE",
"953 -33 OFFCURVE",
"935 -33 CURVE SMOOTH",
"917 -33 OFFCURVE",
"911 -10 OFFCURVE",
"911 3 CURVE SMOOTH",
"911 56 OFFCURVE",
"959 150 OFFCURVE",
"984 197 CURVE",
"998 192 OFFCURVE",
"1033 174 OFFCURVE",
"1036 157 CURVE SMOOTH",
"1039 141 OFFCURVE",
"1035 123 OFFCURVE",
"1030 117 CURVE SMOOTH",
"1017 101 OFFCURVE",
"1041 102 OFFCURVE",
"1051 115 CURVE SMOOTH",
"1058 124 OFFCURVE",
"1062 136 OFFCURVE",
"1062 151 CURVE SMOOTH",
"1062 185 OFFCURVE",
"1019 205 OFFCURVE",
"992 216 CURVE",
"1026 277 OFFCURVE",
"1066 336 OFFCURVE",
"1110 391 CURVE",
"1149 394 OFFCURVE",
"1197 399 OFFCURVE",
"1197 406 CURVE SMOOTH",
"1197 413 OFFCURVE",
"1171 417 OFFCURVE",
"1133 420 CURVE",
"1153 444 OFFCURVE",
"1172 466 OFFCURVE",
"1193 489 CURVE SMOOTH",
"1202 499 OFFCURVE",
"1223 518 OFFCURVE",
"1226 530 CURVE",
"1225 541 OFFCURVE",
"1211 541 OFFCURVE",
"1203 541 CURVE SMOOTH",
"1181 541 OFFCURVE",
"1157 539 OFFCURVE",
"1139 524 CURVE SMOOTH",
"1114 503 OFFCURVE",
"1085 466 OFFCURVE",
"1056 424 CURVE",
"981 425 OFFCURVE",
"899 424 OFFCURVE",
"879 424 CURVE SMOOTH",
"843 424 LINE",
"844 432 OFFCURVE",
"845 439 OFFCURVE",
"845 447 CURVE SMOOTH",
"845 489 OFFCURVE",
"827 518 OFFCURVE",
"781 518 CURVE SMOOTH",
"762 518 OFFCURVE",
"674 497 OFFCURVE",
"674 474 CURVE SMOOTH",
"674 466 OFFCURVE",
"681 464 OFFCURVE",
"689 468 CURVE SMOOTH",
"710 479 OFFCURVE",
"725 488 OFFCURVE",
"750 488 CURVE SMOOTH",
"769 488 OFFCURVE",
"781 465 OFFCURVE",
"781 448 CURVE SMOOTH",
"781 440 OFFCURVE",
"780 431 OFFCURVE",
"779 423 CURVE",
"721 421 OFFCURVE",
"684 415 OFFCURVE",
"684 398 CURVE SMOOTH",
"684 382 OFFCURVE",
"740 383 OFFCURVE",
"758 383 CURVE SMOOTH"
);
},
{
closed = 1;
nodes = (
"670 241 OFFCURVE",
"688 240 OFFCURVE",
"706 239 CURVE",
"611 90 OFFCURVE",
"476 -81 OFFCURVE",
"227 -81 CURVE SMOOTH",
"167 -81 OFFCURVE",
"60 -58 OFFCURVE",
"60 24 CURVE SMOOTH",
"60 202 OFFCURVE",
"533 241 OFFCURVE",
"653 241 CURVE SMOOTH"
);
},
{
closed = 1;
nodes = (
"893 246 OFFCURVE",
"841 253 OFFCURVE",
"789 258 CURVE",
"806 294 OFFCURVE",
"825 339 OFFCURVE",
"836 383 CURVE",
"903 383 OFFCURVE",
"967 385 OFFCURVE",
"1033 388 CURVE",
"997 331 OFFCURVE",
"964 271 OFFCURVE",
"944 233 CURVE"
);
}
);
width = 1061;
}
);
note = Hbar;
unicode = 0126;
},
{
color = 6;
glyphname = Hcircumflex;
lastChange = "2021-04-21 04:42:22 +0000";
layers = (
{
hints = (
{
horizontal = 1;
place = "{-102, 37}";
type = Stem;
},
{
horizontal = 1;
place = "{-59, 33}";
type = Stem;
},
{
horizontal = 1;
place = "{227, 37}";
type = Stem;
},
{
horizontal = 1;
place = "{480, 38}";
type = Stem;
},
{
place = "{-29, 57}";
type = Stem;
},
{
place = "{741, 64}";
type = Stem;
},
{
place = "{824, 47}";
type = Stem;
},
{
place = "{978, 51}";
type = Stem;
}
);
layerId = "AFE3E0A9-A514-4B93-8E4E-B7D18C88F31C";
paths = (
{
closed = 1;
nodes = (
"1047 315 OFFCURVE",
"1117 405 OFFCURVE",
"1193 489 CURVE SMOOTH",
"1202 499 OFFCURVE",
"1223 518 OFFCURVE",
"1226 530 CURVE",
"1225 541 OFFCURVE",
"1211 541 OFFCURVE",
"1203 541 CURVE SMOOTH",
"1181 541 OFFCURVE",
"1157 539 OFFCURVE",
"1139 524 CURVE SMOOTH",
"1075 472 OFFCURVE",
"985 309 OFFCURVE",
"944 233 CURVE",
"893 246 OFFCURVE",
"841 253 OFFCURVE",
"789 258 CURVE",
"815 313 OFFCURVE",
"845 386 OFFCURVE",
"845 447 CURVE SMOOTH",
"845 489 OFFCURVE",
"827 518 OFFCURVE",
"781 518 CURVE SMOOTH",
"762 518 OFFCURVE",
"674 497 OFFCURVE",
"674 474 CURVE SMOOTH",
"674 466 OFFCURVE",
"681 464 OFFCURVE",
"689 468 CURVE SMOOTH",
"710 479 OFFCURVE",
"725 488 OFFCURVE",
"750 488 CURVE SMOOTH",
"769 488 OFFCURVE",
"781 465 OFFCURVE",
"781 448 CURVE SMOOTH",
"781 392 OFFCURVE",
"744 314 OFFCURVE",
"719 263 CURVE",
"571 271 OFFCURVE",
"11 257 OFFCURVE",
"11 41 CURVE SMOOTH",
"11 -68 OFFCURVE",
"146 -102 OFFCURVE",
"233 -102 CURVE SMOOTH",
"472 -102 OFFCURVE",
"670 75 OFFCURVE",
"778 235 CURVE",
"831 231 OFFCURVE",
"884 224 OFFCURVE",
"936 212 CURVE",
"911 160 OFFCURVE",
"863 65 OFFCURVE",
"863 8 CURVE SMOOTH",
"863 -34 OFFCURVE",
"883 -52 OFFCURVE",
"926 -55 CURVE SMOOTH",
"955 -57 OFFCURVE",
"994 -38 OFFCURVE",
"1001 -19 CURVE SMOOTH",
"1004 -11 OFFCURVE",
"1001 -5 OFFCURVE",
"994 -10 CURVE SMOOTH",
"969 -27 OFFCURVE",
"953 -33 OFFCURVE",
"935 -33 CURVE SMOOTH",
"917 -33 OFFCURVE",
"911 -10 OFFCURVE",
"911 3 CURVE SMOOTH",
"911 56 OFFCURVE",
"959 150 OFFCURVE",
"984 197 CURVE",
"998 192 OFFCURVE",
"1033 174 OFFCURVE",
"1036 157 CURVE SMOOTH",
"1039 141 OFFCURVE",
"1035 123 OFFCURVE",
"1030 117 CURVE SMOOTH",
"1017 101 OFFCURVE",
"1041 102 OFFCURVE",
"1051 115 CURVE SMOOTH",
"1058 124 OFFCURVE",
"1062 136 OFFCURVE",
"1062 151 CURVE SMOOTH",
"1062 185 OFFCURVE",
"1019 205 OFFCURVE",
"992 216 CURVE"
);
},
{
closed = 1;
nodes = (
"670 241 OFFCURVE",
"688 240 OFFCURVE",
"706 239 CURVE",
"611 90 OFFCURVE",
"476 -81 OFFCURVE",
"227 -81 CURVE SMOOTH",
"167 -81 OFFCURVE",
"60 -58 OFFCURVE",
"60 24 CURVE SMOOTH",
"60 202 OFFCURVE",
"533 241 OFFCURVE",
"653 241 CURVE SMOOTH"
);
},
{
closed = 1;
nodes = (
"1025 606 OFFCURVE",
"993 635 OFFCURVE",
"984 650 CURVE SMOOTH",
"971 669 OFFCURVE",
"947 650 OFFCURVE",
"889 618 CURVE SMOOTH",
"842 591 OFFCURVE",
"811 569 OFFCURVE",
"810 564 CURVE",
"807 559 OFFCURVE",
"810 557 OFFCURVE",
"815 557 CURVE SMOOTH",
"822 557 OFFCURVE",
"863 576 OFFCURVE",
"941 620 CURVE",
"948 610 OFFCURVE",
"964 596 OFFCURVE",
"990 579 CURVE SMOOTH",
"992 578 OFFCURVE",
"1016 560 OFFCURVE",
"1034 554 CURVE",
"1051 545 OFFCURVE",
"1075 560 OFFCURVE",
"1064 573 CURVE"
);
}
);
width = 1004;
}
);
note = Hcircumflex;
unicode = 0124;
},
{
color = 6;
glyphname = I;
lastChange = "2021-04-21 04:42:22 +0000";
layers = (
{
hints = (
{
horizontal = 1;
place = "{-46, 33}";
type = Stem;
},
{
horizontal = 1;
place = "{547, -20}";
target = down;
type = TopGhost;
},
{
place = "{190, 64}";
type = Stem;
}
);
layerId = "AFE3E0A9-A514-4B93-8E4E-B7D18C88F31C";
paths = (
{
closed = 1;
nodes = (
"383 -20 OFFCURVE",
"364 -25 OFFCURVE",
"343 -23 CURVE SMOOTH",
"326 -21 OFFCURVE",
"318 -6 OFFCURVE",
"316 3 CURVE",
"338 5 OFFCURVE",
"377 5 OFFCURVE",
"399 6 CURVE"
);
},
{
closed = 1;
nodes = (
"655 535 LINE",
"655 547 OFFCURVE",
"638 547 OFFCURVE",
"630 547 CURVE SMOOTH",
"609 547 OFFCURVE",
"583 546 OFFCURVE",
"566 530 CURVE",
"507 533 OFFCURVE",
"188 541 OFFCURVE",
"190 456 CURVE SMOOTH",
"191 408 OFFCURVE",
"279 386 OFFCURVE",
"304 382 CURVE SMOOTH",
"333 377 OFFCURVE",
"350 388 OFFCURVE",
"324 396 CURVE SMOOTH",
"263 415 OFFCURVE",
"244 429 OFFCURVE",
"244 449 CURVE SMOOTH",
"244 491 OFFCURVE",
"489 494 OFFCURVE",
"526 494 CURVE SMOOTH",
"533 494 LINE",
"448 395 OFFCURVE",
"301 167 OFFCURVE",
"279 41 CURVE",
"239 35 OFFCURVE",
"-1 0 OFFCURVE",
"-1 -30 CURVE SMOOTH",
"-1 -43 OFFCURVE",
"9 -39 OFFCURVE",
"21 -37 CURVE SMOOTH",
"113 -18 OFFCURVE",
"193 -9 OFFCURVE",
"278 0 CURVE",
"284 -31 OFFCURVE",
"307 -42 OFFCURVE",
"338 -46 CURVE SMOOTH",
"371 -50 OFFCURVE",
"412 -28 OFFCURVE",
"412 -7 CURVE SMOOTH",
"412 -1 OFFCURVE",
"409 4 OFFCURVE",
"403 7 CURVE",
"412 7 LINE SMOOTH",
"463 7 OFFCURVE",
"513 3 OFFCURVE",
"561 -12 CURVE",
"563 -12 OFFCURVE",
"566 -13 OFFCURVE",
"568 -13 CURVE SMOOTH",
"578 -13 OFFCURVE",
"584 2 OFFCURVE",
"584 10 CURVE SMOOTH",
"584 61 OFFCURVE",
"469 55 OFFCURVE",
"433 54 CURVE SMOOTH",
"398 54 OFFCURVE",
"363 51 OFFCURVE",
"328 47 CURVE",
"367 196 OFFCURVE",
"512 384 OFFCURVE",
"618 493 CURVE",
"678 493 OFFCURVE",
"746 488 OFFCURVE",
"822 478 CURVE SMOOTH",
"831 477 OFFCURVE",
"842 481 OFFCURVE",
"842 492 CURVE SMOOTH",
"842 518 OFFCURVE",
"678 524 OFFCURVE",
"650 525 CURVE"
);
}
);
width = 566;
}
);
leftKerningGroup = I;
note = I;
rightKerningGroup = I;
unicode = 0049;
},
{
color = 6;
glyphname = IJ;
lastChange = "2021-04-21 04:42:22 +0000";
layers = (
{
hints = (
{
horizontal = 1;
place = "{-362, 27}";
type = Stem;
},
{
horizontal = 1;
place = "{-46, 33}";
type = Stem;
},
{
horizontal = 1;
place = "{70, 33}";
type = Stem;
},
{
horizontal = 1;
place = "{137, 34}";
type = Stem;
},
{
horizontal = 1;
place = "{493, 37}";
type = Stem;
},
{
place = "{190, 64}";
type = Stem;
},
{
place = "{435, 53}";
type = Stem;
},
{
place = "{582, 46}";
type = Stem;
},
{
place = "{1135, 61}";
type = Stem;
},
{
horizontal = 1;
place = "{508, 32}";
type = Stem;
},
{
place = "{443, 53}";
type = Stem;
},
{
place = "{590, 46}";
type = Stem;
},
{
place = "{1143, 61}";
type = Stem;
}
);
layerId = "AFE3E0A9-A514-4B93-8E4E-B7D18C88F31C";
paths = (
{
closed = 1;
nodes = (
"1232 61 OFFCURVE",
"1240 68 OFFCURVE",
"1238 77 CURVE SMOOTH",
"1235 94 OFFCURVE",
"1192 103 OFFCURVE",
"1174 103 CURVE SMOOTH",
"1160 103 LINE",
"1188 180 OFFCURVE",
"1210 268 OFFCURVE",
"1210 350 CURVE SMOOTH",
"1210 471 OFFCURVE",
"1152 540 OFFCURVE",
"1024 540 CURVE SMOOTH",
"882 540 OFFCURVE",
"590 406 OFFCURVE",
"590 235 CURVE SMOOTH",
"590 166 OFFCURVE",
"655 133 OFFCURVE",
"716 133 CURVE SMOOTH",
"781 133 OFFCURVE",
"883 181 OFFCURVE",
"921 229 CURVE SMOOTH",
"932 243 OFFCURVE",
"921 250 OFFCURVE",
"905 242 CURVE",
"865 210 OFFCURVE",
"784 163 OFFCURVE",
"717 163 CURVE SMOOTH",
"680 163 OFFCURVE",
"636 176 OFFCURVE",
"636 223 CURVE SMOOTH",
"636 359 OFFCURVE",
"871 518 OFFCURVE",
"1023 518 CURVE SMOOTH",
"1114 518 OFFCURVE",
"1149 439 OFFCURVE",
"1149 358 CURVE SMOOTH",
"1149 280 OFFCURVE",
"1124 174 OFFCURVE",
"1095 102 CURVE",
"926 77 OFFCURVE",
"500 -34 OFFCURVE",
"443 -214 CURVE SMOOTH",
"408 -325 OFFCURVE",
"504 -362 OFFCURVE",
"591 -362 CURVE SMOOTH",
"824 -362 OFFCURVE",
"1063 -125 OFFCURVE",
"1151 75 CURVE",
"1176 78 OFFCURVE",
"1203 74 OFFCURVE",
"1222 61 CURVE"
);
},
{
closed = 1;
nodes = (
"521 -72 OFFCURVE",
"929 50 OFFCURVE",
"1085 72 CURVE",
"1015 -96 OFFCURVE",
"829 -334 OFFCURVE",
"594 -341 CURVE SMOOTH",
"520 -343 OFFCURVE",
"479 -308 OFFCURVE",
"489 -252 CURVE SMOOTH"
);
},
{
closed = 1;
nodes = (
"383 -20 OFFCURVE",
"364 -25 OFFCURVE",
"343 -23 CURVE SMOOTH",
"326 -21 OFFCURVE",
"318 -6 OFFCURVE",
"316 3 CURVE",
"338 5 OFFCURVE",
"377 5 OFFCURVE",
"399 6 CURVE"
);
},
{
closed = 1;
nodes = (
"655 535 LINE",
"655 547 OFFCURVE",
"638 547 OFFCURVE",
"630 547 CURVE SMOOTH",
"609 547 OFFCURVE",
"583 546 OFFCURVE",
"566 530 CURVE",
"507 533 OFFCURVE",
"188 541 OFFCURVE",
"190 456 CURVE SMOOTH",
"191 408 OFFCURVE",
"279 386 OFFCURVE",
"304 382 CURVE SMOOTH",
"333 377 OFFCURVE",
"350 388 OFFCURVE",
"324 396 CURVE SMOOTH",
"263 415 OFFCURVE",
"244 429 OFFCURVE",
"244 449 CURVE SMOOTH",
"244 491 OFFCURVE",
"489 494 OFFCURVE",
"526 494 CURVE SMOOTH",
"533 494 LINE",
"448 395 OFFCURVE",
"301 167 OFFCURVE",
"279 41 CURVE",
"239 35 OFFCURVE",
"-1 0 OFFCURVE",
"-1 -30 CURVE SMOOTH",
"-1 -43 OFFCURVE",
"9 -39 OFFCURVE",
"21 -37 CURVE SMOOTH",
"113 -18 OFFCURVE",
"193 -9 OFFCURVE",
"278 0 CURVE",
"284 -31 OFFCURVE",
"307 -42 OFFCURVE",
"338 -46 CURVE SMOOTH",
"371 -50 OFFCURVE",
"412 -28 OFFCURVE",
"412 -7 CURVE SMOOTH",
"412 -1 OFFCURVE",
"409 4 OFFCURVE",
"403 7 CURVE",
"412 7 LINE SMOOTH",
"463 7 OFFCURVE",
"513 3 OFFCURVE",
"561 -12 CURVE",
"563 -12 OFFCURVE",
"566 -13 OFFCURVE",
"568 -13 CURVE SMOOTH",
"578 -13 OFFCURVE",
"584 2 OFFCURVE",
"584 10 CURVE SMOOTH",
"584 61 OFFCURVE",
"469 55 OFFCURVE",
"433 54 CURVE SMOOTH",
"398 54 OFFCURVE",
"363 51 OFFCURVE",
"328 47 CURVE",
"367 196 OFFCURVE",
"512 384 OFFCURVE",
"618 493 CURVE",
"678 493 OFFCURVE",
"746 488 OFFCURVE",
"822 478 CURVE SMOOTH",
"831 477 OFFCURVE",
"842 481 OFFCURVE",
"842 492 CURVE SMOOTH",
"842 518 OFFCURVE",
"678 524 OFFCURVE",
"650 525 CURVE"
);
}
);
width = 1249;
}
);
note = IJ;
unicode = 0132;
},
{
color = 6;
glyphname = Iacute;
lastChange = "2021-04-21 04:42:22 +0000";
layers = (
{
hints = (
{
horizontal = 1;
place = "{-46, 33}";
type = Stem;
},
{
horizontal = 1;
place = "{493, 37}";
type = Stem;
},
{
place = "{190, 64}";
type = Stem;
}
);
layerId = "AFE3E0A9-A514-4B93-8E4E-B7D18C88F31C";
paths = (
{
closed = 1;
nodes = (
"383 -20 OFFCURVE",
"364 -25 OFFCURVE",
"343 -23 CURVE SMOOTH",
"326 -21 OFFCURVE",
"318 -6 OFFCURVE",
"316 3 CURVE",
"338 5 OFFCURVE",
"377 5 OFFCURVE",
"399 6 CURVE"
);
},
{
closed = 1;
nodes = (
"655 535 LINE",
"655 547 OFFCURVE",
"638 547 OFFCURVE",
"630 547 CURVE SMOOTH",
"609 547 OFFCURVE",
"583 546 OFFCURVE",
"566 530 CURVE",
"507 533 OFFCURVE",
"188 541 OFFCURVE",
"190 456 CURVE SMOOTH",
"191 408 OFFCURVE",
"279 386 OFFCURVE",
"304 382 CURVE SMOOTH",
"333 377 OFFCURVE",
"350 388 OFFCURVE",
"324 396 CURVE SMOOTH",
"263 415 OFFCURVE",
"244 429 OFFCURVE",
"244 449 CURVE SMOOTH",
"244 491 OFFCURVE",
"489 494 OFFCURVE",
"526 494 CURVE SMOOTH",
"533 494 LINE",
"448 395 OFFCURVE",
"301 167 OFFCURVE",
"279 41 CURVE",
"239 35 OFFCURVE",
"-1 0 OFFCURVE",
"-1 -30 CURVE SMOOTH",
"-1 -43 OFFCURVE",
"9 -39 OFFCURVE",
"21 -37 CURVE SMOOTH",
"113 -18 OFFCURVE",
"193 -9 OFFCURVE",
"278 0 CURVE",
"284 -31 OFFCURVE",
"307 -42 OFFCURVE",
"338 -46 CURVE SMOOTH",
"371 -50 OFFCURVE",
"412 -28 OFFCURVE",
"412 -7 CURVE SMOOTH",
"412 -1 OFFCURVE",
"409 4 OFFCURVE",
"403 7 CURVE",
"412 7 LINE SMOOTH",
"463 7 OFFCURVE",
"513 3 OFFCURVE",
"561 -12 CURVE",
"563 -12 OFFCURVE",
"566 -13 OFFCURVE",
"568 -13 CURVE SMOOTH",
"578 -13 OFFCURVE",
"584 2 OFFCURVE",
"584 10 CURVE SMOOTH",
"584 61 OFFCURVE",
"469 55 OFFCURVE",
"433 54 CURVE SMOOTH",
"398 54 OFFCURVE",
"363 51 OFFCURVE",
"328 47 CURVE",
"367 196 OFFCURVE",
"512 384 OFFCURVE",
"618 493 CURVE",
"678 493 OFFCURVE",
"746 488 OFFCURVE",
"822 478 CURVE SMOOTH",
"831 477 OFFCURVE",
"842 481 OFFCURVE",
"842 492 CURVE SMOOTH",
"842 518 OFFCURVE",
"678 524 OFFCURVE",
"650 525 CURVE"
);
},
{
closed = 1;
nodes = (
"677 599 OFFCURVE",
"778 649 OFFCURVE",
"793 658 CURVE SMOOTH",
"801 662 OFFCURVE",
"806 671 OFFCURVE",
"806 680 CURVE SMOOTH",
"806 689 OFFCURVE",
"800 696 OFFCURVE",
"790 696 CURVE SMOOTH",
"772 696 OFFCURVE",
"666 624 OFFCURVE",
"660 620 CURVE SMOOTH",
"657 618 OFFCURVE",
"653 614 OFFCURVE",
"653 610 CURVE SMOOTH",
"653 603 OFFCURVE",
"660 599 OFFCURVE",
"666 599 CURVE SMOOTH"
);
}
);
width = 566;
}
);
leftKerningGroup = Iacute;
note = Iacute;
rightKerningGroup = Iacute;
unicode = 00CD;
},
{
color = 6;
glyphname = Ibreve;
lastChange = "2021-04-21 04:42:22 +0000";
layers = (
{
hints = (
{
horizontal = 1;
place = "{-46, 33}";
type = Stem;
},
{
horizontal = 1;
place = "{493, 37}";
type = Stem;
},
{
horizontal = 1;
place = "{637, 31}";
type = Stem;
},
{
place = "{190, 64}";
type = Stem;
},
{
horizontal = 1;
place = "{547, -20}";
target = down;
type = TopGhost;
}
);
layerId = "AFE3E0A9-A514-4B93-8E4E-B7D18C88F31C";
paths = (
{
closed = 1;
nodes = (
"383 -20 OFFCURVE",
"364 -25 OFFCURVE",
"343 -23 CURVE SMOOTH",
"326 -21 OFFCURVE",
"318 -6 OFFCURVE",
"316 3 CURVE",
"338 5 OFFCURVE",
"377 5 OFFCURVE",
"399 6 CURVE"
);
},
{
closed = 1;
nodes = (
"655 535 LINE",
"655 547 OFFCURVE",
"638 547 OFFCURVE",
"630 547 CURVE SMOOTH",
"609 547 OFFCURVE",
"583 546 OFFCURVE",
"566 530 CURVE",
"507 533 OFFCURVE",
"188 541 OFFCURVE",
"190 456 CURVE SMOOTH",
"191 408 OFFCURVE",
"279 386 OFFCURVE",
"304 382 CURVE SMOOTH",
"333 377 OFFCURVE",
"350 388 OFFCURVE",
"324 396 CURVE SMOOTH",
"263 415 OFFCURVE",
"244 429 OFFCURVE",
"244 449 CURVE SMOOTH",
"244 491 OFFCURVE",
"489 494 OFFCURVE",
"526 494 CURVE SMOOTH",
"533 494 LINE",
"448 395 OFFCURVE",
"301 167 OFFCURVE",
"279 41 CURVE",
"239 35 OFFCURVE",
"-1 0 OFFCURVE",
"-1 -30 CURVE SMOOTH",
"-1 -43 OFFCURVE",
"9 -39 OFFCURVE",
"21 -37 CURVE SMOOTH",
"113 -18 OFFCURVE",
"193 -9 OFFCURVE",
"278 0 CURVE",
"284 -31 OFFCURVE",
"307 -42 OFFCURVE",
"338 -46 CURVE SMOOTH",
"371 -50 OFFCURVE",
"412 -28 OFFCURVE",
"412 -7 CURVE SMOOTH",
"412 -1 OFFCURVE",
"409 4 OFFCURVE",
"403 7 CURVE",
"412 7 LINE SMOOTH",
"463 7 OFFCURVE",
"513 3 OFFCURVE",
"561 -12 CURVE",
"563 -12 OFFCURVE",
"566 -13 OFFCURVE",
"568 -13 CURVE SMOOTH",
"578 -13 OFFCURVE",
"584 2 OFFCURVE",
"584 10 CURVE SMOOTH",
"584 61 OFFCURVE",
"469 55 OFFCURVE",
"433 54 CURVE SMOOTH",
"398 54 OFFCURVE",
"363 51 OFFCURVE",
"328 47 CURVE",
"367 196 OFFCURVE",
"512 384 OFFCURVE",
"618 493 CURVE",
"678 493 OFFCURVE",
"746 488 OFFCURVE",
"822 478 CURVE SMOOTH",
"831 477 OFFCURVE",
"842 481 OFFCURVE",
"842 492 CURVE SMOOTH",
"842 518 OFFCURVE",
"678 524 OFFCURVE",
"650 525 CURVE"
);
},
{
closed = 1;
nodes = (
"734 632 OFFCURVE",
"800 677 OFFCURVE",
"808 709 CURVE",
"808 722 OFFCURVE",
"798 720 OFFCURVE",
"791 713 CURVE SMOOTH",
"766 687 OFFCURVE",
"715 659 OFFCURVE",
"680 659 CURVE SMOOTH",
"663 659 OFFCURVE",
"643 660 OFFCURVE",
"630 671 CURVE SMOOTH",
"622 677 OFFCURVE",
"614 686 OFFCURVE",
"611 703 CURVE SMOOTH",
"610 711 OFFCURVE",
"600 717 OFFCURVE",
"597 717 CURVE SMOOTH",
"582 717 OFFCURVE",
"576 707 OFFCURVE",
"576 696 CURVE SMOOTH",
"576 649 OFFCURVE",
"632 632 OFFCURVE",
"672 632 CURVE SMOOTH"
);
}
);
width = 566;
}
);
leftKerningGroup = Iacute;
note = Ibreve;
rightKerningGroup = Iacute;
unicode = 012C;
},
{
color = 6;
glyphname = Icircumflex;
lastChange = "2021-04-21 04:42:22 +0000";
layers = (
{
hints = (
{
horizontal = 1;
place = "{-46, 33}";
type = Stem;
},
{
horizontal = 1;
place = "{493, 37}";
type = Stem;
},
{
place = "{190, 64}";
type = Stem;
},
{
horizontal = 1;
place = "{547, -20}";
target = down;
type = TopGhost;
}
);
layerId = "AFE3E0A9-A514-4B93-8E4E-B7D18C88F31C";
paths = (
{
closed = 1;
nodes = (
"373 -4 OFFCURVE",
"361 -14 OFFCURVE",
"340 -14 CURVE SMOOTH",
"330 -14 OFFCURVE",
"325 -6 OFFCURVE",
"323 3 CURVE",
"345 5 OFFCURVE",
"367 6 OFFCURVE",
"389 7 CURVE"
);
},
{
closed = 1;
nodes = (
"383 -20 OFFCURVE",
"364 -25 OFFCURVE",
"343 -23 CURVE SMOOTH",
"326 -21 OFFCURVE",
"318 -6 OFFCURVE",
"316 3 CURVE",
"338 5 OFFCURVE",
"377 5 OFFCURVE",
"399 6 CURVE"
);
},
{
closed = 1;
nodes = (
"655 535 LINE",
"655 547 OFFCURVE",
"638 547 OFFCURVE",
"630 547 CURVE SMOOTH",
"609 547 OFFCURVE",
"583 546 OFFCURVE",
"566 530 CURVE",
"507 533 OFFCURVE",
"188 541 OFFCURVE",
"190 456 CURVE SMOOTH",
"191 408 OFFCURVE",
"279 386 OFFCURVE",
"304 382 CURVE SMOOTH",
"333 377 OFFCURVE",
"350 388 OFFCURVE",
"324 396 CURVE SMOOTH",
"263 415 OFFCURVE",
"244 429 OFFCURVE",
"244 449 CURVE SMOOTH",
"244 491 OFFCURVE",
"489 494 OFFCURVE",
"526 494 CURVE SMOOTH",
"533 494 LINE",
"448 395 OFFCURVE",
"301 167 OFFCURVE",
"279 41 CURVE",
"239 35 OFFCURVE",
"-1 0 OFFCURVE",
"-1 -30 CURVE SMOOTH",
"-1 -43 OFFCURVE",
"9 -39 OFFCURVE",
"21 -37 CURVE SMOOTH",
"113 -18 OFFCURVE",
"193 -9 OFFCURVE",
"278 0 CURVE",
"284 -31 OFFCURVE",
"307 -42 OFFCURVE",
"338 -46 CURVE SMOOTH",
"371 -50 OFFCURVE",
"412 -28 OFFCURVE",
"412 -7 CURVE SMOOTH",
"412 -1 OFFCURVE",
"409 4 OFFCURVE",
"403 7 CURVE",
"412 7 LINE SMOOTH",
"463 7 OFFCURVE",
"513 3 OFFCURVE",
"561 -12 CURVE",
"563 -12 OFFCURVE",
"566 -13 OFFCURVE",
"568 -13 CURVE SMOOTH",
"578 -13 OFFCURVE",
"584 2 OFFCURVE",
"584 10 CURVE SMOOTH",
"584 61 OFFCURVE",
"469 55 OFFCURVE",
"433 54 CURVE SMOOTH",
"398 54 OFFCURVE",
"363 51 OFFCURVE",
"328 47 CURVE",
"367 196 OFFCURVE",
"512 384 OFFCURVE",
"618 493 CURVE",
"678 493 OFFCURVE",
"746 488 OFFCURVE",
"822 478 CURVE SMOOTH",
"831 477 OFFCURVE",
"842 481 OFFCURVE",
"842 492 CURVE SMOOTH",
"842 518 OFFCURVE",
"678 524 OFFCURVE",
"650 525 CURVE"
);
},
{
closed = 1;
nodes = (
"724 635 OFFCURVE",
"692 664 OFFCURVE",
"683 679 CURVE SMOOTH",
"670 698 OFFCURVE",
"646 679 OFFCURVE",
"588 647 CURVE SMOOTH",
"541 620 OFFCURVE",
"510 598 OFFCURVE",
"509 593 CURVE",
"506 588 OFFCURVE",
"509 586 OFFCURVE",
"514 586 CURVE SMOOTH",
"521 586 OFFCURVE",
"562 605 OFFCURVE",
"640 649 CURVE",
"647 639 OFFCURVE",
"663 625 OFFCURVE",
"689 608 CURVE SMOOTH",
"691 607 OFFCURVE",
"715 589 OFFCURVE",
"733 583 CURVE",
"750 574 OFFCURVE",
"774 589 OFFCURVE",
"763 602 CURVE"
);
}
);
width = 566;
}
);
leftKerningGroup = Iacute;
note = Icircumflex;
rightKerningGroup = Iacute;
unicode = 00CE;
},
{
color = 6;
glyphname = Idieresis;
lastChange = "2021-04-21 04:42:22 +0000";
layers = (
{
hints = (
{
horizontal = 1;
place = "{-46, 33}";
type = Stem;
},
{
horizontal = 1;
place = "{493, 37}";
type = Stem;
},
{
horizontal = 1;
place = "{574, 74}";
type = Stem;
},
{
place = "{190, 64}";
type = Stem;
},
{
place = "{517, 82}";
type = Stem;
},
{
place = "{668, 82}";
type = Stem;
},
{
horizontal = 1;
place = "{547, -20}";
target = down;
type = TopGhost;
}
);
layerId = "AFE3E0A9-A514-4B93-8E4E-B7D18C88F31C";
paths = (
{
closed = 1;
nodes = (
"383 -20 OFFCURVE",
"364 -25 OFFCURVE",
"343 -23 CURVE SMOOTH",
"326 -21 OFFCURVE",
"318 -6 OFFCURVE",
"316 3 CURVE",
"338 5 OFFCURVE",
"377 5 OFFCURVE",
"399 6 CURVE"
);
},
{
closed = 1;
nodes = (
"655 535 LINE",
"655 547 OFFCURVE",
"638 547 OFFCURVE",
"630 547 CURVE SMOOTH",
"609 547 OFFCURVE",
"583 546 OFFCURVE",
"566 530 CURVE",
"507 533 OFFCURVE",
"188 541 OFFCURVE",
"190 456 CURVE SMOOTH",
"191 408 OFFCURVE",
"279 386 OFFCURVE",
"304 382 CURVE SMOOTH",
"333 377 OFFCURVE",
"350 388 OFFCURVE",
"324 396 CURVE SMOOTH",
"263 415 OFFCURVE",
"244 429 OFFCURVE",
"244 449 CURVE SMOOTH",
"244 491 OFFCURVE",
"489 494 OFFCURVE",
"526 494 CURVE SMOOTH",
"533 494 LINE",
"448 395 OFFCURVE",
"301 167 OFFCURVE",
"279 41 CURVE",
"239 35 OFFCURVE",
"-1 0 OFFCURVE",
"-1 -30 CURVE SMOOTH",
"-1 -43 OFFCURVE",
"9 -39 OFFCURVE",
"21 -37 CURVE SMOOTH",
"113 -18 OFFCURVE",
"193 -9 OFFCURVE",
"278 0 CURVE",
"284 -31 OFFCURVE",
"307 -42 OFFCURVE",
"338 -46 CURVE SMOOTH",
"371 -50 OFFCURVE",
"412 -28 OFFCURVE",
"412 -7 CURVE SMOOTH",
"412 -1 OFFCURVE",
"409 4 OFFCURVE",
"403 7 CURVE",
"412 7 LINE SMOOTH",
"463 7 OFFCURVE",
"513 3 OFFCURVE",
"561 -12 CURVE",
"563 -12 OFFCURVE",
"566 -13 OFFCURVE",
"568 -13 CURVE SMOOTH",
"578 -13 OFFCURVE",
"584 2 OFFCURVE",
"584 10 CURVE SMOOTH",
"584 61 OFFCURVE",
"469 55 OFFCURVE",
"433 54 CURVE SMOOTH",
"398 54 OFFCURVE",
"363 51 OFFCURVE",
"328 47 CURVE",
"367 196 OFFCURVE",
"512 384 OFFCURVE",
"618 493 CURVE",
"678 493 OFFCURVE",
"746 488 OFFCURVE",
"822 478 CURVE SMOOTH",
"831 477 OFFCURVE",
"842 481 OFFCURVE",
"842 492 CURVE SMOOTH",
"842 518 OFFCURVE",
"678 524 OFFCURVE",
"650 525 CURVE"
);
},
{
closed = 1;
nodes = (
"521 590 OFFCURVE",
"534 576 OFFCURVE",
"553 576 CURVE SMOOTH",
"572 576 OFFCURVE",
"589 590 OFFCURVE",
"591 608 CURVE SMOOTH",
"594 626 OFFCURVE",
"581 640 OFFCURVE",
"562 640 CURVE SMOOTH",
"542 640 OFFCURVE",
"525 626 OFFCURVE",
"523 608 CURVE SMOOTH"
);
},
{
closed = 1;
nodes = (
"673 590 OFFCURVE",
"686 576 OFFCURVE",
"705 576 CURVE SMOOTH",
"724 576 OFFCURVE",
"741 590 OFFCURVE",
"743 608 CURVE SMOOTH",
"746 626 OFFCURVE",
"733 640 OFFCURVE",
"714 640 CURVE SMOOTH",
"694 640 OFFCURVE",
"677 626 OFFCURVE",
"675 608 CURVE SMOOTH"
);
}
);
width = 566;
}
);
leftKerningGroup = Iacute;
note = Idieresis;
rightKerningGroup = Iacute;
unicode = 00CF;
},
{
color = 6;
glyphname = Idotaccent;
lastChange = "2021-04-21 04:42:22 +0000";
layers = (
{
hints = (
{
horizontal = 1;
place = "{-46, 33}";
type = Stem;
},
{
horizontal = 1;
place = "{493, 37}";
type = Stem;
},
{
horizontal = 1;
place = "{600, 67}";
type = Stem;
},
{
place = "{190, 64}";
type = Stem;
},
{
place = "{615, 82}";
type = Stem;
},
{
horizontal = 1;
place = "{547, -20}";
target = down;
type = TopGhost;
}
);
layerId = "AFE3E0A9-A514-4B93-8E4E-B7D18C88F31C";
paths = (
{
closed = 1;
nodes = (
"383 -20 OFFCURVE",
"364 -25 OFFCURVE",
"343 -23 CURVE SMOOTH",
"326 -21 OFFCURVE",
"318 -6 OFFCURVE",
"316 3 CURVE",
"338 5 OFFCURVE",
"377 5 OFFCURVE",
"399 6 CURVE"
);
},
{
closed = 1;
nodes = (
"655 535 LINE",
"655 547 OFFCURVE",
"638 547 OFFCURVE",
"630 547 CURVE SMOOTH",
"609 547 OFFCURVE",
"583 546 OFFCURVE",
"566 530 CURVE",
"507 533 OFFCURVE",
"188 541 OFFCURVE",
"190 456 CURVE SMOOTH",
"191 408 OFFCURVE",
"279 386 OFFCURVE",
"304 382 CURVE SMOOTH",
"333 377 OFFCURVE",
"350 388 OFFCURVE",
"324 396 CURVE SMOOTH",
"263 415 OFFCURVE",
"244 429 OFFCURVE",
"244 449 CURVE SMOOTH",
"244 491 OFFCURVE",
"489 494 OFFCURVE",
"526 494 CURVE SMOOTH",
"533 494 LINE",
"448 395 OFFCURVE",
"301 167 OFFCURVE",
"279 41 CURVE",
"239 35 OFFCURVE",
"-1 0 OFFCURVE",
"-1 -30 CURVE SMOOTH",
"-1 -43 OFFCURVE",
"9 -39 OFFCURVE",
"21 -37 CURVE SMOOTH",
"113 -18 OFFCURVE",
"193 -9 OFFCURVE",
"278 0 CURVE",
"284 -31 OFFCURVE",
"307 -42 OFFCURVE",
"338 -46 CURVE SMOOTH",
"371 -50 OFFCURVE",
"412 -28 OFFCURVE",
"412 -7 CURVE SMOOTH",
"412 -1 OFFCURVE",
"409 4 OFFCURVE",
"403 7 CURVE",
"412 7 LINE SMOOTH",
"463 7 OFFCURVE",
"513 3 OFFCURVE",
"561 -12 CURVE",
"563 -12 OFFCURVE",
"566 -13 OFFCURVE",
"568 -13 CURVE SMOOTH",
"578 -13 OFFCURVE",
"584 2 OFFCURVE",
"584 10 CURVE SMOOTH",
"584 61 OFFCURVE",
"469 55 OFFCURVE",
"433 54 CURVE SMOOTH",
"398 54 OFFCURVE",
"363 51 OFFCURVE",
"328 47 CURVE",
"367 196 OFFCURVE",
"512 384 OFFCURVE",
"618 493 CURVE",
"678 493 OFFCURVE",
"746 488 OFFCURVE",
"822 478 CURVE SMOOTH",
"831 477 OFFCURVE",
"842 481 OFFCURVE",
"842 492 CURVE SMOOTH",
"842 518 OFFCURVE",
"678 524 OFFCURVE",
"650 525 CURVE"
);
},
{
closed = 1;
nodes = (
"619 620 OFFCURVE",
"632 606 OFFCURVE",
"651 606 CURVE SMOOTH",
"670 606 OFFCURVE",
"687 620 OFFCURVE",
"689 638 CURVE SMOOTH",
"692 656 OFFCURVE",
"679 670 OFFCURVE",
"660 670 CURVE SMOOTH",
"640 670 OFFCURVE",
"623 656 OFFCURVE",
"621 638 CURVE SMOOTH"
);
}
);
width = 566;
}
);
leftKerningGroup = Iacute;
note = Idotaccent;
rightKerningGroup = Iacute;
unicode = 0130;
},
{
color = 6;
glyphname = Igrave;
lastChange = "2021-04-21 04:42:22 +0000";
layers = (
{
hints = (
{
horizontal = 1;
place = "{-46, 33}";
type = Stem;
},
{
horizontal = 1;
place = "{493, 37}";
type = Stem;
},
{
place = "{190, 64}";
type = Stem;
}
);
layerId = "AFE3E0A9-A514-4B93-8E4E-B7D18C88F31C";
paths = (
{
closed = 1;
nodes = (
"383 -20 OFFCURVE",
"364 -25 OFFCURVE",
"343 -23 CURVE SMOOTH",
"326 -21 OFFCURVE",
"318 -6 OFFCURVE",
"316 3 CURVE",
"338 5 OFFCURVE",
"377 5 OFFCURVE",
"399 6 CURVE"
);
},
{
closed = 1;
nodes = (
"655 535 LINE",
"655 547 OFFCURVE",
"638 547 OFFCURVE",
"630 547 CURVE SMOOTH",
"609 547 OFFCURVE",
"583 546 OFFCURVE",
"566 530 CURVE",
"507 533 OFFCURVE",
"188 541 OFFCURVE",
"190 456 CURVE SMOOTH",
"191 408 OFFCURVE",
"279 386 OFFCURVE",
"304 382 CURVE SMOOTH",
"333 377 OFFCURVE",
"350 388 OFFCURVE",
"324 396 CURVE SMOOTH",
"263 415 OFFCURVE",
"244 429 OFFCURVE",
"244 449 CURVE SMOOTH",
"244 491 OFFCURVE",
"489 494 OFFCURVE",
"526 494 CURVE SMOOTH",
"533 494 LINE",
"448 395 OFFCURVE",
"301 167 OFFCURVE",
"279 41 CURVE",
"239 35 OFFCURVE",
"-1 0 OFFCURVE",
"-1 -30 CURVE SMOOTH",
"-1 -43 OFFCURVE",
"9 -39 OFFCURVE",
"21 -37 CURVE SMOOTH",
"113 -18 OFFCURVE",
"193 -9 OFFCURVE",
"278 0 CURVE",
"284 -31 OFFCURVE",
"307 -42 OFFCURVE",
"338 -46 CURVE SMOOTH",
"371 -50 OFFCURVE",
"412 -28 OFFCURVE",
"412 -7 CURVE SMOOTH",
"412 -1 OFFCURVE",
"409 4 OFFCURVE",
"403 7 CURVE",
"412 7 LINE SMOOTH",
"463 7 OFFCURVE",
"513 3 OFFCURVE",
"561 -12 CURVE",
"563 -12 OFFCURVE",
"566 -13 OFFCURVE",
"568 -13 CURVE SMOOTH",
"578 -13 OFFCURVE",
"584 2 OFFCURVE",
"584 10 CURVE SMOOTH",
"584 61 OFFCURVE",
"469 55 OFFCURVE",
"433 54 CURVE SMOOTH",
"398 54 OFFCURVE",
"363 51 OFFCURVE",
"328 47 CURVE",
"367 196 OFFCURVE",
"512 384 OFFCURVE",
"618 493 CURVE",
"678 493 OFFCURVE",
"746 488 OFFCURVE",
"822 478 CURVE SMOOTH",
"831 477 OFFCURVE",
"842 481 OFFCURVE",
"842 492 CURVE SMOOTH",
"842 518 OFFCURVE",
"678 524 OFFCURVE",
"650 525 CURVE"
);
},
{
closed = 1;
nodes = (
"688 558 OFFCURVE",
"697 561 OFFCURVE",
"697 569 CURVE SMOOTH",
"697 581 OFFCURVE",
"553 672 OFFCURVE",
"534 672 CURVE SMOOTH",
"522 672 OFFCURVE",
"515 665 OFFCURVE",
"515 653 CURVE SMOOTH",
"515 624 OFFCURVE",
"669 558 OFFCURVE",
"681 558 CURVE SMOOTH"
);
}
);
width = 566;
}
);
leftKerningGroup = Iacute;
note = Igrave;
rightKerningGroup = Iacute;
unicode = 00CC;
},
{
color = 6;
glyphname = Imacron;
lastChange = "2021-04-21 04:42:22 +0000";
layers = (
{
hints = (
{
horizontal = 1;
place = "{-46, 33}";
type = Stem;
},
{
horizontal = 1;
place = "{493, 37}";
type = Stem;
},
{
place = "{190, 64}";
type = Stem;
},
{
place = "{505, 260}";
type = Stem;
},
{
horizontal = 1;
place = "{547, -20}";
target = down;
type = TopGhost;
}
);
layerId = "AFE3E0A9-A514-4B93-8E4E-B7D18C88F31C";
paths = (
{
closed = 1;
nodes = (
"383 -20 OFFCURVE",
"364 -25 OFFCURVE",
"343 -23 CURVE SMOOTH",
"326 -21 OFFCURVE",
"318 -6 OFFCURVE",
"316 3 CURVE",
"338 5 OFFCURVE",
"377 5 OFFCURVE",
"399 6 CURVE"
);
},
{
closed = 1;
nodes = (
"655 535 LINE",
"655 547 OFFCURVE",
"638 547 OFFCURVE",
"630 547 CURVE SMOOTH",
"609 547 OFFCURVE",
"583 546 OFFCURVE",
"566 530 CURVE",
"507 533 OFFCURVE",
"188 541 OFFCURVE",
"190 456 CURVE SMOOTH",
"191 408 OFFCURVE",
"279 386 OFFCURVE",
"304 382 CURVE SMOOTH",
"333 377 OFFCURVE",
"350 388 OFFCURVE",
"324 396 CURVE SMOOTH",
"263 415 OFFCURVE",
"244 429 OFFCURVE",
"244 449 CURVE SMOOTH",
"244 491 OFFCURVE",
"489 494 OFFCURVE",
"526 494 CURVE SMOOTH",
"533 494 LINE",
"448 395 OFFCURVE",
"301 167 OFFCURVE",
"279 41 CURVE",
"239 35 OFFCURVE",
"-1 0 OFFCURVE",
"-1 -30 CURVE SMOOTH",
"-1 -43 OFFCURVE",
"9 -39 OFFCURVE",
"21 -37 CURVE SMOOTH",
"113 -18 OFFCURVE",
"193 -9 OFFCURVE",
"278 0 CURVE",
"284 -31 OFFCURVE",
"307 -42 OFFCURVE",
"338 -46 CURVE SMOOTH",
"371 -50 OFFCURVE",
"412 -28 OFFCURVE",
"412 -7 CURVE SMOOTH",
"412 -1 OFFCURVE",
"409 4 OFFCURVE",
"403 7 CURVE",
"412 7 LINE SMOOTH",
"463 7 OFFCURVE",
"513 3 OFFCURVE",
"561 -12 CURVE",
"563 -12 OFFCURVE",
"566 -13 OFFCURVE",
"568 -13 CURVE SMOOTH",
"578 -13 OFFCURVE",
"584 2 OFFCURVE",
"584 10 CURVE SMOOTH",
"584 61 OFFCURVE",
"469 55 OFFCURVE",
"433 54 CURVE SMOOTH",
"398 54 OFFCURVE",
"363 51 OFFCURVE",
"328 47 CURVE",
"367 196 OFFCURVE",
"512 384 OFFCURVE",
"618 493 CURVE",
"678 493 OFFCURVE",
"746 488 OFFCURVE",
"822 478 CURVE SMOOTH",
"831 477 OFFCURVE",
"842 481 OFFCURVE",
"842 492 CURVE SMOOTH",
"842 518 OFFCURVE",
"678 524 OFFCURVE",
"650 525 CURVE"
);
},
{
closed = 1;
nodes = (
"618 605 OFFCURVE",
"674 616 OFFCURVE",
"731 616 CURVE SMOOTH",
"740 616 OFFCURVE",
"784 616 OFFCURVE",
"784 631 CURVE SMOOTH",
"784 652 OFFCURVE",
"650 655 OFFCURVE",
"630 655 CURVE SMOOTH",
"609 655 OFFCURVE",
"524 648 OFFCURVE",
"524 618 CURVE SMOOTH",
"524 604 OFFCURVE",
"552 605 OFFCURVE",
"561 605 CURVE SMOOTH"
);
}
);
width = 566;
}
);
leftKerningGroup = Iacute;
note = Imacron;
rightKerningGroup = Iacute;
unicode = 012A;
},
{
color = 6;
glyphname = Iogonek;
lastChange = "2021-04-21 04:42:22 +0000";
layers = (
{
hints = (
{
horizontal = 1;
place = "{-247, 45}";
type = Stem;
},
{
horizontal = 1;
place = "{-46, 33}";
type = Stem;
},
{
horizontal = 1;
place = "{7, 52}";
type = Stem;
},
{
horizontal = 1;
place = "{547, -20}";
target = down;
type = TopGhost;
},
{
place = "{110, 62}";
type = Stem;
},
{
place = "{190, 64}";
type = Stem;
},
{
place = "{127, 54}";
type = Stem;
},
{
horizontal = 1;
place = "{-226, 41}";
type = Stem;
}
);
layerId = "AFE3E0A9-A514-4B93-8E4E-B7D18C88F31C";
paths = (
{
closed = 1;
nodes = (
"314 3 LINE",
"345 5 OFFCURVE",
"385 7 OFFCURVE",
"403 7 CURVE SMOOTH",
"412 7 LINE SMOOTH",
"463 7 OFFCURVE",
"513 3 OFFCURVE",
"561 -12 CURVE",
"563 -12 OFFCURVE",
"566 -13 OFFCURVE",
"568 -13 CURVE SMOOTH",
"578 -13 OFFCURVE",
"584 2 OFFCURVE",
"584 10 CURVE SMOOTH",
"584 61 OFFCURVE",
"469 55 OFFCURVE",
"433 54 CURVE SMOOTH",
"398 54 OFFCURVE",
"363 51 OFFCURVE",
"328 47 CURVE",
"367 196 OFFCURVE",
"512 384 OFFCURVE",
"618 493 CURVE",
"678 493 OFFCURVE",
"746 488 OFFCURVE",
"822 478 CURVE SMOOTH",
"831 477 OFFCURVE",
"842 481 OFFCURVE",
"842 492 CURVE SMOOTH",
"842 518 OFFCURVE",
"678 524 OFFCURVE",
"650 525 CURVE",
"655 535 LINE",
"655 547 OFFCURVE",
"638 547 OFFCURVE",
"630 547 CURVE SMOOTH",
"609 547 OFFCURVE",
"583 546 OFFCURVE",
"566 530 CURVE",
"507 533 OFFCURVE",
"188 541 OFFCURVE",
"190 456 CURVE SMOOTH",
"191 408 OFFCURVE",
"279 386 OFFCURVE",
"304 382 CURVE SMOOTH",
"333 377 OFFCURVE",
"350 388 OFFCURVE",
"324 396 CURVE SMOOTH",
"263 415 OFFCURVE",
"244 429 OFFCURVE",
"244 449 CURVE SMOOTH",
"244 491 OFFCURVE",
"489 494 OFFCURVE",
"526 494 CURVE SMOOTH",
"533 494 LINE",
"448 395 OFFCURVE",
"301 167 OFFCURVE",
"279 41 CURVE",
"239 35 OFFCURVE",
"-1 0 OFFCURVE",
"-1 -30 CURVE SMOOTH",
"-1 -43 OFFCURVE",
"9 -39 OFFCURVE",
"21 -37 CURVE SMOOTH",
"113 -18 OFFCURVE",
"193 -9 OFFCURVE",
"278 0 CURVE SMOOTH",
"281 0 LINE",
"222 -33 OFFCURVE",
"127 -125 OFFCURVE",
"127 -181 CURVE SMOOTH",
"127 -211 OFFCURVE",
"151 -226 OFFCURVE",
"179 -226 CURVE SMOOTH",
"236 -226 OFFCURVE",
"279 -190 OFFCURVE",
"283 -170 CURVE SMOOTH",
"285 -161 OFFCURVE",
"275 -164 OFFCURVE",
"271 -166 CURVE",
"257 -179 OFFCURVE",
"236 -196 OFFCURVE",
"216 -196 CURVE SMOOTH",
"190 -196 OFFCURVE",
"182 -181 OFFCURVE",
"182 -163 CURVE SMOOTH",
"182 -117 OFFCURVE",
"250 -42 OFFCURVE",
"308 0 CURVE"
);
}
);
width = 566;
}
);
leftKerningGroup = I;
note = Iogonek;
rightKerningGroup = I;
unicode = 012E;
},
{
color = 6;
glyphname = Itilde;
lastChange = "2021-04-21 04:42:22 +0000";
layers = (
{
hints = (
{
horizontal = 1;
place = "{-46, 33}";
type = Stem;
},
{
horizontal = 1;
place = "{493, 37}";
type = Stem;
},
{
horizontal = 1;
place = "{629, 40}";
type = Stem;
},
{
place = "{190, 64}";
type = Stem;
},
{
place = "{490, 288}";
type = Stem;
},
{
horizontal = 1;
place = "{547, -20}";
target = down;
type = TopGhost;
}
);
layerId = "AFE3E0A9-A514-4B93-8E4E-B7D18C88F31C";
paths = (
{
closed = 1;
nodes = (
"383 -20 OFFCURVE",
"364 -25 OFFCURVE",
"343 -23 CURVE SMOOTH",
"326 -21 OFFCURVE",
"318 -6 OFFCURVE",
"316 3 CURVE",
"338 5 OFFCURVE",
"377 5 OFFCURVE",
"399 6 CURVE"
);
},
{
closed = 1;
nodes = (
"655 535 LINE",
"655 547 OFFCURVE",
"638 547 OFFCURVE",
"630 547 CURVE SMOOTH",
"609 547 OFFCURVE",
"583 546 OFFCURVE",
"566 530 CURVE",
"507 533 OFFCURVE",
"188 541 OFFCURVE",
"190 456 CURVE SMOOTH",
"191 408 OFFCURVE",
"279 386 OFFCURVE",
"304 382 CURVE SMOOTH",
"333 377 OFFCURVE",
"350 388 OFFCURVE",
"324 396 CURVE SMOOTH",
"263 415 OFFCURVE",
"244 429 OFFCURVE",
"244 449 CURVE SMOOTH",
"244 491 OFFCURVE",
"489 494 OFFCURVE",
"526 494 CURVE SMOOTH",
"533 494 LINE",
"448 395 OFFCURVE",
"301 167 OFFCURVE",
"279 41 CURVE",
"239 35 OFFCURVE",
"-1 0 OFFCURVE",
"-1 -30 CURVE SMOOTH",
"-1 -43 OFFCURVE",
"9 -39 OFFCURVE",
"21 -37 CURVE SMOOTH",
"113 -18 OFFCURVE",
"193 -9 OFFCURVE",
"278 0 CURVE",
"284 -31 OFFCURVE",
"307 -42 OFFCURVE",
"338 -46 CURVE SMOOTH",
"371 -50 OFFCURVE",
"412 -28 OFFCURVE",
"412 -7 CURVE SMOOTH",
"412 -1 OFFCURVE",
"409 4 OFFCURVE",
"403 7 CURVE",
"412 7 LINE SMOOTH",
"463 7 OFFCURVE",
"513 3 OFFCURVE",
"561 -12 CURVE",
"563 -12 OFFCURVE",
"566 -13 OFFCURVE",
"568 -13 CURVE SMOOTH",
"578 -13 OFFCURVE",
"584 2 OFFCURVE",
"584 10 CURVE SMOOTH",
"584 61 OFFCURVE",
"469 55 OFFCURVE",
"433 54 CURVE SMOOTH",
"398 54 OFFCURVE",
"363 51 OFFCURVE",
"328 47 CURVE",
"367 196 OFFCURVE",
"512 384 OFFCURVE",
"618 493 CURVE",
"678 493 OFFCURVE",
"746 488 OFFCURVE",
"822 478 CURVE SMOOTH",
"831 477 OFFCURVE",
"842 481 OFFCURVE",
"842 492 CURVE SMOOTH",
"842 518 OFFCURVE",
"678 524 OFFCURVE",
"650 525 CURVE"
);
},
{
closed = 1;
nodes = (
"775 659 OFFCURVE",
"773 661 OFFCURVE",
"764 661 CURVE",
"751 646 OFFCURVE",
"734 639 OFFCURVE",
"715 639 CURVE SMOOTH",
"703 639 OFFCURVE",
"685 643 OFFCURVE",
"660 650 CURVE SMOOTH",
"633 656 OFFCURVE",
"614 660 OFFCURVE",
"600 660 CURVE SMOOTH",
"583 660 OFFCURVE",
"566 657 OFFCURVE",
"553 650 CURVE SMOOTH",
"518 632 OFFCURVE",
"500 618 OFFCURVE",
"500 607 CURVE SMOOTH",
"500 605 OFFCURVE",
"500 604 OFFCURVE",
"503 601 CURVE",
"507 601 OFFCURVE",
"518 605 OFFCURVE",
"532 615 CURVE SMOOTH",
"545 623 OFFCURVE",
"558 627 OFFCURVE",
"570 627 CURVE SMOOTH",
"583 627 OFFCURVE",
"603 622 OFFCURVE",
"630 613 CURVE SMOOTH",
"656 604 OFFCURVE",
"677 600 OFFCURVE",
"690 600 CURVE SMOOTH",
"704 600 OFFCURVE",
"716 603 OFFCURVE",
"727 609 CURVE SMOOTH",
"761 627 OFFCURVE",
"775 642 OFFCURVE",
"775 654 CURVE SMOOTH"
);
}
);
width = 566;
}
);
leftKerningGroup = Iacute;
note = Itilde;
rightKerningGroup = Iacute;
unicode = 0128;
},
{
color = 6;
glyphname = J;
lastChange = "2021-04-21 04:42:22 +0000";
layers = (
{
hints = (
{
horizontal = 1;
place = "{-362, 27}";
type = Stem;
},
{
horizontal = 1;
place = "{70, 33}";
type = Stem;
},
{
horizontal = 1;
place = "{137, 34}";
type = Stem;
},
{
horizontal = 1;
place = "{508, 32}";
type = Stem;
},
{
place = "{-132, 53}";
type = Stem;
},
{
place = "{15, 46}";
type = Stem;
},
{
place = "{568, 61}";
type = Stem;
}
);
layerId = "AFE3E0A9-A514-4B93-8E4E-B7D18C88F31C";
paths = (
{
closed = 1;
nodes = (
"657 61 OFFCURVE",
"665 68 OFFCURVE",
"663 77 CURVE SMOOTH",
"660 94 OFFCURVE",
"617 103 OFFCURVE",
"599 103 CURVE SMOOTH",
"585 103 LINE",
"613 180 OFFCURVE",
"635 268 OFFCURVE",
"635 350 CURVE SMOOTH",
"635 471 OFFCURVE",
"577 540 OFFCURVE",
"449 540 CURVE SMOOTH",
"307 540 OFFCURVE",
"15 406 OFFCURVE",
"15 235 CURVE SMOOTH",
"15 166 OFFCURVE",
"80 133 OFFCURVE",
"141 133 CURVE SMOOTH",
"206 133 OFFCURVE",
"308 181 OFFCURVE",
"346 229 CURVE SMOOTH",
"357 243 OFFCURVE",
"346 250 OFFCURVE",
"330 242 CURVE",
"290 210 OFFCURVE",
"209 163 OFFCURVE",
"142 163 CURVE SMOOTH",
"105 163 OFFCURVE",
"61 176 OFFCURVE",
"61 223 CURVE SMOOTH",
"61 359 OFFCURVE",
"296 518 OFFCURVE",
"448 518 CURVE SMOOTH",
"539 518 OFFCURVE",
"574 439 OFFCURVE",
"574 358 CURVE SMOOTH",
"574 280 OFFCURVE",
"549 174 OFFCURVE",
"520 102 CURVE",
"351 77 OFFCURVE",
"-75 -34 OFFCURVE",
"-132 -214 CURVE SMOOTH",
"-167 -325 OFFCURVE",
"-71 -362 OFFCURVE",
"16 -362 CURVE SMOOTH",
"249 -362 OFFCURVE",
"488 -125 OFFCURVE",
"576 75 CURVE",
"601 78 OFFCURVE",
"628 74 OFFCURVE",
"647 61 CURVE"
);
},
{
closed = 1;
nodes = (
"-54 -72 OFFCURVE",
"354 50 OFFCURVE",
"510 72 CURVE",
"440 -96 OFFCURVE",
"254 -334 OFFCURVE",
"19 -341 CURVE SMOOTH",
"-55 -343 OFFCURVE",
"-96 -308 OFFCURVE",
"-86 -252 CURVE SMOOTH"
);
}
);
width = 669;
}
);
note = J;
unicode = 004A;
},
{
color = 6;
glyphname = Jcircumflex;
lastChange = "2021-04-21 04:42:22 +0000";
layers = (
{
hints = (
{
horizontal = 1;
place = "{-362, 27}";
type = Stem;
},
{
horizontal = 1;
place = "{70, 33}";
type = Stem;
},
{
horizontal = 1;
place = "{138, 34}";
type = Stem;
},
{
horizontal = 1;
place = "{508, 32}";
type = Stem;
},
{
place = "{-132, 53}";
type = Stem;
},
{
place = "{15, 46}";
type = Stem;
},
{
place = "{568, 61}";
type = Stem;
}
);
layerId = "AFE3E0A9-A514-4B93-8E4E-B7D18C88F31C";
paths = (
{
closed = 1;
nodes = (
"657 61 OFFCURVE",
"665 68 OFFCURVE",
"663 77 CURVE SMOOTH",
"660 94 OFFCURVE",
"617 103 OFFCURVE",
"599 103 CURVE SMOOTH",
"585 103 LINE",
"613 180 OFFCURVE",
"635 268 OFFCURVE",
"635 350 CURVE SMOOTH",
"635 471 OFFCURVE",
"577 540 OFFCURVE",
"449 540 CURVE SMOOTH",
"307 540 OFFCURVE",
"15 406 OFFCURVE",
"15 235 CURVE SMOOTH",
"15 166 OFFCURVE",
"80 133 OFFCURVE",
"141 133 CURVE SMOOTH",
"206 133 OFFCURVE",
"308 181 OFFCURVE",
"346 229 CURVE SMOOTH",
"357 243 OFFCURVE",
"346 250 OFFCURVE",
"330 242 CURVE",
"290 210 OFFCURVE",
"209 163 OFFCURVE",
"142 163 CURVE SMOOTH",
"105 163 OFFCURVE",
"61 176 OFFCURVE",
"61 223 CURVE SMOOTH",
"61 359 OFFCURVE",
"296 518 OFFCURVE",
"448 518 CURVE SMOOTH",
"539 518 OFFCURVE",
"574 439 OFFCURVE",
"574 358 CURVE SMOOTH",
"574 280 OFFCURVE",
"549 174 OFFCURVE",
"520 102 CURVE",
"351 77 OFFCURVE",
"-75 -34 OFFCURVE",
"-132 -214 CURVE SMOOTH",
"-167 -325 OFFCURVE",
"-71 -362 OFFCURVE",
"16 -362 CURVE SMOOTH",
"249 -362 OFFCURVE",
"488 -125 OFFCURVE",
"576 75 CURVE",
"601 78 OFFCURVE",
"628 74 OFFCURVE",
"647 61 CURVE"
);
},
{
closed = 1;
nodes = (
"-54 -72 OFFCURVE",
"354 50 OFFCURVE",
"510 72 CURVE",
"440 -96 OFFCURVE",
"254 -334 OFFCURVE",
"19 -341 CURVE SMOOTH",
"-55 -343 OFFCURVE",
"-96 -308 OFFCURVE",
"-86 -252 CURVE SMOOTH"
);
},
{
closed = 1;
nodes = (
"633 644 OFFCURVE",
"601 673 OFFCURVE",
"592 688 CURVE SMOOTH",
"579 707 OFFCURVE",
"555 688 OFFCURVE",
"497 656 CURVE SMOOTH",
"450 629 OFFCURVE",
"419 607 OFFCURVE",
"418 602 CURVE",
"415 597 OFFCURVE",
"418 595 OFFCURVE",
"423 595 CURVE SMOOTH",
"430 595 OFFCURVE",
"471 614 OFFCURVE",
"549 658 CURVE",
"556 648 OFFCURVE",
"572 634 OFFCURVE",
"598 617 CURVE SMOOTH",
"600 616 OFFCURVE",
"624 598 OFFCURVE",
"642 592 CURVE",
"659 583 OFFCURVE",
"683 598 OFFCURVE",
"672 611 CURVE"
);
}
);
width = 683;
}
);
note = Jcircumflex;
unicode = 0134;
},
{
color = 6;
glyphname = K;
lastChange = "2021-04-21 04:42:22 +0000";
layers = (
{
hints = (
{
horizontal = 1;
place = "{-74, 32}";
type = Stem;
},
{
horizontal = 1;
place = "{-30, 36}";
type = Stem;
},
{
horizontal = 1;
place = "{507, 38}";
type = Stem;
},
{
place = "{-44, 52}";
type = Stem;
},
{
place = "{576, 66}";
type = Stem;
},
{
place = "{871, 39}";
type = Stem;
}
);
layerId = "AFE3E0A9-A514-4B93-8E4E-B7D18C88F31C";
paths = (
{
closed = 1;
nodes = (
"934 488 OFFCURVE",
"931 498 OFFCURVE",
"919 498 CURVE SMOOTH",
"912 498 OFFCURVE",
"905 490 OFFCURVE",
"903 482 CURVE SMOOTH",
"899 468 OFFCURVE",
"892 457 OFFCURVE",
"888 451 CURVE SMOOTH",
"841 379 OFFCURVE",
"736 314 OFFCURVE",
"575 252 CURVE",
"618 332 OFFCURVE",
"642 408 OFFCURVE",
"642 466 CURVE SMOOTH",
"642 516 OFFCURVE",
"620 542 OFFCURVE",
"573 542 CURVE SMOOTH",
"556 542 OFFCURVE",
"535 539 OFFCURVE",
"512 531 CURVE SMOOTH",
"485 521 OFFCURVE",
"466 510 OFFCURVE",
"466 501 CURVE SMOOTH",
"466 493 OFFCURVE",
"469 489 OFFCURVE",
"479 489 CURVE SMOOTH",
"481 489 OFFCURVE",
"489 493 OFFCURVE",
"506 500 CURVE SMOOTH",
"523 507 OFFCURVE",
"536 511 OFFCURVE",
"547 511 CURVE SMOOTH",
"570 511 OFFCURVE",
"575 491 OFFCURVE",
"575 461 CURVE SMOOTH",
"575 412 OFFCURVE",
"561 364 OFFCURVE",
"522 286 CURVE",
"506 309 OFFCURVE",
"495 329 OFFCURVE",
"480 359 CURVE SMOOTH",
"479 362 OFFCURVE",
"475 366 OFFCURVE",
"470 366 CURVE SMOOTH",
"447 366 OFFCURVE",
"435 327 OFFCURVE",
"435 310 CURVE SMOOTH",
"435 299 OFFCURVE",
"457 267 OFFCURVE",
"494 223 CURVE",
"446 150 OFFCURVE",
"399 98 OFFCURVE",
"341 51 CURVE SMOOTH",
"263 -11 OFFCURVE",
"183 -43 OFFCURVE",
"102 -43 CURVE SMOOTH",
"47 -43 OFFCURVE",
"9 -25 OFFCURVE",
"9 15 CURVE SMOOTH",
"9 46 OFFCURVE",
"19 81 OFFCURVE",
"52 114 CURVE SMOOTH",
"104 168 OFFCURVE",
"194 218 OFFCURVE",
"288 245 CURVE",
"309 249 OFFCURVE",
"309 262 OFFCURVE",
"288 262 CURVE SMOOTH",
"232 262 OFFCURVE",
"157 234 OFFCURVE",
"77 177 CURVE SMOOTH",
"-3 119 OFFCURVE",
"-44 67 OFFCURVE",
"-44 19 CURVE SMOOTH",
"-44 -13 OFFCURVE",
"-27 -38 OFFCURVE",
"4 -54 CURVE SMOOTH",
"29 -66 OFFCURVE",
"63 -75 OFFCURVE",
"102 -75 CURVE SMOOTH",
"188 -75 OFFCURVE",
"275 -51 OFFCURVE",
"362 10 CURVE SMOOTH",
"430 57 OFFCURVE",
"484 116 OFFCURVE",
"533 183 CURVE",
"579 134 OFFCURVE",
"623 94 OFFCURVE",
"670 56 CURVE SMOOTH",
"743 -2 OFFCURVE",
"805 -30 OFFCURVE",
"847 -30 CURVE SMOOTH",
"865 -30 OFFCURVE",
"879 -24 OFFCURVE",
"891 -15 CURVE SMOOTH",
"903 -6 OFFCURVE",
"910 14 OFFCURVE",
"910 29 CURVE SMOOTH",
"910 57 OFFCURVE",
"898 71 OFFCURVE",
"888 71 CURVE SMOOTH",
"880 71 OFFCURVE",
"881 66 OFFCURVE",
"881 58 CURVE SMOOTH",
"881 55 OFFCURVE",
"882 50 OFFCURVE",
"884 43 CURVE",
"884 41 OFFCURVE",
"885 40 OFFCURVE",
"885 39 CURVE SMOOTH",
"886 34 OFFCURVE",
"886 30 OFFCURVE",
"886 27 CURVE SMOOTH",
"886 12 OFFCURVE",
"872 6 OFFCURVE",
"857 6 CURVE SMOOTH",
"822 6 OFFCURVE",
"766 36 OFFCURVE",
"696 96 CURVE SMOOTH",
"644 139 OFFCURVE",
"601 183 OFFCURVE",
"568 222 CURVE",
"809 307 OFFCURVE",
"934 390 OFFCURVE",
"934 476 CURVE SMOOTH"
);
}
);
width = 905;
}
);
note = K;
unicode = 004B;
},
{
color = 6;
glyphname = Kcommaaccent;
lastChange = "2021-04-21 04:42:22 +0000";
layers = (
{
hints = (
{
horizontal = 1;
place = "{-74, 32}";
type = Stem;
},
{
horizontal = 1;
place = "{-30, 36}";
type = Stem;
},
{
horizontal = 1;
place = "{507, 38}";
type = Stem;
},
{
place = "{-44, 52}";
type = Stem;
},
{
place = "{452, 49}";
type = Stem;
},
{
place = "{576, 66}";
type = Stem;
},
{
place = "{871, 39}";
type = Stem;
}
);
layerId = "AFE3E0A9-A514-4B93-8E4E-B7D18C88F31C";
paths = (
{
closed = 1;
nodes = (
"934 488 OFFCURVE",
"931 498 OFFCURVE",
"919 498 CURVE SMOOTH",
"912 498 OFFCURVE",
"905 490 OFFCURVE",
"903 482 CURVE SMOOTH",
"899 468 OFFCURVE",
"892 457 OFFCURVE",
"888 451 CURVE SMOOTH",
"841 379 OFFCURVE",
"736 314 OFFCURVE",
"575 252 CURVE",
"618 332 OFFCURVE",
"642 408 OFFCURVE",
"642 466 CURVE SMOOTH",
"642 516 OFFCURVE",
"620 542 OFFCURVE",
"573 542 CURVE SMOOTH",
"556 542 OFFCURVE",
"535 539 OFFCURVE",
"512 531 CURVE SMOOTH",
"485 521 OFFCURVE",
"466 510 OFFCURVE",
"466 501 CURVE SMOOTH",
"466 493 OFFCURVE",
"469 489 OFFCURVE",
"479 489 CURVE SMOOTH",
"481 489 OFFCURVE",
"489 493 OFFCURVE",
"506 500 CURVE SMOOTH",
"523 507 OFFCURVE",
"536 511 OFFCURVE",
"547 511 CURVE SMOOTH",
"570 511 OFFCURVE",
"575 491 OFFCURVE",
"575 461 CURVE SMOOTH",
"575 412 OFFCURVE",
"561 364 OFFCURVE",
"522 286 CURVE",
"506 309 OFFCURVE",
"495 329 OFFCURVE",
"480 359 CURVE SMOOTH",
"479 362 OFFCURVE",
"475 366 OFFCURVE",
"470 366 CURVE SMOOTH",
"447 366 OFFCURVE",
"435 327 OFFCURVE",
"435 310 CURVE SMOOTH",
"435 299 OFFCURVE",
"457 267 OFFCURVE",
"494 223 CURVE",
"446 150 OFFCURVE",
"399 98 OFFCURVE",
"341 51 CURVE SMOOTH",
"263 -11 OFFCURVE",
"183 -43 OFFCURVE",
"102 -43 CURVE SMOOTH",
"47 -43 OFFCURVE",
"9 -25 OFFCURVE",
"9 15 CURVE SMOOTH",
"9 46 OFFCURVE",
"19 81 OFFCURVE",
"52 114 CURVE SMOOTH",
"104 168 OFFCURVE",
"194 218 OFFCURVE",
"288 245 CURVE",
"309 249 OFFCURVE",
"309 262 OFFCURVE",
"288 262 CURVE SMOOTH",
"232 262 OFFCURVE",
"157 234 OFFCURVE",
"77 177 CURVE SMOOTH",
"-3 119 OFFCURVE",
"-44 67 OFFCURVE",
"-44 19 CURVE SMOOTH",
"-44 -13 OFFCURVE",
"-27 -38 OFFCURVE",
"4 -54 CURVE SMOOTH",
"29 -66 OFFCURVE",
"63 -75 OFFCURVE",
"102 -75 CURVE SMOOTH",
"188 -75 OFFCURVE",
"275 -51 OFFCURVE",
"362 10 CURVE SMOOTH",
"430 57 OFFCURVE",
"484 116 OFFCURVE",
"533 183 CURVE",
"579 134 OFFCURVE",
"623 94 OFFCURVE",
"670 56 CURVE SMOOTH",
"743 -2 OFFCURVE",
"805 -30 OFFCURVE",
"847 -30 CURVE SMOOTH",
"865 -30 OFFCURVE",
"879 -24 OFFCURVE",
"891 -15 CURVE SMOOTH",
"903 -6 OFFCURVE",
"910 14 OFFCURVE",
"910 29 CURVE SMOOTH",
"910 57 OFFCURVE",
"898 71 OFFCURVE",
"888 71 CURVE SMOOTH",
"880 71 OFFCURVE",
"881 66 OFFCURVE",
"881 58 CURVE SMOOTH",
"881 55 OFFCURVE",
"882 50 OFFCURVE",
"884 43 CURVE",
"884 41 OFFCURVE",
"885 40 OFFCURVE",
"885 39 CURVE SMOOTH",
"886 34 OFFCURVE",
"886 30 OFFCURVE",
"886 27 CURVE SMOOTH",
"886 12 OFFCURVE",
"872 6 OFFCURVE",
"857 6 CURVE SMOOTH",
"822 6 OFFCURVE",
"766 36 OFFCURVE",
"696 96 CURVE SMOOTH",
"644 139 OFFCURVE",
"601 183 OFFCURVE",
"568 222 CURVE",
"809 307 OFFCURVE",
"934 390 OFFCURVE",
"934 476 CURVE SMOOTH"
);
},
{
closed = 1;
nodes = (
"436 -80 OFFCURVE",
"450 -64 OFFCURVE",
"470 -64 CURVE SMOOTH",
"487 -64 OFFCURVE",
"496 -74 OFFCURVE",
"496 -87 CURVE SMOOTH",
"496 -102 OFFCURVE",
"487 -119 OFFCURVE",
"461 -145 CURVE SMOOTH",
"443 -163 OFFCURVE",
"425 -176 OFFCURVE",
"415 -182 CURVE",
"403 -185 OFFCURVE",
"391 -180 OFFCURVE",
"408 -171 CURVE",
"409 -170 OFFCURVE",
"445 -141 OFFCURVE",
"453 -114 CURVE",
"442 -110 OFFCURVE",
"436 -103 OFFCURVE",
"436 -95 CURVE SMOOTH"
);
}
);
width = 905;
}
);
note = Kcommaaccent;
unicode = 0136;
},
{
color = 6;
glyphname = L;
lastChange = "2021-04-21 04:42:22 +0000";
layers = (
{
hints = (
{
horizontal = 1;
place = "{-37, 38}";
type = Stem;
},
{
horizontal = 1;
place = "{152, 48}";
type = Stem;
},
{
horizontal = 1;
place = "{221, 38}";
type = Stem;
},
{
horizontal = 1;
place = "{517, 41}";
type = Stem;
},
{
place = "{6, 43}";
type = Stem;
},
{
place = "{208, 50}";
type = Stem;
},
{
place = "{289, 92}";
type = Stem;
},
{
place = "{786, 42}";
type = Stem;
}
);
layerId = "AFE3E0A9-A514-4B93-8E4E-B7D18C88F31C";
paths = (
{
closed = 1;
nodes = (
"823 50 OFFCURVE",
"807 74 OFFCURVE",
"780 90 CURVE",
"772 93 OFFCURVE",
"768 95 OFFCURVE",
"764 95 CURVE SMOOTH",
"755 95 OFFCURVE",
"750 91 OFFCURVE",
"750 84 CURVE SMOOTH",
"750 80 OFFCURVE",
"766 70 OFFCURVE",
"778 61 CURVE",
"813 24 OFFCURVE",
"775 -13 OFFCURVE",
"737 -24 CURVE SMOOTH",
"707 -32 OFFCURVE",
"666 -33 OFFCURVE",
"626 -33 CURVE SMOOTH",
"568 -33 OFFCURVE",
"434 -9 OFFCURVE",
"377 25 CURVE",
"405 48 OFFCURVE",
"432 84 OFFCURVE",
"460 130 CURVE SMOOTH",
"475 156 OFFCURVE",
"495 198 OFFCURVE",
"518 249 CURVE",
"590 279 LINE SMOOTH",
"641 302 OFFCURVE",
"703 338 OFFCURVE",
"743 372 CURVE SMOOTH",
"794 417 OFFCURVE",
"819 462 OFFCURVE",
"819 500 CURVE SMOOTH",
"819 537 OFFCURVE",
"785 560 OFFCURVE",
"731 560 CURVE SMOOTH",
"691 560 OFFCURVE",
"652 543 OFFCURVE",
"606 500 CURVE SMOOTH",
"576 472 OFFCURVE",
"549 427 OFFCURVE",
"525 386 CURVE SMOOTH",
"511 361 OFFCURVE",
"490 323 OFFCURVE",
"469 271 CURVE",
"429 260 OFFCURVE",
"394 256 OFFCURVE",
"360 256 CURVE SMOOTH",
"288 256 OFFCURVE",
"253 271 OFFCURVE",
"253 301 CURVE SMOOTH",
"253 331 OFFCURVE",
"298 365 OFFCURVE",
"396 392 CURVE SMOOTH",
"410 396 OFFCURVE",
"424 398 OFFCURVE",
"433 400 CURVE SMOOTH",
"442 402 LINE SMOOTH",
"463 406 OFFCURVE",
"466 420 OFFCURVE",
"444 420 CURVE SMOOTH",
"406 420 OFFCURVE",
"358 408 OFFCURVE",
"304 384 CURVE SMOOTH",
"249 357 OFFCURVE",
"210 327 OFFCURVE",
"210 299 CURVE SMOOTH",
"210 273 OFFCURVE",
"229 246 OFFCURVE",
"260 233 CURVE",
"285 225 OFFCURVE",
"318 221 OFFCURVE",
"356 221 CURVE SMOOTH",
"388 221 OFFCURVE",
"416 225 OFFCURVE",
"453 232 CURVE",
"413 141 OFFCURVE",
"381 81 OFFCURVE",
"341 40 CURVE",
"333 45 OFFCURVE",
"293 76 OFFCURVE",
"221 125 CURVE SMOOTH",
"157 169 OFFCURVE",
"110 198 OFFCURVE",
"84 198 CURVE SMOOTH",
"15 198 OFFCURVE",
"5 134 OFFCURVE",
"5 107 CURVE SMOOTH",
"5 66 OFFCURVE",
"25 32 OFFCURVE",
"64 3 CURVE SMOOTH",
"103 -25 OFFCURVE",
"148 -39 OFFCURVE",
"200 -39 CURVE SMOOTH",
"242 -39 OFFCURVE",
"295 -26 OFFCURVE",
"342 -2 CURVE",
"452 -59 OFFCURVE",
"558 -80 OFFCURVE",
"641 -80 CURVE SMOOTH",
"723 -80 OFFCURVE",
"836 -57 OFFCURVE",
"826 27 CURVE SMOOTH"
);
},
{
closed = 1;
nodes = (
"310 19 LINE",
"282 6 OFFCURVE",
"229 -3 OFFCURVE",
"197 -3 CURVE SMOOTH",
"161 -3 OFFCURVE",
"125 11 OFFCURVE",
"96 34 CURVE SMOOTH",
"67 56 OFFCURVE",
"50 87 OFFCURVE",
"50 116 CURVE SMOOTH",
"50 140 OFFCURVE",
"57 151 OFFCURVE",
"73 152 CURVE SMOOTH",
"90 153 OFFCURVE",
"113 144 OFFCURVE",
"173 104 CURVE SMOOTH"
);
},
{
closed = 1;
nodes = (
"773 480 OFFCURVE",
"743 430 OFFCURVE",
"690 384 CURVE SMOOTH",
"635 340 OFFCURVE",
"582 314 OFFCURVE",
"546 301 CURVE",
"605 423 OFFCURVE",
"670 496 OFFCURVE",
"738 515 CURVE SMOOTH",
"745 517 OFFCURVE",
"750 518 OFFCURVE",
"755 518 CURVE SMOOTH",
"766 518 OFFCURVE",
"773 512 OFFCURVE",
"773 503 CURVE SMOOTH"
);
}
);
width = 833;
}
);
note = L;
unicode = 004C;
},
{
color = 6;
glyphname = Lacute;
lastChange = "2021-04-21 04:42:22 +0000";
layers = (
{
hints = (
{
horizontal = 1;
place = "{-37, 38}";
type = Stem;
},
{
horizontal = 1;
place = "{152, 48}";
type = Stem;
},
{
horizontal = 1;
place = "{221, 38}";
type = Stem;
},
{
horizontal = 1;
place = "{517, 41}";
type = Stem;
},
{
place = "{6, 43}";
type = Stem;
},
{
place = "{208, 50}";
type = Stem;
},
{
place = "{289, 92}";
type = Stem;
},
{
place = "{786, 42}";
type = Stem;
}
);
layerId = "AFE3E0A9-A514-4B93-8E4E-B7D18C88F31C";
paths = (
{
closed = 1;
nodes = (
"823 50 OFFCURVE",
"807 74 OFFCURVE",
"780 90 CURVE",
"772 93 OFFCURVE",
"768 95 OFFCURVE",
"764 95 CURVE SMOOTH",
"755 95 OFFCURVE",
"750 91 OFFCURVE",
"750 84 CURVE SMOOTH",
"750 80 OFFCURVE",
"766 70 OFFCURVE",
"778 61 CURVE",
"813 24 OFFCURVE",
"775 -13 OFFCURVE",
"737 -24 CURVE SMOOTH",
"707 -32 OFFCURVE",
"666 -33 OFFCURVE",
"626 -33 CURVE SMOOTH",
"568 -33 OFFCURVE",
"434 -9 OFFCURVE",
"377 25 CURVE",
"405 48 OFFCURVE",
"432 84 OFFCURVE",
"460 130 CURVE SMOOTH",
"475 156 OFFCURVE",
"495 198 OFFCURVE",
"518 249 CURVE",
"590 279 LINE SMOOTH",
"641 302 OFFCURVE",
"703 338 OFFCURVE",
"743 372 CURVE SMOOTH",
"794 417 OFFCURVE",
"819 462 OFFCURVE",
"819 500 CURVE SMOOTH",
"819 537 OFFCURVE",
"785 560 OFFCURVE",
"731 560 CURVE SMOOTH",
"691 560 OFFCURVE",
"652 543 OFFCURVE",
"606 500 CURVE SMOOTH",
"576 472 OFFCURVE",
"549 427 OFFCURVE",
"525 386 CURVE SMOOTH",
"511 361 OFFCURVE",
"490 323 OFFCURVE",
"469 271 CURVE",
"429 260 OFFCURVE",
"394 256 OFFCURVE",
"360 256 CURVE SMOOTH",
"288 256 OFFCURVE",
"253 271 OFFCURVE",
"253 301 CURVE SMOOTH",
"253 331 OFFCURVE",
"298 365 OFFCURVE",
"396 392 CURVE SMOOTH",
"410 396 OFFCURVE",
"424 398 OFFCURVE",
"433 400 CURVE SMOOTH",
"442 402 LINE SMOOTH",
"463 406 OFFCURVE",
"466 420 OFFCURVE",
"444 420 CURVE SMOOTH",
"406 420 OFFCURVE",
"358 408 OFFCURVE",
"304 384 CURVE SMOOTH",
"249 357 OFFCURVE",
"210 327 OFFCURVE",
"210 299 CURVE SMOOTH",
"210 273 OFFCURVE",
"229 246 OFFCURVE",
"260 233 CURVE",
"285 225 OFFCURVE",
"318 221 OFFCURVE",
"356 221 CURVE SMOOTH",
"388 221 OFFCURVE",
"416 225 OFFCURVE",
"453 232 CURVE",
"413 141 OFFCURVE",
"381 81 OFFCURVE",
"341 40 CURVE",
"333 45 OFFCURVE",
"293 76 OFFCURVE",
"221 125 CURVE SMOOTH",
"157 169 OFFCURVE",
"110 198 OFFCURVE",
"84 198 CURVE SMOOTH",
"15 198 OFFCURVE",
"5 134 OFFCURVE",
"5 107 CURVE SMOOTH",
"5 66 OFFCURVE",
"25 32 OFFCURVE",
"64 3 CURVE SMOOTH",
"103 -25 OFFCURVE",
"148 -39 OFFCURVE",
"200 -39 CURVE SMOOTH",
"242 -39 OFFCURVE",
"295 -26 OFFCURVE",
"342 -2 CURVE",
"452 -59 OFFCURVE",
"558 -80 OFFCURVE",
"641 -80 CURVE SMOOTH",
"723 -80 OFFCURVE",
"836 -57 OFFCURVE",
"826 27 CURVE SMOOTH"
);
},
{
closed = 1;
nodes = (
"310 19 LINE",
"282 6 OFFCURVE",
"229 -3 OFFCURVE",
"197 -3 CURVE SMOOTH",
"161 -3 OFFCURVE",
"125 11 OFFCURVE",
"96 34 CURVE SMOOTH",
"67 56 OFFCURVE",
"50 87 OFFCURVE",
"50 116 CURVE SMOOTH",
"50 140 OFFCURVE",
"57 151 OFFCURVE",
"73 152 CURVE SMOOTH",
"90 153 OFFCURVE",
"113 144 OFFCURVE",
"173 104 CURVE SMOOTH"
);
},
{
closed = 1;
nodes = (
"773 480 OFFCURVE",
"743 430 OFFCURVE",
"690 384 CURVE SMOOTH",
"635 340 OFFCURVE",
"582 314 OFFCURVE",
"546 301 CURVE",
"605 423 OFFCURVE",
"670 496 OFFCURVE",
"738 515 CURVE SMOOTH",
"745 517 OFFCURVE",
"750 518 OFFCURVE",
"755 518 CURVE SMOOTH",
"766 518 OFFCURVE",
"773 512 OFFCURVE",
"773 503 CURVE SMOOTH"
);
},
{
closed = 1;
nodes = (
"785 595 OFFCURVE",
"886 645 OFFCURVE",
"901 654 CURVE SMOOTH",
"909 658 OFFCURVE",
"914 667 OFFCURVE",
"914 676 CURVE SMOOTH",
"914 685 OFFCURVE",
"908 692 OFFCURVE",
"898 692 CURVE SMOOTH",
"880 692 OFFCURVE",
"774 620 OFFCURVE",
"768 616 CURVE SMOOTH",
"765 614 OFFCURVE",
"761 610 OFFCURVE",
"761 606 CURVE SMOOTH",
"761 599 OFFCURVE",
"768 595 OFFCURVE",
"774 595 CURVE SMOOTH"
);
}
);
width = 833;
}
);
note = Lacute;
unicode = 0139;
},
{
color = 6;
glyphname = Lcaron;
lastChange = "2021-04-21 04:42:22 +0000";
layers = (
{
hints = (
{
horizontal = 1;
place = "{-37, 38}";
type = Stem;
},
{
horizontal = 1;
place = "{152, 48}";
type = Stem;
},
{
horizontal = 1;
place = "{221, 38}";
type = Stem;
},
{
horizontal = 1;
place = "{517, 41}";
type = Stem;
},
{
place = "{6, 43}";
type = Stem;
},
{
place = "{208, 50}";
type = Stem;
},
{
place = "{289, 92}";
type = Stem;
},
{
place = "{786, 42}";
type = Stem;
},
{
place = "{826, 49}";
type = Stem;
}
);
layerId = "AFE3E0A9-A514-4B93-8E4E-B7D18C88F31C";
paths = (
{
closed = 1;
nodes = (
"823 50 OFFCURVE",
"807 74 OFFCURVE",
"780 90 CURVE",
"772 93 OFFCURVE",
"768 95 OFFCURVE",
"764 95 CURVE SMOOTH",
"755 95 OFFCURVE",
"750 91 OFFCURVE",
"750 84 CURVE SMOOTH",
"750 80 OFFCURVE",
"766 70 OFFCURVE",
"778 61 CURVE",
"813 24 OFFCURVE",
"775 -13 OFFCURVE",
"737 -24 CURVE SMOOTH",
"707 -32 OFFCURVE",
"666 -33 OFFCURVE",
"626 -33 CURVE SMOOTH",
"568 -33 OFFCURVE",
"434 -9 OFFCURVE",
"377 25 CURVE",
"405 48 OFFCURVE",
"432 84 OFFCURVE",
"460 130 CURVE SMOOTH",
"475 156 OFFCURVE",
"495 198 OFFCURVE",
"518 249 CURVE",
"590 279 LINE SMOOTH",
"641 302 OFFCURVE",
"703 338 OFFCURVE",
"743 372 CURVE SMOOTH",
"794 417 OFFCURVE",
"819 462 OFFCURVE",
"819 500 CURVE SMOOTH",
"819 537 OFFCURVE",
"785 560 OFFCURVE",
"731 560 CURVE SMOOTH",
"691 560 OFFCURVE",
"652 543 OFFCURVE",
"606 500 CURVE SMOOTH",
"576 472 OFFCURVE",
"549 427 OFFCURVE",
"525 386 CURVE SMOOTH",
"511 361 OFFCURVE",
"490 323 OFFCURVE",
"469 271 CURVE",
"429 260 OFFCURVE",
"394 256 OFFCURVE",
"360 256 CURVE SMOOTH",
"288 256 OFFCURVE",
"253 271 OFFCURVE",
"253 301 CURVE SMOOTH",
"253 331 OFFCURVE",
"298 365 OFFCURVE",
"396 392 CURVE SMOOTH",
"410 396 OFFCURVE",
"424 398 OFFCURVE",
"433 400 CURVE SMOOTH",
"442 402 LINE SMOOTH",
"463 406 OFFCURVE",
"466 420 OFFCURVE",
"444 420 CURVE SMOOTH",
"406 420 OFFCURVE",
"358 408 OFFCURVE",
"304 384 CURVE SMOOTH",
"249 357 OFFCURVE",
"210 327 OFFCURVE",
"210 299 CURVE SMOOTH",
"210 273 OFFCURVE",
"229 246 OFFCURVE",
"260 233 CURVE",
"285 225 OFFCURVE",
"318 221 OFFCURVE",
"356 221 CURVE SMOOTH",
"388 221 OFFCURVE",
"416 225 OFFCURVE",
"453 232 CURVE",
"413 141 OFFCURVE",
"381 81 OFFCURVE",
"341 40 CURVE",
"333 45 OFFCURVE",
"293 76 OFFCURVE",
"221 125 CURVE SMOOTH",
"157 169 OFFCURVE",
"110 198 OFFCURVE",
"84 198 CURVE SMOOTH",
"15 198 OFFCURVE",
"5 134 OFFCURVE",
"5 107 CURVE SMOOTH",
"5 66 OFFCURVE",
"25 32 OFFCURVE",
"64 3 CURVE SMOOTH",
"103 -25 OFFCURVE",
"148 -39 OFFCURVE",
"200 -39 CURVE SMOOTH",
"242 -39 OFFCURVE",
"295 -26 OFFCURVE",
"342 -2 CURVE",
"452 -59 OFFCURVE",
"558 -80 OFFCURVE",
"641 -80 CURVE SMOOTH",
"723 -80 OFFCURVE",
"836 -57 OFFCURVE",
"826 27 CURVE SMOOTH"
);
},
{
closed = 1;
nodes = (
"310 19 LINE",
"282 6 OFFCURVE",
"229 -3 OFFCURVE",
"197 -3 CURVE SMOOTH",
"161 -3 OFFCURVE",
"125 11 OFFCURVE",
"96 34 CURVE SMOOTH",
"67 56 OFFCURVE",
"50 87 OFFCURVE",
"50 116 CURVE SMOOTH",
"50 140 OFFCURVE",
"57 151 OFFCURVE",
"73 152 CURVE SMOOTH",
"90 153 OFFCURVE",
"113 144 OFFCURVE",
"173 104 CURVE SMOOTH"
);
},
{
closed = 1;
nodes = (
"773 480 OFFCURVE",
"743 430 OFFCURVE",
"690 384 CURVE SMOOTH",
"635 340 OFFCURVE",
"582 314 OFFCURVE",
"546 301 CURVE",
"605 423 OFFCURVE",
"670 496 OFFCURVE",
"738 515 CURVE SMOOTH",
"745 517 OFFCURVE",
"750 518 OFFCURVE",
"755 518 CURVE SMOOTH",
"766 518 OFFCURVE",
"773 512 OFFCURVE",
"773 503 CURVE SMOOTH"
);
},
{
closed = 1;
nodes = (
"814 691 OFFCURVE",
"820 684 OFFCURVE",
"831 680 CURVE",
"823 653 OFFCURVE",
"787 624 OFFCURVE",
"786 623 CURVE",
"769 614 OFFCURVE",
"781 609 OFFCURVE",
"793 612 CURVE",
"803 618 OFFCURVE",
"821 631 OFFCURVE",
"839 649 CURVE SMOOTH",
"865 675 OFFCURVE",
"874 692 OFFCURVE",
"874 707 CURVE SMOOTH",
"874 720 OFFCURVE",
"865 730 OFFCURVE",
"848 730 CURVE SMOOTH",
"828 730 OFFCURVE",
"814 714 OFFCURVE",
"814 699 CURVE SMOOTH"
);
}
);
width = 833;
}
);
note = Lcaron;
unicode = 013D;
},
{
color = 6;
glyphname = Lcommaaccent;
lastChange = "2021-04-21 04:42:22 +0000";
layers = (
{
hints = (
{
horizontal = 1;
place = "{-37, 38}";
type = Stem;
},
{
horizontal = 1;
place = "{152, 48}";
type = Stem;
},
{
horizontal = 1;
place = "{220, 38}";
type = Stem;
},
{
horizontal = 1;
place = "{517, 41}";
type = Stem;
},
{
place = "{6, 43}";
type = Stem;
},
{
place = "{208, 50}";
type = Stem;
},
{
place = "{353, 63}";
type = Stem;
},
{
place = "{772, 47}";
type = Stem;
},
{
horizontal = 1;
place = "{221, 38}";
type = Stem;
},
{
place = "{289, 92}";
type = Stem;
},
{
place = "{786, 42}";
type = Stem;
}
);
layerId = "AFE3E0A9-A514-4B93-8E4E-B7D18C88F31C";
paths = (
{
closed = 1;
nodes = (
"823 50 OFFCURVE",
"807 74 OFFCURVE",
"780 90 CURVE",
"772 93 OFFCURVE",
"768 95 OFFCURVE",
"764 95 CURVE SMOOTH",
"755 95 OFFCURVE",
"750 91 OFFCURVE",
"750 84 CURVE SMOOTH",
"750 80 OFFCURVE",
"766 70 OFFCURVE",
"778 61 CURVE",
"813 24 OFFCURVE",
"775 -13 OFFCURVE",
"737 -24 CURVE SMOOTH",
"707 -32 OFFCURVE",
"666 -33 OFFCURVE",
"626 -33 CURVE SMOOTH",
"568 -33 OFFCURVE",
"434 -9 OFFCURVE",
"377 25 CURVE",
"405 48 OFFCURVE",
"432 84 OFFCURVE",
"460 130 CURVE SMOOTH",
"475 156 OFFCURVE",
"495 198 OFFCURVE",
"518 249 CURVE",
"590 279 LINE SMOOTH",
"641 302 OFFCURVE",
"703 338 OFFCURVE",
"743 372 CURVE SMOOTH",
"794 417 OFFCURVE",
"819 462 OFFCURVE",
"819 500 CURVE SMOOTH",
"819 537 OFFCURVE",
"785 560 OFFCURVE",
"731 560 CURVE SMOOTH",
"691 560 OFFCURVE",
"652 543 OFFCURVE",
"606 500 CURVE SMOOTH",
"576 472 OFFCURVE",
"549 427 OFFCURVE",
"525 386 CURVE SMOOTH",
"511 361 OFFCURVE",
"490 323 OFFCURVE",
"469 271 CURVE",
"429 260 OFFCURVE",
"394 256 OFFCURVE",
"360 256 CURVE SMOOTH",
"288 256 OFFCURVE",
"253 271 OFFCURVE",
"253 301 CURVE SMOOTH",
"253 331 OFFCURVE",
"298 365 OFFCURVE",
"396 392 CURVE SMOOTH",
"410 396 OFFCURVE",
"424 398 OFFCURVE",
"433 400 CURVE SMOOTH",
"442 402 LINE SMOOTH",
"463 406 OFFCURVE",
"466 420 OFFCURVE",
"444 420 CURVE SMOOTH",
"406 420 OFFCURVE",
"358 408 OFFCURVE",
"304 384 CURVE SMOOTH",
"249 357 OFFCURVE",
"210 327 OFFCURVE",
"210 299 CURVE SMOOTH",
"210 273 OFFCURVE",
"229 246 OFFCURVE",
"260 233 CURVE",
"285 225 OFFCURVE",
"318 221 OFFCURVE",
"356 221 CURVE SMOOTH",
"388 221 OFFCURVE",
"416 225 OFFCURVE",
"453 232 CURVE",
"413 141 OFFCURVE",
"381 81 OFFCURVE",
"341 40 CURVE",
"333 45 OFFCURVE",
"293 76 OFFCURVE",
"221 125 CURVE SMOOTH",
"157 169 OFFCURVE",
"110 198 OFFCURVE",
"84 198 CURVE SMOOTH",
"15 198 OFFCURVE",
"5 134 OFFCURVE",
"5 107 CURVE SMOOTH",
"5 66 OFFCURVE",
"25 32 OFFCURVE",
"64 3 CURVE SMOOTH",
"103 -25 OFFCURVE",
"148 -39 OFFCURVE",
"200 -39 CURVE SMOOTH",
"242 -39 OFFCURVE",
"295 -26 OFFCURVE",
"342 -2 CURVE",
"452 -59 OFFCURVE",
"558 -80 OFFCURVE",
"641 -80 CURVE SMOOTH",
"723 -80 OFFCURVE",
"836 -57 OFFCURVE",
"826 27 CURVE SMOOTH"
);
},
{
closed = 1;
nodes = (
"310 19 LINE",
"282 6 OFFCURVE",
"229 -3 OFFCURVE",
"197 -3 CURVE SMOOTH",
"161 -3 OFFCURVE",
"125 11 OFFCURVE",
"96 34 CURVE SMOOTH",
"67 56 OFFCURVE",
"50 87 OFFCURVE",
"50 116 CURVE SMOOTH",
"50 140 OFFCURVE",
"57 151 OFFCURVE",
"73 152 CURVE SMOOTH",
"90 153 OFFCURVE",
"113 144 OFFCURVE",
"173 104 CURVE SMOOTH"
);
},
{
closed = 1;
nodes = (
"773 480 OFFCURVE",
"743 430 OFFCURVE",
"690 384 CURVE SMOOTH",
"635 340 OFFCURVE",
"582 314 OFFCURVE",
"546 301 CURVE",
"605 423 OFFCURVE",
"670 496 OFFCURVE",
"738 515 CURVE SMOOTH",
"745 517 OFFCURVE",
"750 518 OFFCURVE",
"755 518 CURVE SMOOTH",
"766 518 OFFCURVE",
"773 512 OFFCURVE",
"773 503 CURVE SMOOTH"
);
},
{
closed = 1;
nodes = (
"351 -83 OFFCURVE",
"365 -67 OFFCURVE",
"385 -67 CURVE SMOOTH",
"402 -67 OFFCURVE",
"411 -77 OFFCURVE",
"411 -90 CURVE SMOOTH",
"411 -105 OFFCURVE",
"402 -122 OFFCURVE",
"376 -148 CURVE SMOOTH",
"358 -166 OFFCURVE",
"340 -179 OFFCURVE",
"330 -185 CURVE",
"318 -188 OFFCURVE",
"306 -183 OFFCURVE",
"323 -174 CURVE",
"324 -173 OFFCURVE",
"360 -144 OFFCURVE",
"368 -117 CURVE",
"357 -113 OFFCURVE",
"351 -106 OFFCURVE",
"351 -98 CURVE SMOOTH"
);
}
);
width = 833;
}
);
note = Lcommaaccent;
unicode = 013B;
},
{
color = 6;
glyphname = Ldot;
lastChange = "2021-04-21 04:42:22 +0000";
layers = (
{
hints = (
{
horizontal = 1;
place = "{-37, 38}";
type = Stem;
},
{
horizontal = 1;
place = "{152, 48}";
type = Stem;
},
{
horizontal = 1;
place = "{221, 38}";
type = Stem;
},
{
horizontal = 1;
place = "{517, 41}";
type = Stem;
},
{
place = "{6, 43}";
type = Stem;
},
{
place = "{208, 50}";
type = Stem;
},
{
place = "{289, 92}";
type = Stem;
},
{
place = "{772, 47}";
type = Stem;
},
{
place = "{786, 42}";
type = Stem;
}
);
layerId = "AFE3E0A9-A514-4B93-8E4E-B7D18C88F31C";
paths = (
{
closed = 1;
nodes = (
"823 50 OFFCURVE",
"807 74 OFFCURVE",
"780 90 CURVE",
"772 93 OFFCURVE",
"768 95 OFFCURVE",
"764 95 CURVE SMOOTH",
"755 95 OFFCURVE",
"750 91 OFFCURVE",
"750 84 CURVE SMOOTH",
"750 80 OFFCURVE",
"766 70 OFFCURVE",
"778 61 CURVE",
"813 24 OFFCURVE",
"775 -13 OFFCURVE",
"737 -24 CURVE SMOOTH",
"707 -32 OFFCURVE",
"666 -33 OFFCURVE",
"626 -33 CURVE SMOOTH",
"568 -33 OFFCURVE",
"434 -9 OFFCURVE",
"377 25 CURVE",
"405 48 OFFCURVE",
"432 84 OFFCURVE",
"460 130 CURVE SMOOTH",
"475 156 OFFCURVE",
"495 198 OFFCURVE",
"518 249 CURVE",
"590 279 LINE SMOOTH",
"641 302 OFFCURVE",
"703 338 OFFCURVE",
"743 372 CURVE SMOOTH",
"794 417 OFFCURVE",
"819 462 OFFCURVE",
"819 500 CURVE SMOOTH",
"819 537 OFFCURVE",
"785 560 OFFCURVE",
"731 560 CURVE SMOOTH",
"691 560 OFFCURVE",
"652 543 OFFCURVE",
"606 500 CURVE SMOOTH",
"576 472 OFFCURVE",
"549 427 OFFCURVE",
"525 386 CURVE SMOOTH",
"511 361 OFFCURVE",
"490 323 OFFCURVE",
"469 271 CURVE",
"429 260 OFFCURVE",
"394 256 OFFCURVE",
"360 256 CURVE SMOOTH",
"288 256 OFFCURVE",
"253 271 OFFCURVE",
"253 301 CURVE SMOOTH",
"253 331 OFFCURVE",
"298 365 OFFCURVE",
"396 392 CURVE SMOOTH",
"410 396 OFFCURVE",
"424 398 OFFCURVE",
"433 400 CURVE SMOOTH",
"442 402 LINE SMOOTH",
"463 406 OFFCURVE",
"466 420 OFFCURVE",
"444 420 CURVE SMOOTH",
"406 420 OFFCURVE",
"358 408 OFFCURVE",
"304 384 CURVE SMOOTH",
"249 357 OFFCURVE",
"210 327 OFFCURVE",
"210 299 CURVE SMOOTH",
"210 273 OFFCURVE",
"229 246 OFFCURVE",
"260 233 CURVE",
"285 225 OFFCURVE",
"318 221 OFFCURVE",
"356 221 CURVE SMOOTH",
"388 221 OFFCURVE",
"416 225 OFFCURVE",
"453 232 CURVE",
"413 141 OFFCURVE",
"381 81 OFFCURVE",
"341 40 CURVE",
"333 45 OFFCURVE",
"293 76 OFFCURVE",
"221 125 CURVE SMOOTH",
"157 169 OFFCURVE",
"110 198 OFFCURVE",
"84 198 CURVE SMOOTH",
"15 198 OFFCURVE",
"5 134 OFFCURVE",
"5 107 CURVE SMOOTH",
"5 66 OFFCURVE",
"25 32 OFFCURVE",
"64 3 CURVE SMOOTH",
"103 -25 OFFCURVE",
"148 -39 OFFCURVE",
"200 -39 CURVE SMOOTH",
"242 -39 OFFCURVE",
"295 -26 OFFCURVE",
"342 -2 CURVE",
"452 -59 OFFCURVE",
"558 -80 OFFCURVE",
"641 -80 CURVE SMOOTH",
"723 -80 OFFCURVE",
"836 -57 OFFCURVE",
"826 27 CURVE SMOOTH"
);
},
{
closed = 1;
nodes = (
"310 19 LINE",
"282 6 OFFCURVE",
"229 -3 OFFCURVE",
"197 -3 CURVE SMOOTH",
"161 -3 OFFCURVE",
"125 11 OFFCURVE",
"96 34 CURVE SMOOTH",
"67 56 OFFCURVE",
"50 87 OFFCURVE",
"50 116 CURVE SMOOTH",
"50 140 OFFCURVE",
"57 151 OFFCURVE",
"73 152 CURVE SMOOTH",
"90 153 OFFCURVE",
"113 144 OFFCURVE",
"173 104 CURVE SMOOTH"
);
},
{
closed = 1;
nodes = (
"773 480 OFFCURVE",
"743 430 OFFCURVE",
"690 384 CURVE SMOOTH",
"635 340 OFFCURVE",
"582 314 OFFCURVE",
"546 301 CURVE",
"605 423 OFFCURVE",
"670 496 OFFCURVE",
"738 515 CURVE SMOOTH",
"745 517 OFFCURVE",
"750 518 OFFCURVE",
"755 518 CURVE SMOOTH",
"766 518 OFFCURVE",
"773 512 OFFCURVE",
"773 503 CURVE SMOOTH"
);
},
{
closed = 1;
nodes = (
"725 178 OFFCURVE",
"738 164 OFFCURVE",
"757 164 CURVE SMOOTH",
"776 164 OFFCURVE",
"793 178 OFFCURVE",
"795 196 CURVE SMOOTH",
"798 214 OFFCURVE",
"785 228 OFFCURVE",
"766 228 CURVE SMOOTH",
"746 228 OFFCURVE",
"729 214 OFFCURVE",
"727 196 CURVE SMOOTH"
);
}
);
width = 833;
}
);
note = Ldot;
unicode = 013F;
},
{
color = 6;
glyphname = Lslash;
lastChange = "2021-04-21 04:42:22 +0000";
layers = (
{
hints = (
{
horizontal = 1;
place = "{-37, 38}";
type = Stem;
},
{
horizontal = 1;
place = "{152, 48}";
type = Stem;
},
{
horizontal = 1;
place = "{221, 38}";
type = Stem;
},
{
horizontal = 1;
place = "{517, 41}";
type = Stem;
},
{
place = "{6, 43}";
type = Stem;
},
{
place = "{208, 50}";
type = Stem;
},
{
place = "{786, 42}";
type = Stem;
}
);
layerId = "AFE3E0A9-A514-4B93-8E4E-B7D18C88F31C";
paths = (
{
closed = 1;
nodes = (
"826 50 OFFCURVE",
"810 70 OFFCURVE",
"780 87 CURVE SMOOTH",
"777 89 OFFCURVE",
"774 90 OFFCURVE",
"770 90 CURVE SMOOTH",
"764 90 OFFCURVE",
"760 87 OFFCURVE",
"760 82 CURVE SMOOTH",
"760 79 OFFCURVE",
"767 72 OFFCURVE",
"779 63 CURVE SMOOTH",
"790 54 OFFCURVE",
"797 45 OFFCURVE",
"797 36 CURVE SMOOTH",
"797 11 OFFCURVE",
"777 -3 OFFCURVE",
"735 -14 CURVE SMOOTH",
"704 -22 OFFCURVE",
"669 -26 OFFCURVE",
"629 -26 CURVE SMOOTH",
"593 -26 OFFCURVE",
"547 -21 OFFCURVE",
"495 -10 CURVE SMOOTH",
"442 0 OFFCURVE",
"399 8 OFFCURVE",
"367 22 CURVE",
"396 44 OFFCURVE",
"424 80 OFFCURVE",
"453 129 CURVE SMOOTH",
"460 142 OFFCURVE",
"470 160 OFFCURVE",
"480 181 CURVE",
"538 199 OFFCURVE",
"598 214 OFFCURVE",
"656 225 CURVE SMOOTH",
"661 226 OFFCURVE",
"672 245 OFFCURVE",
"665 244 CURVE SMOOTH",
"612 234 OFFCURVE",
"554 221 OFFCURVE",
"491 204 CURVE",
"499 218 OFFCURVE",
"505 233 OFFCURVE",
"513 250 CURVE",
"589 281 LINE SMOOTH",
"643 305 OFFCURVE",
"693 329 OFFCURVE",
"736 365 CURVE SMOOTH",
"791 411 OFFCURVE",
"817 460 OFFCURVE",
"817 498 CURVE SMOOTH",
"817 534 OFFCURVE",
"790 552 OFFCURVE",
"738 552 CURVE SMOOTH",
"699 552 OFFCURVE",
"660 541 OFFCURVE",
"615 499 CURVE SMOOTH",
"585 471 OFFCURVE",
"554 426 OFFCURVE",
"530 384 CURVE SMOOTH",
"517 359 OFFCURVE",
"503 325 OFFCURVE",
"480 273 CURVE",
"439 262 OFFCURVE",
"399 257 OFFCURVE",
"362 257 CURVE SMOOTH",
"288 257 OFFCURVE",
"247 268 OFFCURVE",
"247 299 CURVE SMOOTH",
"247 332 OFFCURVE",
"297 362 OFFCURVE",
"399 389 CURVE SMOOTH",
"419 394 OFFCURVE",
"435 397 OFFCURVE",
"444 399 CURVE SMOOTH",
"453 401 OFFCURVE",
"458 404 OFFCURVE",
"458 408 CURVE SMOOTH",
"458 414 OFFCURVE",
"453 417 OFFCURVE",
"444 417 CURVE SMOOTH",
"406 417 OFFCURVE",
"360 405 OFFCURVE",
"303 380 CURVE SMOOTH",
"242 353 OFFCURVE",
"205 321 OFFCURVE",
"205 293 CURVE SMOOTH",
"205 268 OFFCURVE",
"221 248 OFFCURVE",
"257 236 CURVE SMOOTH",
"282 227 OFFCURVE",
"314 223 OFFCURVE",
"351 223 CURVE SMOOTH",
"385 223 OFFCURVE",
"420 228 OFFCURVE",
"459 237 CURVE",
"450 218 OFFCURVE",
"448 205 OFFCURVE",
"439 188 CURVE",
"393 174 OFFCURVE",
"347 158 OFFCURVE",
"297 139 CURVE SMOOTH",
"293 138 OFFCURVE",
"293 134 OFFCURVE",
"292 132 CURVE",
"291 127 OFFCURVE",
"284 108 OFFCURVE",
"289 107 CURVE",
"289 107 OFFCURVE",
"292 108 OFFCURVE",
"293 108 CURVE",
"331 127 OFFCURVE",
"377 145 OFFCURVE",
"426 163 CURVE",
"397 107 OFFCURVE",
"367 63 OFFCURVE",
"337 33 CURVE",
"328 38 OFFCURVE",
"284 76 OFFCURVE",
"208 132 CURVE SMOOTH",
"145 178 OFFCURVE",
"102 193 OFFCURVE",
"77 193 CURVE SMOOTH",
"53 193 OFFCURVE",
"36 184 OFFCURVE",
"22 165 CURVE SMOOTH",
"10 150 OFFCURVE",
"5 132 OFFCURVE",
"5 112 CURVE SMOOTH",
"5 72 OFFCURVE",
"25 38 OFFCURVE",
"64 10 CURVE SMOOTH",
"103 -17 OFFCURVE",
"149 -31 OFFCURVE",
"200 -31 CURVE SMOOTH",
"243 -31 OFFCURVE",
"284 -23 OFFCURVE",
"333 2 CURVE",
"447 -53 OFFCURVE",
"541 -65 OFFCURVE",
"624 -65 CURVE SMOOTH",
"671 -65 OFFCURVE",
"712 -60 OFFCURVE",
"748 -46 CURVE SMOOTH",
"795 -29 OFFCURVE",
"826 -4 OFFCURVE",
"826 29 CURVE SMOOTH"
);
},
{
closed = 1;
nodes = (
"291 18 LINE",
"262 3 OFFCURVE",
"231 -5 OFFCURVE",
"197 -5 CURVE SMOOTH",
"160 -5 OFFCURVE",
"127 8 OFFCURVE",
"95 33 CURVE SMOOTH",
"64 58 OFFCURVE",
"49 86 OFFCURVE",
"49 118 CURVE SMOOTH",
"49 145 OFFCURVE",
"57 158 OFFCURVE",
"74 158 CURVE SMOOTH",
"82 158 OFFCURVE",
"116 137 OFFCURVE",
"177 95 CURVE SMOOTH"
);
},
{
closed = 1;
nodes = (
"778 479 OFFCURVE",
"747 440 OFFCURVE",
"686 389 CURVE SMOOTH",
"628 342 OFFCURVE",
"581 312 OFFCURVE",
"545 301 CURVE",
"605 428 OFFCURVE",
"670 501 OFFCURVE",
"739 521 CURVE SMOOTH",
"746 523 OFFCURVE",
"752 524 OFFCURVE",
"758 524 CURVE SMOOTH",
"771 524 OFFCURVE",
"778 517 OFFCURVE",
"778 505 CURVE SMOOTH"
);
}
);
width = 833;
}
);
note = Lslash;
unicode = 0141;
},
{
color = 6;
glyphname = M;
lastChange = "2021-04-21 04:42:22 +0000";
layers = (
{
hints = (
{
horizontal = 1;
place = "{-83, 34}";
type = Stem;
},
{
horizontal = 1;
place = "{203, 35}";
type = Stem;
},
{
horizontal = 1;
place = "{369, 42}";
type = Stem;
},
{
horizontal = 1;
place = "{411, 41}";
type = Stem;
},
{
horizontal = 1;
place = "{527, 35}";
type = Stem;
},
{
place = "{-70, 46}";
type = Stem;
},
{
place = "{639, 72}";
type = Stem;
},
{
place = "{951, 53}";
type = Stem;
},
{
place = "{1159, 58}";
type = Stem;
}
);
layerId = "AFE3E0A9-A514-4B93-8E4E-B7D18C88F31C";
paths = (
{
closed = 1;
nodes = (
"1369 394 OFFCURVE",
"1357 407 OFFCURVE",
"1332 407 CURVE SMOOTH",
"1324 407 OFFCURVE",
"1305 404 OFFCURVE",
"1294 401 CURVE SMOOTH",
"1256 391 OFFCURVE",
"1191 351 OFFCURVE",
"1101 280 CURVE SMOOTH",
"1036 230 OFFCURVE",
"980 172 OFFCURVE",
"926 123 CURVE",
"976 222 OFFCURVE",
"1005 301 OFFCURVE",
"1005 353 CURVE SMOOTH",
"1005 413 OFFCURVE",
"974 446 OFFCURVE",
"925 446 CURVE SMOOTH",
"885 446 OFFCURVE",
"829 416 OFFCURVE",
"761 353 CURVE SMOOTH",
"713 308 OFFCURVE",
"668 261 OFFCURVE",
"622 216 CURVE",
"680 309 OFFCURVE",
"709 385 OFFCURVE",
"709 445 CURVE SMOOTH",
"709 519 OFFCURVE",
"650 556 OFFCURVE",
"531 556 CURVE SMOOTH",
"475 556 OFFCURVE",
"403 548 OFFCURVE",
"329 530 CURVE SMOOTH",
"277 518 OFFCURVE",
"226 502 OFFCURVE",
"176 483 CURVE SMOOTH",
"117 461 OFFCURVE",
"67 435 OFFCURVE",
"23 408 CURVE SMOOTH",
"-40 368 OFFCURVE",
"-70 331 OFFCURVE",
"-70 296 CURVE SMOOTH",
"-70 263 OFFCURVE",
"-47 240 OFFCURVE",
"0 225 CURVE SMOOTH",
"34 214 OFFCURVE",
"75 209 OFFCURVE",
"124 209 CURVE SMOOTH",
"190 209 OFFCURVE",
"241 217 OFFCURVE",
"275 227 CURVE SMOOTH",
"284 230 OFFCURVE",
"287 245 OFFCURVE",
"275 244 CURVE SMOOTH",
"222 239 OFFCURVE",
"170 231 OFFCURVE",
"118 231 CURVE SMOOTH",
"29 231 OFFCURVE",
"-15 250 OFFCURVE",
"-15 287 CURVE SMOOTH",
"-15 312 OFFCURVE",
"15 345 OFFCURVE",
"77 384 CURVE SMOOTH",
"119 410 OFFCURVE",
"163 433 OFFCURVE",
"210 454 CURVE SMOOTH",
"257 475 OFFCURVE",
"302 492 OFFCURVE",
"347 505 CURVE SMOOTH",
"414 525 OFFCURVE",
"464 531 OFFCURVE",
"512 531 CURVE SMOOTH",
"601 531 OFFCURVE",
"636 502 OFFCURVE",
"636 435 CURVE SMOOTH",
"636 386 OFFCURVE",
"607 309 OFFCURVE",
"551 205 CURVE SMOOTH",
"498 108 OFFCURVE",
"451 38 OFFCURVE",
"405 -7 CURVE SMOOTH",
"402 -10 OFFCURVE",
"401 -14 OFFCURVE",
"401 -19 CURVE SMOOTH",
"401 -36 OFFCURVE",
"424 -46 OFFCURVE",
"445 -42 CURVE",
"453 -37 OFFCURVE",
"463 -26 OFFCURVE",
"476 -9 CURVE SMOOTH",
"503 28 LINE SMOOTH",
"581 135 OFFCURVE",
"667 230 OFFCURVE",
"757 311 CURVE SMOOTH",
"836 382 OFFCURVE",
"888 409 OFFCURVE",
"922 413 CURVE SMOOTH",
"948 416 OFFCURVE",
"952 387 OFFCURVE",
"948 359 CURVE SMOOTH",
"940 296 OFFCURVE",
"907 211 OFFCURVE",
"825 71 CURVE SMOOTH",
"797 24 OFFCURVE",
"783 -2 OFFCURVE",
"779 -5 CURVE SMOOTH",
"776 -8 OFFCURVE",
"775 -12 OFFCURVE",
"775 -15 CURVE SMOOTH",
"775 -31 OFFCURVE",
"798 -36 OFFCURVE",
"823 -36 CURVE SMOOTH",
"826 -36 OFFCURVE",
"835 -35 OFFCURVE",
"839 -34 CURVE",
"847 -25 OFFCURVE",
"854 -17 OFFCURVE",
"858 -10 CURVE",
"898 40 LINE SMOOTH",
"950 100 OFFCURVE",
"1008 164 OFFCURVE",
"1085 233 CURVE SMOOTH",
"1191 328 OFFCURVE",
"1261 373 OFFCURVE",
"1302 373 CURVE SMOOTH",
"1308 373 OFFCURVE",
"1311 369 OFFCURVE",
"1311 362 CURVE SMOOTH",
"1311 353 OFFCURVE",
"1308 340 OFFCURVE",
"1300 322 CURVE SMOOTH",
"1283 285 OFFCURVE",
"1266 258 OFFCURVE",
"1256 240 CURVE SMOOTH",
"1225 186 OFFCURVE",
"1203 140 OFFCURVE",
"1189 104 CURVE SMOOTH",
"1169 55 OFFCURVE",
"1159 16 OFFCURVE",
"1159 -13 CURVE SMOOTH",
"1159 -58 OFFCURVE",
"1188 -77 OFFCURVE",
"1234 -77 CURVE SMOOTH",
"1251 -77 OFFCURVE",
"1271 -72 OFFCURVE",
"1294 -62 CURVE SMOOTH",
"1316 -52 OFFCURVE",
"1338 -38 OFFCURVE",
"1338 -25 CURVE SMOOTH",
"1338 -22 OFFCURVE",
"1336 -20 OFFCURVE",
"1333 -20 CURVE SMOOTH",
"1329 -20 OFFCURVE",
"1318 -26 OFFCURVE",
"1299 -37 CURVE SMOOTH",
"1280 -48 OFFCURVE",
"1264 -54 OFFCURVE",
"1252 -54 CURVE SMOOTH",
"1230 -54 OFFCURVE",
"1219 -42 OFFCURVE",
"1219 -18 CURVE SMOOTH",
"1219 13 OFFCURVE",
"1234 64 OFFCURVE",
"1268 134 CURVE SMOOTH",
"1293 185 OFFCURVE",
"1319 235 OFFCURVE",
"1345 286 CURVE SMOOTH",
"1361 318 OFFCURVE",
"1369 345 OFFCURVE",
"1369 367 CURVE SMOOTH"
);
}
);
width = 1379;
}
);
note = M;
unicode = 004D;
},
{
color = 6;
glyphname = N;
lastChange = "2021-04-21 04:42:22 +0000";
layers = (
{
hints = (
{
horizontal = 1;
place = "{-31, 34}";
type = Stem;
},
{
horizontal = 1;
place = "{204, 36}";
type = Stem;
},
{
horizontal = 1;
place = "{410, 42}";
type = Stem;
},
{
horizontal = 1;
place = "{544, 37}";
type = Stem;
},
{
place = "{2, 46}";
type = Stem;
},
{
place = "{717, 67}";
type = Stem;
},
{
place = "{897, 52}";
type = Stem;
},
{
place = "{1035, 57}";
type = Stem;
}
);
layerId = "AFE3E0A9-A514-4B93-8E4E-B7D18C88F31C";
paths = (
{
closed = 1;
nodes = (
"1094 428 OFFCURVE",
"1064 451 OFFCURVE",
"1003 451 CURVE SMOOTH",
"962 451 OFFCURVE",
"905 421 OFFCURVE",
"836 358 CURVE SMOOTH",
"787 313 OFFCURVE",
"747 265 OFFCURVE",
"700 220 CURVE",
"761 312 OFFCURVE",
"784 380 OFFCURVE",
"784 441 CURVE SMOOTH",
"784 528 OFFCURVE",
"717 581 OFFCURVE",
"580 581 CURVE SMOOTH",
"522 581 OFFCURVE",
"456 574 OFFCURVE",
"387 557 CURVE SMOOTH",
"302 536 OFFCURVE",
"207 496 OFFCURVE",
"136 457 CURVE SMOOTH",
"41 404 OFFCURVE",
"2 353 OFFCURVE",
"2 298 CURVE SMOOTH",
"2 239 OFFCURVE",
"53 210 OFFCURVE",
"146 210 CURVE SMOOTH",
"169 210 OFFCURVE",
"197 214 OFFCURVE",
"231 220 CURVE SMOOTH",
"274 228 OFFCURVE",
"296 238 OFFCURVE",
"296 249 CURVE SMOOTH",
"296 253 OFFCURVE",
"292 255 OFFCURVE",
"286 255 CURVE SMOOTH",
"283 255 OFFCURVE",
"279 254 OFFCURVE",
"273 253 CURVE SMOOTH",
"215 240 OFFCURVE",
"181 234 OFFCURVE",
"147 234 CURVE SMOOTH",
"84 234 OFFCURVE",
"51 253 OFFCURVE",
"51 291 CURVE SMOOTH",
"51 338 OFFCURVE",
"94 383 OFFCURVE",
"186 434 CURVE SMOOTH",
"300 498 OFFCURVE",
"480 554 OFFCURVE",
"606 554 CURVE SMOOTH",
"712 554 OFFCURVE",
"737 494 OFFCURVE",
"724 431 CURVE SMOOTH",
"714 383 OFFCURVE",
"681 300 OFFCURVE",
"621 193 CURVE SMOOTH",
"565 93 OFFCURVE",
"520 35 OFFCURVE",
"474 -10 CURVE SMOOTH",
"471 -13 OFFCURVE",
"470 -17 OFFCURVE",
"470 -22 CURVE SMOOTH",
"470 -37 OFFCURVE",
"492 -49 OFFCURVE",
"510 -49 CURVE",
"531 -46 OFFCURVE",
"558 2 OFFCURVE",
"571 21 CURVE SMOOTH",
"625 95 OFFCURVE",
"684 165 OFFCURVE",
"750 232 CURVE SMOOTH",
"841 323 OFFCURVE",
"905 379 OFFCURVE",
"963 407 CURVE SMOOTH",
"992 421 OFFCURVE",
"1039 429 OFFCURVE",
"1039 384 CURVE SMOOTH",
"1039 369 OFFCURVE",
"1034 347 OFFCURVE",
"1024 320 CURVE SMOOTH",
"1015 293 OFFCURVE",
"994 253 OFFCURVE",
"977 221 CURVE SMOOTH",
"958 186 OFFCURVE",
"940 152 OFFCURVE",
"921 117 CURVE SMOOTH",
"877 40 OFFCURVE",
"879 -30 OFFCURVE",
"975 -30 CURVE SMOOTH",
"994 -30 OFFCURVE",
"1013 -24 OFFCURVE",
"1037 -14 CURVE SMOOTH",
"1059 -4 OFFCURVE",
"1068 12 OFFCURVE",
"1068 25 CURVE SMOOTH",
"1068 28 OFFCURVE",
"1067 30 OFFCURVE",
"1063 30 CURVE SMOOTH",
"1059 30 OFFCURVE",
"1053 21 OFFCURVE",
"1033 10 CURVE SMOOTH",
"1015 -1 OFFCURVE",
"993 -4 OFFCURVE",
"980 -4 CURVE SMOOTH",
"956 -4 OFFCURVE",
"945 6 OFFCURVE",
"945 26 CURVE SMOOTH",
"945 51 OFFCURVE",
"978 114 OFFCURVE",
"1026 199 CURVE SMOOTH",
"1075 284 OFFCURVE",
"1094 342 OFFCURVE",
"1094 381 CURVE SMOOTH"
);
}
);
width = 1094;
}
);
note = N;
unicode = 004E;
},
{
color = 6;
glyphname = Nacute;
lastChange = "2021-04-21 04:42:22 +0000";
layers = (
{
hints = (
{
horizontal = 1;
place = "{-31, 34}";
type = Stem;
},
{
horizontal = 1;
place = "{204, 36}";
type = Stem;
},
{
horizontal = 1;
place = "{410, 42}";
type = Stem;
},
{
horizontal = 1;
place = "{544, 37}";
type = Stem;
},
{
place = "{2, 46}";
type = Stem;
},
{
place = "{717, 67}";
type = Stem;
},
{
place = "{897, 52}";
type = Stem;
},
{
place = "{1035, 57}";
type = Stem;
}
);
layerId = "AFE3E0A9-A514-4B93-8E4E-B7D18C88F31C";
paths = (
{
closed = 1;
nodes = (
"1094 428 OFFCURVE",
"1064 451 OFFCURVE",
"1003 451 CURVE SMOOTH",
"962 451 OFFCURVE",
"905 421 OFFCURVE",
"836 358 CURVE SMOOTH",
"787 313 OFFCURVE",
"747 265 OFFCURVE",
"700 220 CURVE",
"761 312 OFFCURVE",
"784 380 OFFCURVE",
"784 441 CURVE SMOOTH",
"784 528 OFFCURVE",
"717 581 OFFCURVE",
"580 581 CURVE SMOOTH",
"522 581 OFFCURVE",
"456 574 OFFCURVE",
"387 557 CURVE SMOOTH",
"302 536 OFFCURVE",
"207 496 OFFCURVE",
"136 457 CURVE SMOOTH",
"41 404 OFFCURVE",
"2 353 OFFCURVE",
"2 298 CURVE SMOOTH",
"2 239 OFFCURVE",
"53 210 OFFCURVE",
"146 210 CURVE SMOOTH",
"169 210 OFFCURVE",
"197 214 OFFCURVE",
"231 220 CURVE SMOOTH",
"274 228 OFFCURVE",
"296 238 OFFCURVE",
"296 249 CURVE SMOOTH",
"296 253 OFFCURVE",
"292 255 OFFCURVE",
"286 255 CURVE SMOOTH",
"283 255 OFFCURVE",
"279 254 OFFCURVE",
"273 253 CURVE SMOOTH",
"215 240 OFFCURVE",
"181 234 OFFCURVE",
"147 234 CURVE SMOOTH",
"84 234 OFFCURVE",
"51 253 OFFCURVE",
"51 291 CURVE SMOOTH",
"51 338 OFFCURVE",
"94 383 OFFCURVE",
"186 434 CURVE SMOOTH",
"300 498 OFFCURVE",
"480 554 OFFCURVE",
"606 554 CURVE SMOOTH",
"712 554 OFFCURVE",
"737 494 OFFCURVE",
"724 431 CURVE SMOOTH",
"714 383 OFFCURVE",
"681 300 OFFCURVE",
"621 193 CURVE SMOOTH",
"565 93 OFFCURVE",
"520 35 OFFCURVE",
"474 -10 CURVE SMOOTH",
"471 -13 OFFCURVE",
"470 -17 OFFCURVE",
"470 -22 CURVE SMOOTH",
"470 -37 OFFCURVE",
"492 -49 OFFCURVE",
"510 -49 CURVE",
"531 -46 OFFCURVE",
"558 2 OFFCURVE",
"571 21 CURVE SMOOTH",
"625 95 OFFCURVE",
"684 165 OFFCURVE",
"750 232 CURVE SMOOTH",
"841 323 OFFCURVE",
"905 379 OFFCURVE",
"963 407 CURVE SMOOTH",
"992 421 OFFCURVE",
"1039 429 OFFCURVE",
"1039 384 CURVE SMOOTH",
"1039 369 OFFCURVE",
"1034 347 OFFCURVE",
"1024 320 CURVE SMOOTH",
"1015 293 OFFCURVE",
"994 253 OFFCURVE",
"977 221 CURVE SMOOTH",
"958 186 OFFCURVE",
"940 152 OFFCURVE",
"921 117 CURVE SMOOTH",
"877 40 OFFCURVE",
"879 -30 OFFCURVE",
"975 -30 CURVE SMOOTH",
"994 -30 OFFCURVE",
"1013 -24 OFFCURVE",
"1037 -14 CURVE SMOOTH",
"1059 -4 OFFCURVE",
"1068 12 OFFCURVE",
"1068 25 CURVE SMOOTH",
"1068 28 OFFCURVE",
"1067 30 OFFCURVE",
"1063 30 CURVE SMOOTH",
"1059 30 OFFCURVE",
"1053 21 OFFCURVE",
"1033 10 CURVE SMOOTH",
"1015 -1 OFFCURVE",
"993 -4 OFFCURVE",
"980 -4 CURVE SMOOTH",
"956 -4 OFFCURVE",
"945 6 OFFCURVE",
"945 26 CURVE SMOOTH",
"945 51 OFFCURVE",
"978 114 OFFCURVE",
"1026 199 CURVE SMOOTH",
"1075 284 OFFCURVE",
"1094 342 OFFCURVE",
"1094 381 CURVE SMOOTH"
);
},
{
closed = 1;
nodes = (
"986 521 OFFCURVE",
"1087 571 OFFCURVE",
"1102 580 CURVE SMOOTH",
"1110 584 OFFCURVE",
"1115 593 OFFCURVE",
"1115 602 CURVE SMOOTH",
"1115 611 OFFCURVE",
"1109 618 OFFCURVE",
"1099 618 CURVE SMOOTH",
"1081 618 OFFCURVE",
"975 546 OFFCURVE",
"969 542 CURVE SMOOTH",
"966 540 OFFCURVE",
"962 536 OFFCURVE",
"962 532 CURVE SMOOTH",
"962 525 OFFCURVE",
"969 521 OFFCURVE",
"975 521 CURVE SMOOTH"
);
}
);
width = 1094;
}
);
note = Nacute;
unicode = 0143;
},
{
color = 6;
glyphname = Ncaron;
lastChange = "2021-04-21 04:42:22 +0000";
layers = (
{
hints = (
{
horizontal = 1;
place = "{-31, 34}";
type = Stem;
},
{
horizontal = 1;
place = "{204, 36}";
type = Stem;
},
{
horizontal = 1;
place = "{410, 42}";
type = Stem;
},
{
horizontal = 1;
place = "{544, 37}";
type = Stem;
},
{
place = "{2, 46}";
type = Stem;
},
{
place = "{717, 67}";
type = Stem;
},
{
place = "{897, 52}";
type = Stem;
},
{
place = "{1035, 57}";
type = Stem;
}
);
layerId = "AFE3E0A9-A514-4B93-8E4E-B7D18C88F31C";
paths = (
{
closed = 1;
nodes = (
"1094 428 OFFCURVE",
"1064 451 OFFCURVE",
"1003 451 CURVE SMOOTH",
"962 451 OFFCURVE",
"905 421 OFFCURVE",
"836 358 CURVE SMOOTH",
"787 313 OFFCURVE",
"747 265 OFFCURVE",
"700 220 CURVE",
"761 312 OFFCURVE",
"784 380 OFFCURVE",
"784 441 CURVE SMOOTH",
"784 528 OFFCURVE",
"717 581 OFFCURVE",
"580 581 CURVE SMOOTH",
"522 581 OFFCURVE",
"456 574 OFFCURVE",
"387 557 CURVE SMOOTH",
"302 536 OFFCURVE",
"207 496 OFFCURVE",
"136 457 CURVE SMOOTH",
"41 404 OFFCURVE",
"2 353 OFFCURVE",
"2 298 CURVE SMOOTH",
"2 239 OFFCURVE",
"53 210 OFFCURVE",
"146 210 CURVE SMOOTH",
"169 210 OFFCURVE",
"197 214 OFFCURVE",
"231 220 CURVE SMOOTH",
"274 228 OFFCURVE",
"296 238 OFFCURVE",
"296 249 CURVE SMOOTH",
"296 253 OFFCURVE",
"292 255 OFFCURVE",
"286 255 CURVE SMOOTH",
"283 255 OFFCURVE",
"279 254 OFFCURVE",
"273 253 CURVE SMOOTH",
"215 240 OFFCURVE",
"181 234 OFFCURVE",
"147 234 CURVE SMOOTH",
"84 234 OFFCURVE",
"51 253 OFFCURVE",
"51 291 CURVE SMOOTH",
"51 338 OFFCURVE",
"94 383 OFFCURVE",
"186 434 CURVE SMOOTH",
"300 498 OFFCURVE",
"480 554 OFFCURVE",
"606 554 CURVE SMOOTH",
"712 554 OFFCURVE",
"737 494 OFFCURVE",
"724 431 CURVE SMOOTH",
"714 383 OFFCURVE",
"681 300 OFFCURVE",
"621 193 CURVE SMOOTH",
"565 93 OFFCURVE",
"520 35 OFFCURVE",
"474 -10 CURVE SMOOTH",
"471 -13 OFFCURVE",
"470 -17 OFFCURVE",
"470 -22 CURVE SMOOTH",
"470 -37 OFFCURVE",
"492 -49 OFFCURVE",
"510 -49 CURVE",
"531 -46 OFFCURVE",
"558 2 OFFCURVE",
"571 21 CURVE SMOOTH",
"625 95 OFFCURVE",
"684 165 OFFCURVE",
"750 232 CURVE SMOOTH",
"841 323 OFFCURVE",
"905 379 OFFCURVE",
"963 407 CURVE SMOOTH",
"992 421 OFFCURVE",
"1039 429 OFFCURVE",
"1039 384 CURVE SMOOTH",
"1039 369 OFFCURVE",
"1034 347 OFFCURVE",
"1024 320 CURVE SMOOTH",
"1015 293 OFFCURVE",
"994 253 OFFCURVE",
"977 221 CURVE SMOOTH",
"958 186 OFFCURVE",
"940 152 OFFCURVE",
"921 117 CURVE SMOOTH",
"877 40 OFFCURVE",
"879 -30 OFFCURVE",
"975 -30 CURVE SMOOTH",
"994 -30 OFFCURVE",
"1013 -24 OFFCURVE",
"1037 -14 CURVE SMOOTH",
"1059 -4 OFFCURVE",
"1068 12 OFFCURVE",
"1068 25 CURVE SMOOTH",
"1068 28 OFFCURVE",
"1067 30 OFFCURVE",
"1063 30 CURVE SMOOTH",
"1059 30 OFFCURVE",
"1053 21 OFFCURVE",
"1033 10 CURVE SMOOTH",
"1015 -1 OFFCURVE",
"993 -4 OFFCURVE",
"980 -4 CURVE SMOOTH",
"956 -4 OFFCURVE",
"945 6 OFFCURVE",
"945 26 CURVE SMOOTH",
"945 51 OFFCURVE",
"978 114 OFFCURVE",
"1026 199 CURVE SMOOTH",
"1075 284 OFFCURVE",
"1094 342 OFFCURVE",
"1094 381 CURVE SMOOTH"
);
},
{
closed = 1;
nodes = (
"1110 595 LINE",
"1113 603 LINE",
"1113 607 OFFCURVE",
"1105 611 OFFCURVE",
"1101 611 CURVE SMOOTH",
"1086 611 OFFCURVE",
"1021 574 OFFCURVE",
"1003 565 CURVE",
"989 579 OFFCURVE",
"945 613 OFFCURVE",
"924 613 CURVE SMOOTH",
"918 613 OFFCURVE",
"907 610 OFFCURVE",
"907 603 CURVE SMOOTH",
"907 596 OFFCURVE",
"980 530 OFFCURVE",
"987 530 CURVE SMOOTH",
"1005 530 OFFCURVE",
"1098 583 OFFCURVE",
"1110 596 CURVE"
);
}
);
width = 1094;
}
);
note = Ncaron;
unicode = 0147;
},
{
color = 6;
glyphname = Ncommaaccent;
lastChange = "2021-04-21 04:42:22 +0000";
layers = (
{
hints = (
{
horizontal = 1;
place = "{-31, 34}";
type = Stem;
},
{
horizontal = 1;
place = "{203, 36}";
type = Stem;
},
{
horizontal = 1;
place = "{410, 42}";
type = Stem;
},
{
horizontal = 1;
place = "{544, 37}";
type = Stem;
},
{
place = "{2, 46}";
type = Stem;
},
{
place = "{714, 63}";
type = Stem;
},
{
place = "{897, 52}";
type = Stem;
},
{
place = "{1035, 57}";
type = Stem;
},
{
horizontal = 1;
place = "{204, 36}";
type = Stem;
},
{
place = "{717, 67}";
type = Stem;
}
);
layerId = "AFE3E0A9-A514-4B93-8E4E-B7D18C88F31C";
paths = (
{
closed = 1;
nodes = (
"1094 428 OFFCURVE",
"1064 451 OFFCURVE",
"1003 451 CURVE SMOOTH",
"962 451 OFFCURVE",
"905 421 OFFCURVE",
"836 358 CURVE SMOOTH",
"787 313 OFFCURVE",
"747 265 OFFCURVE",
"700 220 CURVE",
"761 312 OFFCURVE",
"784 380 OFFCURVE",
"784 441 CURVE SMOOTH",
"784 528 OFFCURVE",
"717 581 OFFCURVE",
"580 581 CURVE SMOOTH",
"522 581 OFFCURVE",
"456 574 OFFCURVE",
"387 557 CURVE SMOOTH",
"302 536 OFFCURVE",
"207 496 OFFCURVE",
"136 457 CURVE SMOOTH",
"41 404 OFFCURVE",
"2 353 OFFCURVE",
"2 298 CURVE SMOOTH",
"2 239 OFFCURVE",
"53 210 OFFCURVE",
"146 210 CURVE SMOOTH",
"169 210 OFFCURVE",
"197 214 OFFCURVE",
"231 220 CURVE SMOOTH",
"274 228 OFFCURVE",
"296 238 OFFCURVE",
"296 249 CURVE SMOOTH",
"296 253 OFFCURVE",
"292 255 OFFCURVE",
"286 255 CURVE SMOOTH",
"283 255 OFFCURVE",
"279 254 OFFCURVE",
"273 253 CURVE SMOOTH",
"215 240 OFFCURVE",
"181 234 OFFCURVE",
"147 234 CURVE SMOOTH",
"84 234 OFFCURVE",
"51 253 OFFCURVE",
"51 291 CURVE SMOOTH",
"51 338 OFFCURVE",
"94 383 OFFCURVE",
"186 434 CURVE SMOOTH",
"300 498 OFFCURVE",
"480 554 OFFCURVE",
"606 554 CURVE SMOOTH",
"712 554 OFFCURVE",
"737 494 OFFCURVE",
"724 431 CURVE SMOOTH",
"714 383 OFFCURVE",
"681 300 OFFCURVE",
"621 193 CURVE SMOOTH",
"565 93 OFFCURVE",
"520 35 OFFCURVE",
"474 -10 CURVE SMOOTH",
"471 -13 OFFCURVE",
"470 -17 OFFCURVE",
"470 -22 CURVE SMOOTH",
"470 -37 OFFCURVE",
"492 -49 OFFCURVE",
"510 -49 CURVE",
"531 -46 OFFCURVE",
"558 2 OFFCURVE",
"571 21 CURVE SMOOTH",
"625 95 OFFCURVE",
"684 165 OFFCURVE",
"750 232 CURVE SMOOTH",
"841 323 OFFCURVE",
"905 379 OFFCURVE",
"963 407 CURVE SMOOTH",
"992 421 OFFCURVE",
"1039 429 OFFCURVE",
"1039 384 CURVE SMOOTH",
"1039 369 OFFCURVE",
"1034 347 OFFCURVE",
"1024 320 CURVE SMOOTH",
"1015 293 OFFCURVE",
"994 253 OFFCURVE",
"977 221 CURVE SMOOTH",
"958 186 OFFCURVE",
"940 152 OFFCURVE",
"921 117 CURVE SMOOTH",
"877 40 OFFCURVE",
"879 -30 OFFCURVE",
"975 -30 CURVE SMOOTH",
"994 -30 OFFCURVE",
"1013 -24 OFFCURVE",
"1037 -14 CURVE SMOOTH",
"1059 -4 OFFCURVE",
"1068 12 OFFCURVE",
"1068 25 CURVE SMOOTH",
"1068 28 OFFCURVE",
"1067 30 OFFCURVE",
"1063 30 CURVE SMOOTH",
"1059 30 OFFCURVE",
"1053 21 OFFCURVE",
"1033 10 CURVE SMOOTH",
"1015 -1 OFFCURVE",
"993 -4 OFFCURVE",
"980 -4 CURVE SMOOTH",
"956 -4 OFFCURVE",
"945 6 OFFCURVE",
"945 26 CURVE SMOOTH",
"945 51 OFFCURVE",
"978 114 OFFCURVE",
"1026 199 CURVE SMOOTH",
"1075 284 OFFCURVE",
"1094 342 OFFCURVE",
"1094 381 CURVE SMOOTH"
);
},
{
closed = 1;
nodes = (
"712 -70 OFFCURVE",
"726 -54 OFFCURVE",
"746 -54 CURVE SMOOTH",
"763 -54 OFFCURVE",
"772 -64 OFFCURVE",
"772 -77 CURVE SMOOTH",
"772 -92 OFFCURVE",
"763 -109 OFFCURVE",
"737 -135 CURVE SMOOTH",
"719 -153 OFFCURVE",
"701 -166 OFFCURVE",
"691 -172 CURVE",
"679 -175 OFFCURVE",
"667 -170 OFFCURVE",
"684 -161 CURVE",
"685 -160 OFFCURVE",
"721 -131 OFFCURVE",
"729 -104 CURVE",
"718 -100 OFFCURVE",
"712 -93 OFFCURVE",
"712 -85 CURVE SMOOTH"
);
}
);
width = 1094;
}
);
note = Ncommaaccent;
unicode = 0145;
},
{
color = 6;
glyphname = Eng;
lastChange = "2021-04-21 04:42:22 +0000";
layers = (
{
hints = (
{
horizontal = 1;
place = "{-407, 26}";
type = Stem;
},
{
horizontal = 1;
place = "{203, 36}";
type = Stem;
},
{
horizontal = 1;
place = "{410, 42}";
type = Stem;
},
{
horizontal = 1;
place = "{544, 37}";
type = Stem;
},
{
place = "{2, 46}";
type = Stem;
},
{
place = "{295, 49}";
type = Stem;
},
{
place = "{717, 67}";
type = Stem;
},
{
place = "{1035, 57}";
type = Stem;
}
);
layerId = "AFE3E0A9-A514-4B93-8E4E-B7D18C88F31C";
paths = (
{
closed = 1;
nodes = (
"1094 423 OFFCURVE",
"1063 446 OFFCURVE",
"1002 446 CURVE SMOOTH",
"960 446 OFFCURVE",
"904 425 OFFCURVE",
"834 362 CURVE SMOOTH",
"786 317 OFFCURVE",
"738 261 OFFCURVE",
"691 216 CURVE",
"752 308 OFFCURVE",
"782 384 OFFCURVE",
"782 445 CURVE SMOOTH",
"782 532 OFFCURVE",
"713 575 OFFCURVE",
"576 575 CURVE SMOOTH",
"517 575 OFFCURVE",
"448 567 OFFCURVE",
"378 550 CURVE SMOOTH",
"293 529 OFFCURVE",
"214 498 OFFCURVE",
"143 459 CURVE SMOOTH",
"48 406 OFFCURVE",
"1 353 OFFCURVE",
"1 298 CURVE SMOOTH",
"1 239 OFFCURVE",
"47 210 OFFCURVE",
"141 210 CURVE SMOOTH",
"163 210 OFFCURVE",
"198 214 OFFCURVE",
"232 220 CURVE SMOOTH",
"275 228 OFFCURVE",
"297 238 OFFCURVE",
"297 249 CURVE SMOOTH",
"297 253 OFFCURVE",
"293 255 OFFCURVE",
"287 255 CURVE SMOOTH",
"284 255 OFFCURVE",
"280 254 OFFCURVE",
"274 253 CURVE SMOOTH",
"215 240 OFFCURVE",
"175 233 OFFCURVE",
"143 233 CURVE SMOOTH",
"81 233 OFFCURVE",
"49 252 OFFCURVE",
"49 290 CURVE SMOOTH",
"49 337 OFFCURVE",
"94 385 OFFCURVE",
"184 436 CURVE SMOOTH",
"251 475 OFFCURVE",
"320 504 OFFCURVE",
"395 524 CURVE SMOOTH",
"460 542 OFFCURVE",
"509 551 OFFCURVE",
"560 551 CURVE SMOOTH",
"663 551 OFFCURVE",
"715 515 OFFCURVE",
"715 443 CURVE SMOOTH",
"715 394 OFFCURVE",
"686 316 OFFCURVE",
"627 209 CURVE SMOOTH",
"572 109 OFFCURVE",
"524 37 OFFCURVE",
"479 -8 CURVE",
"477 -11 OFFCURVE",
"475 -15 OFFCURVE",
"475 -20 CURVE SMOOTH",
"475 -35 OFFCURVE",
"491 -42 OFFCURVE",
"510 -42 CURVE",
"537 -15 OFFCURVE",
"557 9 OFFCURVE",
"571 28 CURVE SMOOTH",
"625 102 OFFCURVE",
"687 172 OFFCURVE",
"753 239 CURVE SMOOTH",
"844 330 OFFCURVE",
"913 387 OFFCURVE",
"970 409 CURVE SMOOTH",
"985 415 OFFCURVE",
"997 417 OFFCURVE",
"1007 417 CURVE SMOOTH",
"1026 417 OFFCURVE",
"1036 405 OFFCURVE",
"1036 382 CURVE SMOOTH",
"1036 330 OFFCURVE",
"1016 259 OFFCURVE",
"992 203 CURVE SMOOTH",
"932 54 OFFCURVE",
"910 19 OFFCURVE",
"894 -5 CURVE",
"794 -14 OFFCURVE",
"672 -45 OFFCURVE",
"543 -98 CURVE SMOOTH",
"391 -162 OFFCURVE",
"307 -229 OFFCURVE",
"291 -301 CURVE SMOOTH",
"284 -331 OFFCURVE",
"293 -355 OFFCURVE",
"314 -373 CURVE SMOOTH",
"336 -391 OFFCURVE",
"383 -407 OFFCURVE",
"423 -407 CURVE SMOOTH",
"533 -407 OFFCURVE",
"631 -355 OFFCURVE",
"752 -253 CURVE SMOOTH",
"817 -199 OFFCURVE",
"879 -123 OFFCURVE",
"939 -25 CURVE",
"945 -24 OFFCURVE",
"953 -24 OFFCURVE",
"960 -25 CURVE",
"979 -25 OFFCURVE",
"992 -28 OFFCURVE",
"998 -31 CURVE",
"1002 -32 OFFCURVE",
"1004 -33 OFFCURVE",
"1005 -33 CURVE SMOOTH",
"1012 -33 OFFCURVE",
"1014 -31 OFFCURVE",
"1015 -26 CURVE SMOOTH",
"1017 -19 OFFCURVE",
"1008 -14 OFFCURVE",
"990 -10 CURVE SMOOTH",
"977 -7 OFFCURVE",
"957 -5 OFFCURVE",
"945 -5 CURVE",
"1015 109 OFFCURVE",
"1089 249 OFFCURVE",
"1093 376 CURVE SMOOTH"
);
},
{
closed = 1;
nodes = (
"845 -108 OFFCURVE",
"793 -181 OFFCURVE",
"736 -239 CURVE SMOOTH",
"670 -303 OFFCURVE",
"537 -382 OFFCURVE",
"452 -378 CURVE SMOOTH",
"393 -376 OFFCURVE",
"327 -372 OFFCURVE",
"340 -305 CURVE SMOOTH",
"350 -256 OFFCURVE",
"396 -207 OFFCURVE",
"477 -158 CURVE SMOOTH",
"529 -129 OFFCURVE",
"595 -101 OFFCURVE",
"680 -72 CURVE SMOOTH",
"765 -44 OFFCURVE",
"835 -27 OFFCURVE",
"889 -22 CURVE"
);
}
);
width = 1094;
}
);
note = Eng;
unicode = 014A;
},
{
color = 6;
glyphname = Ntilde;
lastChange = "2021-04-21 04:42:22 +0000";
layers = (
{
hints = (
{
horizontal = 1;
place = "{-31, 34}";
type = Stem;
},
{
horizontal = 1;
place = "{204, 36}";
type = Stem;
},
{
horizontal = 1;
place = "{410, 42}";
type = Stem;
},
{
horizontal = 1;
place = "{544, 37}";
type = Stem;
},
{
place = "{2, 46}";
type = Stem;
},
{
place = "{717, 67}";
type = Stem;
},
{
place = "{897, 52}";
type = Stem;
},
{
place = "{1035, 57}";
type = Stem;
},
{
horizontal = 1;
place = "{590, 40}";
type = Stem;
},
{
place = "{872, 288}";
type = Stem;
}
);
layerId = "AFE3E0A9-A514-4B93-8E4E-B7D18C88F31C";
paths = (
{
closed = 1;
nodes = (
"1094 428 OFFCURVE",
"1064 451 OFFCURVE",
"1003 451 CURVE SMOOTH",
"962 451 OFFCURVE",
"905 421 OFFCURVE",
"836 358 CURVE SMOOTH",
"787 313 OFFCURVE",
"747 265 OFFCURVE",
"700 220 CURVE",
"761 312 OFFCURVE",
"784 380 OFFCURVE",
"784 441 CURVE SMOOTH",
"784 528 OFFCURVE",
"717 581 OFFCURVE",
"580 581 CURVE SMOOTH",
"522 581 OFFCURVE",
"456 574 OFFCURVE",
"387 557 CURVE SMOOTH",
"302 536 OFFCURVE",
"207 496 OFFCURVE",
"136 457 CURVE SMOOTH",
"41 404 OFFCURVE",
"2 353 OFFCURVE",
"2 298 CURVE SMOOTH",
"2 239 OFFCURVE",
"53 210 OFFCURVE",
"146 210 CURVE SMOOTH",
"169 210 OFFCURVE",
"197 214 OFFCURVE",
"231 220 CURVE SMOOTH",
"274 228 OFFCURVE",
"296 238 OFFCURVE",
"296 249 CURVE SMOOTH",
"296 253 OFFCURVE",
"292 255 OFFCURVE",
"286 255 CURVE SMOOTH",
"283 255 OFFCURVE",
"279 254 OFFCURVE",
"273 253 CURVE SMOOTH",
"215 240 OFFCURVE",
"181 234 OFFCURVE",
"147 234 CURVE SMOOTH",
"84 234 OFFCURVE",
"51 253 OFFCURVE",
"51 291 CURVE SMOOTH",
"51 338 OFFCURVE",
"94 383 OFFCURVE",
"186 434 CURVE SMOOTH",
"300 498 OFFCURVE",
"480 554 OFFCURVE",
"606 554 CURVE SMOOTH",
"712 554 OFFCURVE",
"737 494 OFFCURVE",
"724 431 CURVE SMOOTH",
"714 383 OFFCURVE",
"681 300 OFFCURVE",
"621 193 CURVE SMOOTH",
"565 93 OFFCURVE",
"520 35 OFFCURVE",
"474 -10 CURVE SMOOTH",
"471 -13 OFFCURVE",
"470 -17 OFFCURVE",
"470 -22 CURVE SMOOTH",
"470 -37 OFFCURVE",
"492 -49 OFFCURVE",
"510 -49 CURVE",
"531 -46 OFFCURVE",
"558 2 OFFCURVE",
"571 21 CURVE SMOOTH",
"625 95 OFFCURVE",
"684 165 OFFCURVE",
"750 232 CURVE SMOOTH",
"841 323 OFFCURVE",
"905 379 OFFCURVE",
"963 407 CURVE SMOOTH",
"992 421 OFFCURVE",
"1039 429 OFFCURVE",
"1039 384 CURVE SMOOTH",
"1039 369 OFFCURVE",
"1034 347 OFFCURVE",
"1024 320 CURVE SMOOTH",
"1015 293 OFFCURVE",
"994 253 OFFCURVE",
"977 221 CURVE SMOOTH",
"958 186 OFFCURVE",
"940 152 OFFCURVE",
"921 117 CURVE SMOOTH",
"877 40 OFFCURVE",
"879 -30 OFFCURVE",
"975 -30 CURVE SMOOTH",
"994 -30 OFFCURVE",
"1013 -24 OFFCURVE",
"1037 -14 CURVE SMOOTH",
"1059 -4 OFFCURVE",
"1068 12 OFFCURVE",
"1068 25 CURVE SMOOTH",
"1068 28 OFFCURVE",
"1067 30 OFFCURVE",
"1063 30 CURVE SMOOTH",
"1059 30 OFFCURVE",
"1053 21 OFFCURVE",
"1033 10 CURVE SMOOTH",
"1015 -1 OFFCURVE",
"993 -4 OFFCURVE",
"980 -4 CURVE SMOOTH",
"956 -4 OFFCURVE",
"945 6 OFFCURVE",
"945 26 CURVE SMOOTH",
"945 51 OFFCURVE",
"978 114 OFFCURVE",
"1026 199 CURVE SMOOTH",
"1075 284 OFFCURVE",
"1094 342 OFFCURVE",
"1094 381 CURVE SMOOTH"
);
},
{
closed = 1;
nodes = (
"1156 627 OFFCURVE",
"1154 629 OFFCURVE",
"1145 629 CURVE",
"1132 614 OFFCURVE",
"1115 607 OFFCURVE",
"1096 607 CURVE SMOOTH",
"1084 607 OFFCURVE",
"1066 611 OFFCURVE",
"1041 618 CURVE SMOOTH",
"1014 624 OFFCURVE",
"995 628 OFFCURVE",
"981 628 CURVE SMOOTH",
"964 628 OFFCURVE",
"947 625 OFFCURVE",
"934 618 CURVE SMOOTH",
"899 600 OFFCURVE",
"881 586 OFFCURVE",
"881 575 CURVE SMOOTH",
"881 573 OFFCURVE",
"881 572 OFFCURVE",
"884 569 CURVE",
"888 569 OFFCURVE",
"899 573 OFFCURVE",
"913 583 CURVE SMOOTH",
"926 591 OFFCURVE",
"939 595 OFFCURVE",
"951 595 CURVE SMOOTH",
"964 595 OFFCURVE",
"984 590 OFFCURVE",
"1011 581 CURVE SMOOTH",
"1037 572 OFFCURVE",
"1058 568 OFFCURVE",
"1071 568 CURVE SMOOTH",
"1085 568 OFFCURVE",
"1097 571 OFFCURVE",
"1108 577 CURVE SMOOTH",
"1142 595 OFFCURVE",
"1156 610 OFFCURVE",
"1156 622 CURVE SMOOTH"
);
}
);
width = 1094;
}
);
note = Ntilde;
unicode = 00D1;
},
{
color = 6;
glyphname = O;
lastChange = "2021-04-21 04:42:22 +0000";
layers = (
{
hints = (
{
horizontal = 1;
place = "{-37, 34}";
type = Stem;
},
{
horizontal = 1;
place = "{125, 33}";
type = Stem;
},
{
horizontal = 1;
place = "{500, 36}";
type = Stem;
},
{
place = "{-7, 42}";
type = Stem;
},
{
place = "{56, 63}";
type = Stem;
},
{
place = "{819, 55}";
type = Stem;
}
);
layerId = "AFE3E0A9-A514-4B93-8E4E-B7D18C88F31C";
paths = (
{
closed = 1;
nodes = (
"875 521 OFFCURVE",
"682 545 OFFCURVE",
"529 535 CURVE SMOOTH",
"408 527 OFFCURVE",
"227 479 OFFCURVE",
"154 441 CURVE SMOOTH",
"67 396 OFFCURVE",
"-6 333 OFFCURVE",
"-6 241 CURVE SMOOTH",
"-6 197 OFFCURVE",
"22 165 OFFCURVE",
"77 144 CURVE",
"64 119 OFFCURVE",
"58 95 OFFCURVE",
"58 74 CURVE SMOOTH",
"58 4 OFFCURVE",
"101 -37 OFFCURVE",
"235 -37 CURVE SMOOTH",
"339 -37 OFFCURVE",
"444 -8 OFFCURVE",
"556 37 CURVE SMOOTH",
"668 82 OFFCURVE",
"752 139 OFFCURVE",
"812 208 CURVE SMOOTH",
"859 261 OFFCURVE",
"875 312 OFFCURVE",
"875 359 CURVE SMOOTH"
);
},
{
closed = 1;
nodes = (
"821 259 OFFCURVE",
"648 125 OFFCURVE",
"535 70 CURVE SMOOTH",
"445 25 OFFCURVE",
"268 -35 OFFCURVE",
"161 12 CURVE SMOOTH",
"109 35 OFFCURVE",
"117 104 OFFCURVE",
"139 136 CURVE",
"153 133 OFFCURVE",
"168 131 OFFCURVE",
"185 131 CURVE SMOOTH",
"239 131 OFFCURVE",
"293 144 OFFCURVE",
"347 169 CURVE SMOOTH",
"397 192 OFFCURVE",
"439 223 OFFCURVE",
"472 260 CURVE",
"472 265 OFFCURVE",
"469 268 OFFCURVE",
"463 268 CURVE SMOOTH",
"464 268 OFFCURVE",
"449 257 OFFCURVE",
"419 235 CURVE SMOOTH",
"343 179 OFFCURVE",
"268 151 OFFCURVE",
"194 151 CURVE SMOOTH",
"179 151 OFFCURVE",
"164 152 OFFCURVE",
"148 155 CURVE",
"239 290 OFFCURVE",
"423 419 OFFCURVE",
"584 440 CURVE SMOOTH",
"595 442 OFFCURVE",
"602 446 OFFCURVE",
"602 453 CURVE SMOOTH",
"602 460 OFFCURVE",
"597 462 OFFCURVE",
"587 462 CURVE SMOOTH",
"584 462 LINE SMOOTH",
"403 462 OFFCURVE",
"180 305 OFFCURVE",
"88 165 CURVE",
"44 177 OFFCURVE",
"30 202 OFFCURVE",
"30 241 CURVE SMOOTH",
"30 301 OFFCURVE",
"99 356 OFFCURVE",
"175 398 CURVE SMOOTH",
"259 445 OFFCURVE",
"546 547 OFFCURVE",
"741 475 CURVE SMOOTH",
"782 460 OFFCURVE",
"821 426 OFFCURVE",
"821 374 CURVE SMOOTH"
);
}
);
width = 799;
}
);
leftKerningGroup = O;
note = O;
rightKerningGroup = O;
unicode = 004F;
},
